<svg width="44" height="46" viewBox="0 0 44 46" fill="none" xmlns="http://www.w3.org/2000/svg">
<g id="Group">
<g id="Group_2">
<g id="Group_3">
<path id="Vector" d="M23.5329 0V6.17746L29.7042 2.61354L31.2371 5.27L23.5329 9.71685V20.3366L32.7301 15.0267V6.13147H35.7958V13.2562L41.147 10.169L42.6799 12.824L37.3287 15.9127L43.5 19.4751L41.9671 22.1315L34.2629 17.6816L25.0657 22.9915L34.2645 28.3029L41.9671 23.8545L43.5 26.5094L37.3287 30.0718L42.6799 33.1621L41.147 35.817L35.7958 32.7283V39.8546H32.7301V30.9578L23.5329 25.6464V36.2676L31.2371 40.716L29.7042 43.371L23.5329 39.807V45.986H20.4671V39.807L14.2958 43.371L12.7629 40.716L20.4671 36.2676V25.6464L11.2699 30.9563V39.8546H8.20419V32.7267L2.85448 35.817L1.32162 33.1621L6.66979 30.0718L0.5 26.5094L2.03287 23.8545L9.73553 28.3013L18.9327 22.9915L9.73706 17.6816L2.03287 22.1315L0.5 19.4751L6.67132 15.9127L1.32162 12.824L2.85448 10.169L8.20419 13.2562V6.13147H11.2699V15.0267L20.4671 20.3366V9.71685L12.7629 5.27L14.2958 2.61354L20.4671 6.17746V0H23.5329Z" fill="#C2C2C2"/>
</g>
</g>
</g>
</svg>
