<svg width="51" height="46" viewBox="0 0 51 46" fill="none" xmlns="http://www.w3.org/2000/svg">
<g id="Group 2066">
<path id="Vector" d="M43.642 21.7155V20.6385C43.64 17.5803 42.4242 14.6478 40.2617 12.4853C38.0992 10.3228 35.1667 9.107 32.1085 9.10498H11.5314C8.4731 9.107 5.54066 10.3228 3.37814 12.4853C1.21562 14.6478 -0.00017393 17.5803 -0.00219727 20.6385L-0.00219727 21.7155C-0.00017393 24.7738 1.21562 27.7062 3.37814 29.8687C5.54066 32.0313 8.4731 33.2471 11.5314 33.2491H32.1085C35.1667 33.2471 38.0992 32.0313 40.2617 29.8687C42.4242 27.7062 43.64 24.7738 43.642 21.7155ZM12.4059 30.6865C9.88387 30.6865 7.4651 29.6846 5.68173 27.9012C3.89836 26.1179 2.89647 23.6991 2.89647 21.177C2.89647 18.655 3.89836 16.2362 5.68173 14.4528C7.4651 12.6695 9.88387 11.6676 12.4059 11.6676H31.2358C33.7579 11.6676 36.1766 12.6695 37.96 14.4528C39.7434 16.2362 40.7453 18.655 40.7453 21.177C40.7453 23.6991 39.7434 26.1179 37.96 27.9012C36.1766 29.6846 33.7579 30.6865 31.2358 30.6865C28.9836 30.395 26.9319 29.2425 25.511 27.4708L25.4977 27.4537C25.1143 27.0483 24.6521 26.7256 24.1396 26.5053C23.627 26.285 23.0748 26.1717 22.5169 26.1724C21.3082 26.1724 20.2235 26.6937 19.4712 27.5243L19.4674 27.5281C18.5815 28.5232 17.4949 29.3194 16.2791 29.8641C15.0633 30.4088 13.7458 30.6897 12.4136 30.6884H12.4021L12.4059 30.6865Z" fill="#C2C2C2"/>
<path id="Vector_2" d="M49.862 0.00381906H46.2664C45.9618 0.0048259 45.67 0.126261 45.4546 0.341623C45.2393 0.556985 45.1178 0.84879 45.1168 1.15336V7.26385C45.1168 7.86154 45.577 8.35229 46.1613 8.40002H46.1651V30.4475C46.1626 32.6943 45.269 34.8483 43.6802 36.437C42.0915 38.0258 39.9375 38.9194 37.6907 38.922H26.4779C26.1005 38.0025 25.4585 37.2159 24.6334 36.6618C23.8084 36.1076 22.8373 35.811 21.8435 35.8094C20.5156 35.8094 19.2421 36.3369 18.3031 37.2759C17.3642 38.2148 16.8367 39.4883 16.8367 40.8162C16.8367 42.1441 17.3642 43.4176 18.3031 44.3565C19.2421 45.2955 20.5156 45.823 21.8435 45.823H21.8568C22.8441 45.8229 23.8092 45.5298 24.6298 44.9808C25.4504 44.4318 26.0896 43.6517 26.4664 42.7391L26.4779 42.7067H37.6907C40.9453 42.7036 44.0658 41.4095 46.3673 39.1083C48.6689 36.8071 49.9635 33.6868 49.967 30.4322V8.40193C50.2498 8.37577 50.5127 8.24498 50.7041 8.03518C50.8955 7.82538 51.0018 7.55168 51.002 7.26767V1.15527V1.1419C51.002 0.839709 50.8822 0.54984 50.6689 0.335802C50.4556 0.121764 50.1661 0.00101067 49.8639 0L49.862 0.00381906Z" fill="#C2C2C2"/>
</g>
</svg>
