<svg width="48" height="48" viewBox="0 0 48 48" fill="none" xmlns="http://www.w3.org/2000/svg">
<g id="Frame 17332">
<g id="3 User">
<path id="Fill 1" d="M23.9023 23.7727C17.2784 23.7727 11.6895 24.8551 11.6895 29.0325C11.6895 33.2116 17.3145 34.2559 23.9023 34.2559C30.5263 34.2559 36.1152 33.1736 36.1152 28.9962C36.1152 24.8171 30.4902 23.7727 23.9023 23.7727Z" fill="#C2C2C2"/>
<path id="Fill 3" d="M23.903 19.7924C28.3883 19.7924 31.9848 16.1753 31.9848 11.6642C31.9848 7.15134 28.3883 3.53589 23.903 3.53589C19.4178 3.53589 15.8213 7.15134 15.8213 11.6642C15.8213 16.1753 19.4178 19.7924 23.903 19.7924Z" fill="#C2C2C2"/>
<path id="Fill 6" d="M41.4494 13.5566C42.6098 8.99191 39.2076 4.89233 34.8753 4.89233C34.4043 4.89233 33.9538 4.94421 33.5137 5.03239C33.4553 5.04622 33.39 5.07561 33.3556 5.12748C33.316 5.19319 33.3453 5.28137 33.3882 5.33843C34.6896 7.17468 35.4375 9.41034 35.4375 11.8103C35.4375 14.1099 34.7515 16.2539 33.5481 18.0331C33.4243 18.2164 33.5344 18.4637 33.7527 18.5017C34.0553 18.5553 34.3647 18.583 34.681 18.5916C37.8357 18.6746 40.6671 16.6326 41.4494 13.5566Z" fill="#C2C2C2"/>
<path id="Fill 8" d="M44.7545 24.3043C44.1769 23.0663 42.7826 22.2173 40.6629 21.8006C39.6624 21.5551 36.9547 21.2093 34.4361 21.256C34.3983 21.2612 34.3777 21.2871 34.3742 21.3044C34.3691 21.3286 34.3794 21.3701 34.4293 21.396C35.5931 21.9753 40.0922 24.4945 39.5266 29.8079C39.5025 30.0378 39.6864 30.2367 39.9151 30.2021C41.0222 30.043 43.8709 29.4275 44.7545 27.51C45.2428 26.4967 45.2428 25.3193 44.7545 24.3043Z" fill="#C2C2C2"/>
<path id="Fill 11" d="M14.4862 5.03336C14.0478 4.94345 13.5957 4.89331 13.1247 4.89331C8.79239 4.89331 5.39017 8.99289 6.55232 13.5576C7.33282 16.6336 10.1643 18.6756 13.3189 18.5926C13.6353 18.5839 13.9464 18.5545 14.2473 18.5027C14.4656 18.4646 14.5756 18.2174 14.4519 18.0341C13.2484 16.2532 12.5625 14.1109 12.5625 11.8112C12.5625 9.40959 13.312 7.17393 14.6135 5.33941C14.6547 5.28235 14.6857 5.19417 14.6444 5.12846C14.61 5.07486 14.5464 5.0472 14.4862 5.03336Z" fill="#C2C2C2"/>
<path id="Fill 13" d="M7.3382 21.7999C5.21848 22.2166 3.82597 23.0656 3.24833 24.3036C2.75837 25.3186 2.75837 26.496 3.24833 27.511C4.13198 29.4268 6.98062 30.0441 8.08776 30.2014C8.3164 30.236 8.49863 30.0389 8.47457 29.8072C7.90896 24.4955 12.408 21.9763 13.5736 21.3971C13.6217 21.3694 13.632 21.3296 13.6269 21.3037C13.6234 21.2864 13.6045 21.2605 13.5667 21.257C11.0464 21.2086 8.34047 21.5544 7.3382 21.7999Z" fill="#C2C2C2"/>
</g>
</g>
</svg>
