<svg width="47" height="47" viewBox="0 0 47 47" fill="none" xmlns="http://www.w3.org/2000/svg">
<g id="Group">
<path id="Vector" d="M31.5781 13.9534H33.0468V15.4222C33.0468 15.8277 33.3756 16.1565 33.7812 16.1565C34.1867 16.1565 34.5156 15.8277 34.5156 15.4222V13.9534H35.9843C37.199 13.9534 38.1874 12.9651 38.1874 11.7504V10.2816H41.1248C41.5304 10.2816 41.8592 9.95283 41.8592 9.54728C41.8592 9.14173 41.5304 8.81292 41.1248 8.81292H38.1874V5.87547C38.1874 5.46992 37.8585 5.14111 37.453 5.14111C37.0474 5.14111 36.7186 5.46992 36.7186 5.87547V8.81292H35.2499C34.0352 8.81292 33.0468 9.80128 33.0468 11.016V12.4847H31.5781C31.1726 12.4847 30.8438 12.8135 30.8438 13.2191C30.8438 13.6246 31.1726 13.9534 31.5781 13.9534ZM34.5156 11.016C34.5156 10.6111 34.845 10.2816 35.2499 10.2816H36.7186V11.7504C36.7186 12.1553 36.3892 12.4847 35.9843 12.4847H34.5156V11.016Z" fill="#C2C2C2"/>
<path id="Vector_2" d="M16.6976 35.2759C12.7873 36.3418 10.6565 34.2188 11.7243 30.3026C11.8199 29.9523 11.645 29.5848 11.313 29.4378C10.9809 29.291 10.5913 29.4089 10.3964 29.7151L6.37099 36.0407C5.52813 37.365 5.71484 39.0653 6.82474 40.1753C7.92922 41.2796 9.62853 41.4761 10.9594 40.6291L17.285 36.6037C17.5914 36.4088 17.7092 36.0192 17.5623 35.6871C17.4155 35.3552 17.0483 35.18 16.6976 35.2759ZM10.1709 39.3901C9.43172 39.8604 8.48283 39.7563 7.8634 39.1368C7.24387 38.5173 7.13969 37.5684 7.61004 36.8292L10.0372 33.0151C10.3293 35.1912 11.8045 36.6703 13.9848 36.963L10.1709 39.3901Z" fill="#C2C2C2"/>
<path id="Vector_3" d="M46.3426 40.7771L41.9449 36.3793C40.9511 35.3857 39.6298 34.8384 38.2245 34.8384H35.8768L31.7716 30.7331C39.4018 22.9088 44.6464 13.1462 46.9534 2.45049C47.2633 1.01352 45.9847 -0.262428 44.5497 0.0470138C33.854 2.35392 24.0915 7.59854 16.2673 15.2288L12.162 11.1236V8.7759C12.162 7.37052 11.6147 6.04931 10.6211 5.05545L6.22334 0.65791C5.34679 -0.218825 3.92755 -0.2191 3.05063 0.657818L0.65762 3.05073C-0.219115 3.92747 -0.219299 5.34662 0.65762 6.22345L5.05534 10.6212C6.04911 11.6149 7.37041 12.1621 8.7757 12.1621H11.1234L15.2286 16.2674C7.59834 24.0918 2.35372 33.8544 0.0468155 44.55C-0.263177 45.9873 1.01571 47.2627 2.45047 46.9535C13.1462 44.6466 22.9087 39.402 30.7329 31.7717L34.8382 35.8769V38.2246C34.8382 39.63 35.3855 40.9512 36.3791 41.9451L40.7769 46.3426C41.6534 47.2193 43.0727 47.2196 43.9496 46.3427L46.3424 43.9498C47.2192 43.0732 47.2195 41.654 46.3426 40.7771ZM44.8594 1.48269C45.2577 1.39704 45.6016 1.75174 45.5176 2.14086C46.4738 2.34722 46.4756 2.34758 45.5175 2.14095C45.1797 3.70725 44.7754 5.2484 44.3114 6.7632C43.586 4.89967 42.1005 3.41424 40.237 2.68879C41.7519 2.22494 43.2931 1.82059 44.8594 1.48269ZM37.4203 3.63354C37.494 3.65842 37.5728 3.67246 37.6549 3.67246C40.7829 3.67246 43.3278 6.21739 43.3278 9.3454C43.3278 9.42756 43.3419 9.50622 43.3668 9.57994C40.5946 17.1756 36.2481 24.0068 30.7191 29.6805L28.6817 27.6431C30.4471 25.7357 31.7183 23.5739 32.2865 21.4904C33.6435 16.5148 30.5629 13.3356 25.51 14.7138C23.4264 15.282 21.2646 16.5532 19.3572 18.3186L17.3198 16.2813C22.9935 10.7522 29.8246 6.40575 37.4203 3.63354ZM16.9392 23.853L23.1474 30.0612C20.5462 31.3729 18.0455 31.547 16.7496 30.2508C15.4537 28.955 15.6277 26.4542 16.9392 23.853ZM24.4651 29.3015L17.6988 22.5353C18.1699 21.8076 18.7254 21.0872 19.3583 20.3971C20.1754 21.2141 25.7422 26.7811 26.6032 27.6421C25.9131 28.2749 25.1927 28.8305 24.4651 29.3015ZM20.396 19.3577C22.8227 17.1323 25.6297 15.8619 27.77 15.8619C32.5207 15.8619 32.0239 21.8249 27.6418 26.6035C26.7822 25.7439 21.2659 20.2274 20.396 19.3577ZM8.7757 10.6935C7.76265 10.6935 6.81019 10.299 6.09382 9.5826L1.6961 5.18488C1.39336 4.88214 1.39336 4.39204 1.6961 4.0893C1.70528 4.0893 1.56336 4.22213 4.08911 1.6963C4.39185 1.39356 4.88194 1.39346 5.18468 1.69639L9.5824 6.09392C10.2988 6.81039 10.6933 7.76285 10.6933 8.7759V9.65484L7.86345 6.82498C7.57659 6.53831 7.11173 6.53831 6.82487 6.82498C6.53811 7.11184 6.53811 7.57669 6.82487 7.86355L9.65474 10.6934H8.7757V10.6935ZM2.14066 45.5178C1.74888 45.6024 1.3974 45.2545 1.48258 44.8596C1.82039 43.2933 2.22475 41.7521 2.68868 40.2373C3.41414 42.1008 4.89956 43.5863 6.7631 44.3117C5.2482 44.7757 3.70705 45.18 2.14066 45.5178ZM9.57983 43.367C9.50612 43.3421 9.42736 43.328 9.3452 43.328C6.21719 43.328 3.67226 40.7831 3.67226 37.6551C3.67226 37.5729 3.65822 37.4943 3.63334 37.4206C6.40556 29.8249 10.752 22.9937 16.2811 17.32L18.3184 19.3574C16.553 21.2648 15.2818 23.4266 14.7136 25.5102C13.4971 29.9708 15.8349 32.6117 19.2325 32.6117C22.238 32.6117 25.4122 30.7464 27.6429 28.6819L29.6803 30.7193C24.0066 36.2483 17.1755 40.5948 9.57983 43.367ZM45.3039 42.9112C42.9406 45.2746 42.9016 45.3042 42.911 45.3042C42.6083 45.6069 42.1182 45.607 41.8154 45.3041L37.4177 40.9066C36.7013 40.1901 36.3068 39.2377 36.3068 38.2246V37.3457L39.1367 40.1755C39.4236 40.4623 39.8884 40.4622 40.1752 40.1755C40.462 39.8887 40.462 39.4238 40.1752 39.137L37.3454 36.3071H38.2243C39.2374 36.3071 40.1898 36.7016 40.9062 37.418L45.3039 41.8157C45.6068 42.1184 45.6068 42.6085 45.3039 42.9112Z" fill="#C2C2C2"/>
</g>
</svg>
