<svg width="49" height="48" viewBox="0 0 49 48" fill="none" xmlns="http://www.w3.org/2000/svg">
<g id="flamingo 2" clip-path="url(#clip0_2517_20388)">
<path id="Vector" d="M6.09988 7.98755C4.77531 7.98755 3.70166 9.06152 3.70166 10.3861C3.70166 11.7106 4.77531 12.7843 6.09988 12.7843C7.42445 12.7843 8.4981 11.7106 8.4981 10.3861C8.4981 9.06152 7.42445 7.98755 6.09988 7.98755ZM6.09988 11.1853C5.65836 11.1853 5.30037 10.8276 5.30037 10.3861C5.30037 9.94456 5.65836 9.58657 6.09988 9.58657C6.5414 9.58657 6.8994 9.94456 6.8994 10.3861C6.8994 10.8276 6.5414 11.1853 6.09988 11.1853Z" fill="#C2C2C2"/>
<path id="Vector_2" d="M40.4754 31.9711H12.6491L22.0024 19.8142C23.6098 17.7159 24.4828 15.1471 24.4867 12.5034V12.2428C24.4867 6.39692 20.6168 1.39568 15.2853 0.351379C9.82872 -0.715823 5.44767 0.883851 2.26284 5.11041C1.06631 6.60333 0.442563 8.47456 0.504163 10.3868V19.9796C0.508033 23.0687 3.01107 25.5717 6.10012 25.5756H7.48242L4.25663 29.7686C1.62329 33.1879 0.504163 36.2376 0.504163 39.9653C0.509001 44.3785 4.08537 47.9546 8.49834 47.9594H40.4754C44.8903 47.9594 48.4696 44.3805 48.4696 39.9653C48.4696 35.5503 44.8906 31.9711 40.4754 31.9711ZM6.23364 19.2875L2.10287 16.8084V14.295C3.15266 15.3745 4.59462 15.983 6.10012 15.9827V17.8559C6.10077 18.3361 6.14527 18.8154 6.23364 19.2875ZM2.10287 19.9796V18.6735L7.08992 21.6658C7.44372 22.3059 7.88524 22.8939 8.40159 23.4118C8.53092 23.5409 8.53124 23.7505 8.40223 23.8798C8.33999 23.9421 8.25549 23.9772 8.16744 23.9769H6.10012C3.8938 23.9743 2.10577 22.1863 2.10287 19.9796ZM9.532 22.2814C8.36289 21.1046 7.70431 19.5146 7.69883 17.8556V15.747C10.6556 14.8704 12.3424 11.7629 11.4661 8.80643C11.4084 8.61131 11.3397 8.41974 11.2613 8.23236C11.846 8.03756 12.4685 7.98305 13.0784 8.07239C15.0815 8.41651 16.5325 10.1729 16.4925 12.2054V12.5018C16.4919 13.3849 16.2003 14.2427 15.6627 14.9432L9.77744 22.5891C9.70648 22.4782 9.62424 22.375 9.532 22.2814ZM5.52443 30.7433L16.9299 15.9163C17.6813 14.9365 18.0896 13.7367 18.0916 12.5018V12.2054C18.1299 9.37728 16.0945 6.94617 13.3038 6.48626C12.0854 6.31081 10.8433 6.54496 9.7726 7.15225C9.38816 7.36898 9.25174 7.85663 9.46847 8.24106C9.47427 8.25138 9.4804 8.26138 9.48653 8.27138C10.6595 10.1416 10.0941 12.6086 8.22388 13.7812C6.35362 14.9542 3.8867 14.3888 2.71371 12.5186C2.31315 11.8797 2.10158 11.1408 2.10287 10.3868C2.04546 8.82127 2.55665 7.28771 3.54193 6.06989C6.36652 2.32291 10.1132 0.968673 14.9786 1.91912C19.5616 2.81765 22.888 7.1587 22.888 12.2428V12.5034C22.8835 14.7952 22.1249 17.0219 20.7297 18.8399L10.6321 31.9711H8.49834C6.7545 31.9717 5.05937 32.5461 3.67481 33.6059C4.20728 32.6 4.82619 31.6421 5.52443 30.7433ZM40.4754 46.3607H8.49834C4.96648 46.3607 2.10287 43.4974 2.10287 39.9653C2.10287 36.4334 4.96648 33.5698 8.49834 33.5698H40.4754C44.0076 33.5698 46.8709 36.4334 46.8709 39.9653C46.8709 43.4974 44.0076 46.3607 40.4754 46.3607Z" fill="#C2C2C2"/>
<path id="Vector_3" d="M38.0773 35.9676H21.2894V37.5663H37.141C36.8011 38.5239 35.8954 39.1641 34.8795 39.165H31.6818V40.7641H33.9329C33.5953 41.7187 32.6945 42.3586 31.6818 42.3628H18.8908C16.6845 42.3602 14.8965 40.5722 14.8939 38.3658V35.9673H13.2952V38.3658C13.299 41.4546 15.8021 43.9576 18.8911 43.9618H31.6818C33.6069 43.9583 35.2559 42.5834 35.6055 40.6905C37.4984 40.3409 38.8732 38.6919 38.8768 36.7668C38.8765 36.3253 38.5188 35.9676 38.0773 35.9676Z" fill="#C2C2C2"/>
</g>
<defs>
<clipPath id="clip0_2517_20388">
<rect width="48" height="48" fill="white" transform="translate(0.5)"/>
</clipPath>
</defs>
</svg>
