<svg width="47" height="43" viewBox="0 0 47 43" fill="none" xmlns="http://www.w3.org/2000/svg">
<path id="Vector" d="M13.8373 40.6132C13.1837 40 12.3698 39.2366 10.8285 39.2366C9.28725 39.2366 8.47339 40 7.81975 40.6132C7.22482 41.1721 6.75363 41.6134 5.76168 41.6134C4.76973 41.6134 4.29934 41.1717 3.70362 40.6132C3.04998 40 2.23612 39.2366 0.695244 39.2366C0.51116 39.2366 0.334617 39.3096 0.20445 39.4396C0.0742833 39.5696 0.00115643 39.746 0.00115643 39.9298C0.00115643 40.1137 0.0742833 40.29 0.20445 40.42C0.334617 40.55 0.51116 40.6231 0.695244 40.6231C1.6868 40.6231 2.15759 41.0644 2.75331 41.6233C3.40694 42.2366 4.22081 42.9999 5.76208 42.9999C7.30335 42.9999 8.11722 42.237 8.77085 41.6237C9.36578 41.0648 9.83737 40.6231 10.8293 40.6231C11.8213 40.6231 12.2921 41.0648 12.8878 41.6233C13.3879 42.1502 14.0023 42.5557 14.6837 42.8086C14.7321 42.8316 14.7831 42.8489 14.8356 42.8601C15.1813 42.955 15.5384 43.0021 15.8969 42.9999C17.4382 42.9999 18.2517 42.2366 18.9049 41.6233C19.4999 41.0644 19.971 40.6231 20.9626 40.6231C21.9542 40.6231 22.4253 41.0644 23.0207 41.6233C23.6743 42.2366 24.4882 42.9999 26.0294 42.9999C27.5707 42.9999 28.385 42.237 29.0386 41.6237C29.6335 41.0648 30.1055 40.6231 31.0979 40.6231C32.0902 40.6231 32.5606 41.0644 33.1559 41.6233C33.8096 42.2366 34.6234 42.9999 36.1647 42.9999C37.706 42.9999 38.521 42.237 39.1751 41.6237C39.77 41.0648 40.2424 40.6231 41.2355 40.6231C42.2286 40.6231 42.6994 41.0648 43.2956 41.6237C43.9496 42.237 44.7631 42.9999 46.3059 42.9999C46.49 42.9999 46.6665 42.9269 46.7967 42.7969C46.9269 42.6669 47 42.4905 47 42.3067C47 42.1228 46.9269 41.9465 46.7967 41.8165C46.6665 41.6865 46.49 41.6134 46.3059 41.6134C45.3144 41.6134 44.842 41.1717 44.2455 40.6128C43.5914 39.9996 42.778 39.2366 41.2351 39.2366C39.6922 39.2366 38.8788 39.9996 38.2248 40.6128C37.6298 41.1717 37.1574 41.6134 36.1647 41.6134C35.172 41.6134 34.702 41.1717 34.1062 40.6128C33.4526 39.9996 32.6387 39.2366 31.0975 39.2366C29.5562 39.2366 28.7419 39.9996 28.0879 40.6128C27.493 41.1717 27.021 41.6134 26.0286 41.6134C25.0363 41.6134 24.5659 41.1717 23.9702 40.6128C23.5908 40.2296 23.1588 39.9022 22.6871 39.6407V38.4522L28.3136 39.8573C28.4921 39.9019 28.6811 39.8738 28.8389 39.7793C28.9968 39.6847 29.1105 39.5314 29.1552 39.3531L29.9247 36.279C29.9467 36.1907 29.9512 36.0989 29.9378 36.0088C29.9243 35.9187 29.8933 35.8322 29.8463 35.7542C29.7994 35.6761 29.7376 35.608 29.6643 35.5539C29.591 35.4997 29.5078 35.4604 29.4194 35.4384L22.6871 33.758V22.6925L25.6292 21.9573L25.7574 21.924C26.5585 21.694 27.3004 21.2938 27.9322 20.7508C28.5641 20.2078 29.071 19.5348 29.4182 18.7779C29.7696 18.0069 29.9494 17.1689 29.9453 16.3218C29.9586 15.0149 29.5273 13.7421 28.7221 12.7119C27.9168 11.6816 26.7853 10.9549 25.5126 10.6507L22.6871 9.94592V1.38649H24.9875C25.1716 1.38649 25.3481 1.31346 25.4783 1.18345C25.6085 1.05344 25.6816 0.877107 25.6816 0.693247C25.6816 0.509386 25.6085 0.333056 25.4783 0.203047C25.3481 0.0730384 25.1716 0 24.9875 0H0.694451C0.510367 0 0.333823 0.0730384 0.203657 0.203047C0.0734902 0.333056 0.000363249 0.509386 0.000363249 0.693247C0.000363249 0.877107 0.0734902 1.05344 0.203657 1.18345C0.333823 1.31346 0.510367 1.38649 0.694451 1.38649H14.2787V12.6765H11.2049V7.70178C11.2049 7.51791 11.1318 7.34159 11.0016 7.21158C10.8715 7.08157 10.6949 7.00853 10.5108 7.00853H0.694451C0.510367 7.00853 0.333823 7.08157 0.203657 7.21158C0.0734902 7.34159 0.000363249 7.51791 0.000363249 7.70178V13.3698C0.000363249 13.5536 0.0734902 13.73 0.203657 13.86C0.333823 13.99 0.510367 14.063 0.694451 14.063H14.2787V20.0974L4.43142 22.5535L4.18631 22.6201C3.38547 22.8514 2.64401 23.2525 2.01252 23.796C1.38102 24.3396 0.874352 25.0128 0.527076 25.7698C0.1759 26.5406 -0.00379772 27.3782 0.000363249 28.2251C-0.0143181 29.5321 0.416421 30.8052 1.22185 31.8354C2.02727 32.8656 3.1595 33.5916 4.43261 33.8942L14.2787 36.3539V41.0117C14.1328 40.8897 13.9888 40.7558 13.8373 40.6132ZM4.66066 8.39502H6.54462V12.6765H4.66066V8.39502ZM3.27249 12.6765H1.38854V8.39502H3.27249V12.6765ZM7.93279 8.39502H9.81674V12.6765H7.93279V8.39502ZM28.4096 36.6141L27.9768 38.3429L22.6871 37.0222V35.1868L28.4096 36.6141ZM22.6871 14.6438L24.4069 15.0732C24.6808 15.1413 24.9247 15.2974 25.1012 15.5174C25.2777 15.7374 25.377 16.0092 25.3838 16.2911C25.3906 16.5729 25.3045 16.8492 25.1389 17.0775C24.9732 17.3058 24.7371 17.4734 24.4667 17.5546L22.6871 17.9991V14.6438ZM15.6669 1.38649H21.2989V18.3453L15.6669 19.7508V1.38649ZM4.76934 32.5493C3.79822 32.3186 2.93454 31.7648 2.32017 30.979C1.7058 30.1932 1.37727 29.222 1.38854 28.2251C1.38486 27.5763 1.52222 26.9344 1.79111 26.3438C2.05214 25.7666 2.4364 25.2534 2.91696 24.8403C3.39752 24.4271 3.96274 24.1239 4.57301 23.9519L24.8225 18.8951C25.3902 18.7348 25.889 18.3916 26.2413 17.919C26.5936 17.4463 26.7797 16.8706 26.7707 16.2815C26.7616 15.6923 26.5579 15.1226 26.1913 14.6609C25.8246 14.1993 25.3156 13.8715 24.7432 13.7287L22.6867 13.2137V11.3748L25.1747 11.9952C26.1459 12.2272 27.0094 12.7817 27.6238 13.5679C28.2383 14.3541 28.5674 15.3253 28.5571 16.3226C28.5607 16.971 28.4235 17.6124 28.1549 18.2027C27.8924 18.7752 27.5094 19.2846 27.0321 19.696C26.5548 20.1075 25.9944 20.4114 25.3889 20.5871L21.8645 21.4681C21.851 21.4705 21.8379 21.4748 21.8249 21.478L14.8443 23.221C14.8316 23.2234 14.8197 23.2273 14.8074 23.2301L5.20324 25.6307C4.62319 25.7746 4.10805 26.1083 3.73987 26.5785C3.37169 27.0487 3.17167 27.6285 3.17167 28.2255C3.17167 28.8224 3.37169 29.4022 3.73987 29.8724C4.10805 30.3426 4.62319 30.6763 5.20324 30.8202L14.2787 33.0857V34.9246L4.76934 32.5493ZM14.2787 31.6564L5.53918 29.4753C5.26109 29.4051 5.0144 29.2443 4.83817 29.0182C4.66193 28.7922 4.56624 28.5139 4.56624 28.2274C4.56624 27.941 4.66193 27.6627 4.83817 27.4366C5.0144 27.2106 5.26109 27.0498 5.53918 26.9796L14.2787 24.7937V31.6564ZM15.6669 35.8123V24.4467L21.2989 23.0392V39.258C21.1879 39.2493 21.0808 39.237 20.9614 39.237C19.4201 39.237 18.6067 40.0004 17.9534 40.6136C17.3585 41.1725 16.8873 41.6138 15.8958 41.6138C15.8145 41.6138 15.7415 41.6063 15.6669 41.6008V35.8123Z" fill="#C2C2C2"/>
</svg>
