<svg width="51" height="46" viewBox="0 0 51 46" fill="none" xmlns="http://www.w3.org/2000/svg">
<g id="Group">
<path id="Vector" d="M36.0867 38.3333C43.7051 38.3333 50.1417 31.3117 50.1417 23C50.1417 14.6883 43.7051 7.6667 36.0867 7.6667H24.4733V4.38099H29.6778C29.8205 5.382 30.2785 6.57143 31.8072 6.57143H37.675C39.8743 6.57143 39.8743 4.09842 39.8743 3.28571C39.8743 2.47301 39.8743 0 37.674 0H31.8072C30.2784 0 29.8205 1.18943 29.6778 2.19044H13.1792C12.6122 2.19044 12.1524 2.68084 12.1524 3.28571C12.1524 3.89059 12.6122 4.38099 13.1792 4.38099H22.4198V7.6667H14.9134C7.29497 7.6667 0.858398 14.6883 0.858398 23C0.858398 31.3117 7.29497 38.3333 14.9134 38.3333H22.4198V41.619H13.1792C12.6122 41.619 12.1524 42.1094 12.1524 42.7143C12.1524 43.3192 12.6122 43.8096 13.1792 43.8096H29.6779C29.8206 44.8106 30.2785 46 31.8073 46H37.6751C39.8744 46 39.8744 43.527 39.8744 42.7143C39.8744 41.9016 39.8744 39.4286 37.6741 39.4286H31.8073C30.2785 39.4286 29.8206 40.618 29.6779 41.619H24.4734V38.3333H36.0867ZM31.8072 2.19044L37.6946 2.14557C37.7243 2.19044 37.8209 2.40956 37.8209 3.28571C37.8209 4.16187 37.7243 4.38099 37.6741 4.38099L31.7867 4.42586C31.757 4.38099 31.6604 4.16187 31.6604 3.28571C31.6604 2.40956 31.757 2.19044 31.8072 2.19044ZM31.8072 41.619L37.6946 41.5741C37.7243 41.619 37.8209 41.8381 37.8209 42.7143C37.8209 43.5904 37.7243 43.8096 37.6741 43.8096L31.7867 43.8544C31.757 43.8096 31.6604 43.5904 31.6604 42.7143C31.6604 41.8381 31.757 41.619 31.8072 41.619ZM36.0867 36.1429H32.6142C32.4861 34.32 32.4861 32.4896 32.6142 30.6667H35.6647C36.0528 30.6641 36.4402 30.6316 36.8239 30.5693C36.8443 30.6073 36.867 30.6438 36.8917 30.6788C38.3381 32.2675 40.0768 33.52 41.9987 34.3577C40.2163 35.5136 38.1727 36.1307 36.0867 36.1429ZM17.2862 28.4762V17.5238H33.714V28.4763H17.2862V28.4762ZM35.7674 28.4663V17.5337C38.6998 17.5863 40.9011 19.9136 40.9011 23C40.9011 26.0864 38.6998 28.4137 35.7674 28.4663ZM48.0882 23C48.0882 26.8476 46.4762 30.3622 43.9813 32.7914C42.1643 32.1961 40.4902 31.1871 39.0745 29.8343C41.4144 28.5857 42.9545 26.0601 42.9545 23C42.9545 19.8676 41.3405 17.2949 38.8999 16.0836C40.3358 14.7076 42.0469 13.6988 43.9032 13.1341C46.4454 15.5656 48.0882 19.1141 48.0882 23ZM32.6153 9.85714H36.0836C38.1198 9.86484 40.1176 10.4495 41.8724 11.5514C39.8669 12.4008 38.0625 13.7132 36.5888 15.3946C36.2821 15.3554 35.9736 15.3348 35.6647 15.3333H32.6153C32.4872 13.5105 32.4872 11.68 32.6153 9.85714ZM20.4423 9.85714H30.5608C30.4383 11.6802 30.4383 13.5102 30.5608 15.3333H20.4423C20.5649 13.5102 20.5649 11.6802 20.4423 9.85714ZM14.9134 9.85714H18.3817C18.5098 11.68 18.5098 13.5105 18.3817 15.3333H15.3354C15.0265 15.3348 14.718 15.3554 14.4113 15.3946C12.9379 13.7133 11.1339 12.4009 9.12875 11.5514C10.8822 10.4503 12.8785 9.86556 14.9134 9.85714ZM15.2327 17.5337V28.4664C12.3003 28.4137 10.099 26.0864 10.099 23C10.099 19.9136 12.3003 17.5863 15.2327 17.5337ZM2.91184 23C2.91184 19.1141 4.55464 15.5656 7.09678 13.1352C8.95298 13.6999 10.6641 14.7086 12.1001 16.0846C9.6596 17.2949 8.04557 19.8676 8.04557 23C8.04557 26.0601 9.58568 28.5857 11.9297 29.8321C10.5129 31.1863 8.83738 32.196 7.01881 32.7914C4.52384 30.3622 2.91184 26.8476 2.91184 23ZM18.3858 36.1429H14.9155C12.8277 36.133 10.7819 35.5169 8.99736 34.3609C10.9188 33.5231 12.6572 32.2705 14.1033 30.682C14.128 30.6471 14.1506 30.6104 14.171 30.5724C14.5565 30.6339 14.9456 30.6655 15.3354 30.6666H18.3858C18.5139 32.4896 18.5139 34.32 18.3858 36.1429ZM20.4423 36.1429C20.5649 34.3198 20.5649 32.4898 20.4423 30.6667H30.5608C30.4383 32.4898 30.4383 34.3198 30.5608 36.1429H20.4423Z" fill="#C2C2C2"/>
</g>
</svg>
