<svg width="32" height="32" viewBox="0 0 32 32" fill="none" xmlns="http://www.w3.org/2000/svg">
<g id="Group">
<g id="Group_2">
<g id="Group_3">
<path id="Vector" d="M23.3333 7.40564C23.9098 7.40564 24.3777 7.87355 24.3777 8.45008C24.3777 9.02662 23.9098 9.49453 23.3333 9.49453C22.7567 9.49453 22.2888 9.02662 22.2888 8.45008C22.2888 7.87355 22.7567 7.40564 23.3333 7.40564Z" fill="#C2C2C2"/>
</g>
</g>
<g id="Group_4">
<g id="Group_5">
<path id="Vector_2" d="M16.0221 1.13892C24.0978 1.13892 30.6443 7.68549 30.6443 15.7611C30.6443 23.8368 24.0978 30.3834 16.0221 30.3834C7.94648 30.3834 1.3999 23.8368 1.3999 15.7611C1.3999 7.68549 7.94648 1.13892 16.0221 1.13892Z" stroke="#C2C2C2" stroke-width="2"/>
</g>
<g id="Group_6">
<g id="Group_7">
<path id="Vector_3" d="M21.1283 16.8055C20.7126 18.8453 19.1104 20.4569 17.0664 20.8726V22.9907C17.1594 22.9772 17.2523 22.9688 17.3442 22.9521C20.3522 22.4027 22.7179 20.0078 23.2297 16.9925C23.2401 16.9309 23.237 16.8672 23.2453 16.8055H21.1283Z" fill="#C2C2C2"/>
</g>
<g id="Group_8">
<path id="Vector_4" d="M23.2328 14.5402C22.7148 11.4632 20.2979 9.05473 17.2199 8.54713C17.1698 8.53878 17.1165 8.54296 17.0664 8.53564V10.6548C19.1146 11.0705 20.7136 12.6675 21.1293 14.7167H23.2474C23.2391 14.6582 23.2422 14.5976 23.2328 14.5402Z" fill="#C2C2C2"/>
</g>
<g id="Group_9">
<path id="Vector_5" d="M14.9776 20.8674C12.9316 20.4507 11.3304 18.8547 10.9147 16.8055H8.80078C8.81018 16.8734 8.80705 16.9434 8.81854 17.0113C9.34598 20.0694 11.7566 22.4654 14.8168 22.973C14.869 22.9813 14.9244 22.9793 14.9776 22.9866V20.8674Z" fill="#C2C2C2"/>
</g>
<g id="Group_10">
<path id="Vector_6" d="M10.9178 14.7166C11.3335 12.6747 12.9263 11.0663 14.9776 10.6495V8.54395C14.8815 8.55752 14.7802 8.55439 14.6851 8.57215C11.6374 9.13615 9.27177 11.5718 8.79655 14.6362C8.79237 14.6623 8.79446 14.6895 8.79028 14.7166H10.9178Z" fill="#C2C2C2"/>
</g>
</g>
<g id="Group_11">
<path id="Vector_7" d="M16.0222 13.6722C17.1763 13.6722 18.1111 14.607 18.1111 15.7611C18.1111 16.9152 17.1763 17.85 16.0222 17.85C14.8681 17.85 13.9333 16.9152 13.9333 15.7611C13.9333 14.607 14.8681 13.6722 16.0222 13.6722Z" stroke="#C2C2C2" stroke-width="2"/>
</g>
</g>
</g>
</svg>
