<svg width="48" height="48" viewBox="0 0 48 48" fill="none" xmlns="http://www.w3.org/2000/svg">
<g id="Frame 17330">
<g id="Group">
<path id="Vector" d="M34.5452 7.11088H13.0322L13.162 6.49437C13.5189 4.67729 15.336 3.34692 17.4451 3.34692H30.1323C32.2414 3.34692 34.0585 4.67729 34.4154 6.49437L34.5452 7.11088Z" fill="#C2C2C2"/>
<g id="Group_2">
<path id="Vector_2" d="M9.72311 38.2609L16.3749 41.1163L9.39863 39.1045C9.13905 39.0396 9.00926 38.78 9.07415 38.5205C9.13905 38.2609 9.39863 38.1311 9.65822 38.196C9.65822 38.2284 9.69067 38.2284 9.72311 38.2609Z" fill="#C2C2C2"/>
</g>
<g id="Group_3">
<path id="Vector_3" d="M38.699 39.1044L31.7227 41.0837L38.3745 38.2283C38.6016 38.1309 38.8936 38.2283 38.991 38.4554C39.0883 38.6825 38.991 38.9746 38.7639 39.0719C38.7314 39.1044 38.7314 39.1044 38.699 39.1044Z" fill="#C2C2C2"/>
</g>
<g id="Group_4">
<path id="Vector_4" d="M20.8909 44.2313C20.0264 44.2313 19.1619 43.9393 18.4415 43.4201L10.7764 35.0485L24.003 30.4734L37.2585 35.0485L29.5934 43.3877C28.873 43.9393 28.0373 44.1989 27.144 44.1989H20.8909V44.2313Z" fill="#C2C2C2"/>
<path id="Vector_5" d="M24.0032 30.96L27.0001 31.9983L28.4409 32.4851L29.3054 32.7771L36.4807 35.2431L33.8872 38.0661L29.3342 42.9982C28.7003 43.4849 27.9223 43.712 27.1442 43.712H20.8911C20.113 43.712 19.3638 43.4525 18.701 42.9982L14.1481 38.0661L11.5546 35.2431L23.8015 31.0249L24.0032 30.96ZM24.0032 29.9866L23.571 30.1488L9.96973 34.8213L13.5718 38.7475L18.1824 43.7445C18.9892 44.361 19.9113 44.653 20.8911 44.653H27.173C28.124 44.653 29.0749 44.3285 29.8818 43.7445L34.4924 38.7475L38.0944 34.8213L29.5936 31.901L28.7291 31.609L27.2883 31.1222L24.0032 29.9866Z" fill="#C2C2C2"/>
</g>
<g id="Group_5">
<g id="Group_6">
<path id="Vector_6" d="M38.0825 38.7475C38.0176 38.7475 37.9527 38.7475 37.8878 38.7151C37.8878 38.7151 37.2388 38.5529 36.2005 38.2933C34.2536 37.8066 30.9764 36.9629 28.3481 36.314L24.8762 35.4379C24.5842 35.373 24.3246 35.3405 24.0326 35.3405C23.8379 35.3405 23.6107 35.373 23.416 35.4054C23.3511 35.4054 23.2538 35.4379 23.1889 35.4379L22.9618 35.5028C22.8644 35.5352 22.7671 35.5676 22.6373 35.5676L20.2686 36.1842L11.8321 38.3257C10.7938 38.5853 10.1448 38.7475 10.1448 38.7475C10.08 38.7475 10.0151 38.78 9.95016 38.78C9.62568 38.78 9.33365 38.5853 9.20386 38.2933L3.46058 24.2109C3.23345 23.6593 3.26589 23.0428 3.55792 22.5236C3.84996 22.0044 4.33667 21.615 4.95318 21.5177C8.29532 20.8687 14.2657 20.09 23.7081 19.9602H24.0326C33.6371 20.0575 39.7373 20.8687 43.1444 21.5177C43.7284 21.615 44.2151 22.0044 44.5072 22.5236C44.7992 23.0428 44.8317 23.6593 44.6045 24.2433L38.8288 38.2608C38.699 38.5529 38.407 38.7475 38.0825 38.7475Z" fill="#C2C2C2"/>
<path id="Vector_7" d="M24.0001 20.3819C33.5722 20.4793 39.64 21.2905 43.0146 21.9394C43.4689 22.0368 43.8582 22.2964 44.0529 22.7182C44.2801 23.14 44.3125 23.5943 44.1178 24.0485L38.3745 38.0985C38.3096 38.2283 38.2123 38.2932 38.0501 38.2932C38.0176 38.2932 37.9852 38.2932 37.9527 38.2932C37.9527 38.2932 37.3038 38.1309 36.2654 37.8714C34.3185 37.3846 31.1062 36.5734 28.4455 35.892L24.9735 34.9835C24.6491 34.9186 24.357 34.8537 24.0326 34.8537C23.8054 34.8537 23.5783 34.8861 23.3187 34.9186C23.2214 34.9186 23.1565 34.951 23.0591 34.9835C22.9942 35.0159 22.8969 35.0159 22.832 35.0484C22.7346 35.0808 22.6373 35.1133 22.5075 35.1133L21.599 35.3404C21.1447 35.4702 20.658 35.5676 20.1388 35.7298C17.4132 36.4112 13.8115 37.3522 11.7024 37.8714C10.664 38.1309 10.0151 38.2932 10.0151 38.2932C9.98262 38.2932 9.95017 38.2932 9.91772 38.2932C9.78793 38.2932 9.65814 38.1958 9.59324 38.0985L3.88241 24.0485C3.72017 23.6267 3.72017 23.14 3.9473 22.7506C4.17444 22.3288 4.56382 22.0692 5.01809 21.9719C8.36022 21.3229 14.2982 20.5442 23.7081 20.4144C23.773 20.4144 23.8379 20.4144 23.8703 20.4144C23.9028 20.3819 23.9677 20.3819 24.0001 20.3819ZM24.0001 19.4734C23.9028 19.4734 23.773 19.4734 23.6756 19.4734C14.2657 19.6032 8.29532 20.3819 4.85585 21.0633C3.33079 21.3554 2.4547 22.9778 3.03876 24.4055L8.78204 38.4554C8.97673 38.9421 9.431 39.2342 9.95017 39.2342C10.0475 39.2342 10.1449 39.2342 10.2746 39.2017C10.2746 39.2017 10.9236 39.0395 11.9619 38.7799C14.0386 38.2607 17.6728 37.3522 20.3984 36.6383C21.3069 36.4112 22.1506 36.1841 22.7671 36.0218C22.9618 35.9569 23.1565 35.9245 23.3187 35.892C23.3836 35.892 23.4485 35.8596 23.5134 35.8596C23.6756 35.8271 23.8703 35.8271 24.0326 35.8271C24.2921 35.8271 24.5193 35.8596 24.7464 35.9245C26.8555 36.4761 33.0531 38.0336 36.0707 38.8123C37.1091 39.0719 37.758 39.2342 37.758 39.2342C37.8554 39.2666 37.9527 39.2666 38.0825 39.2666C38.5692 39.2666 39.0559 38.9746 39.2506 38.4879L44.9939 24.4379C45.578 23.0102 44.7019 21.3878 43.2093 21.0958C39.7373 20.3819 33.6371 19.5707 24.0001 19.4734Z" fill="#01242B"/>
</g>
<g id="Group_7">
<path id="Vector_8" d="M45.3182 20.1548C45.2208 20.1548 45.1235 20.1548 45.0586 20.1224C42.917 19.5383 36.6221 18.1755 24.0323 17.9484H23.8052C11.3452 18.208 5.11521 19.5708 3.00609 20.1224C2.9412 20.1548 2.84385 20.1548 2.74651 20.1548C2.35714 20.1548 2.03266 19.9277 1.87042 19.6032L1.61083 18.9867C1.3837 18.4027 1.3837 17.7861 1.64328 17.2345C1.90287 16.6829 2.38958 16.2611 2.97365 16.0989C4.92052 15.4823 7.35411 14.9632 10.2095 14.5738C15.1416 13.8924 20.3657 13.6977 23.8701 13.6328C23.9025 13.6328 23.9674 13.6328 24.0323 13.6328C27.5692 13.6653 32.8257 13.8599 37.8551 14.5738C40.6781 14.9632 43.0793 15.4823 45.0586 16.0989C45.6426 16.2935 46.1294 16.6829 46.3889 17.2345C46.6485 17.7861 46.681 18.4351 46.4214 18.9867L46.1618 19.6032C45.9996 19.9277 45.6751 20.1548 45.3182 20.1548Z" fill="#C2C2C2"/>
<path id="Vector_9" d="M23.9998 14.0872C27.277 14.1197 32.6634 14.3144 37.7577 15.0282C40.2886 15.3851 42.7871 15.8719 44.8962 16.5208C45.3505 16.6506 45.7399 17.0075 45.967 17.4294C46.1941 17.8512 46.1942 18.3704 45.9995 18.8246L45.7399 19.4411C45.675 19.6034 45.4803 19.7332 45.2856 19.7332C45.2532 19.7332 45.1883 19.7332 45.1558 19.7332C42.9494 19.1167 36.5896 17.7538 23.9998 17.5267C23.9024 17.5267 23.8375 17.5267 23.7402 17.5267C11.3127 17.7863 5.05021 19.1167 2.84375 19.7332C2.8113 19.7332 2.74641 19.7332 2.71396 19.7332C2.51927 19.7332 2.35703 19.6358 2.25969 19.4411L2.0001 18.7922C1.80542 18.3379 1.83786 17.8512 2.03255 17.3969C2.22724 16.9751 2.61661 16.6506 3.10333 16.4884C5.21245 15.8394 7.71094 15.3527 10.2419 14.9958C15.2713 14.3144 20.5603 14.1197 23.8375 14.0872C23.9024 14.0872 23.9673 14.0872 23.9998 14.0872ZM23.9998 13.1462C23.9349 13.1462 23.87 13.1462 23.8051 13.1462C20.3007 13.1787 15.0766 13.4058 10.1121 14.0872C7.25666 14.4766 4.79062 14.9958 2.8113 15.6123C2.09745 15.8394 1.51339 16.3261 1.18891 16.9751C0.864427 17.6565 0.831979 18.4352 1.12401 19.1167L1.41604 19.7656C1.64318 20.2848 2.1299 20.6093 2.71396 20.6093C2.84375 20.6093 2.97354 20.5768 3.10333 20.5444C5.18 19.9927 11.3776 18.6299 23.7727 18.3704C23.8375 18.3704 23.87 18.3704 23.9024 18.3704C23.9349 18.3704 23.9673 18.3704 24.0322 18.3704C36.5571 18.5975 42.8196 19.9603 44.9287 20.5444C45.026 20.5768 45.1558 20.5768 45.3181 20.5768C45.8697 20.5768 46.3888 20.2523 46.616 19.7332L46.8756 19.1167C47.1676 18.4352 47.1351 17.6241 46.8107 16.9751C46.4862 16.3261 45.9021 15.807 45.1883 15.5798C43.1765 14.9633 40.7429 14.4442 37.8875 14.0548C32.8256 13.3734 27.5691 13.1787 23.9998 13.1462Z" fill="#C2C2C2"/>
</g>
</g>
<g id="Group_8">
<path id="Vector_10" d="M37.8228 12.9188C37.7904 12.9188 37.7579 12.9188 37.7255 12.9188C32.696 12.2374 27.4395 12.0427 24.1622 12.0103H24C23.9351 12.0103 23.9027 12.0103 23.8378 12.0103C20.5605 12.0427 15.304 12.2374 10.307 12.9188C10.2745 12.9188 10.2421 12.9188 10.2096 12.9188H9.75537C9.3011 12.9188 8.97662 12.497 9.07397 12.0427L9.75537 9.08994C9.82027 8.76547 10.1123 8.53833 10.4368 8.53833H37.1414C37.4659 8.53833 37.7579 8.76547 37.8228 9.08994L38.5042 12.0427C38.6016 12.497 38.2771 12.9188 37.8228 12.9188Z" fill="#C2C2C2"/>
</g>
</g>
</g>
</svg>
