<svg width="16" height="16" viewBox="0 0 16 16" fill="none" xmlns="http://www.w3.org/2000/svg">
<mask id="mask0_2517_20477" style="mask-type:luminance" maskUnits="userSpaceOnUse" x="9" y="1" width="7" height="7">
<path fill-rule="evenodd" clip-rule="evenodd" d="M9.56934 1.33301H15.262V7.02155H9.56934V1.33301Z" fill="white"/>
</mask>
<g mask="url(#mask0_2517_20477)">
<path fill-rule="evenodd" clip-rule="evenodd" d="M14.7618 7.02155C14.5105 7.02155 14.2945 6.83288 14.2658 6.57755C14.0131 4.32688 12.2651 2.58022 10.0138 2.33022C9.7398 2.29955 9.5418 2.05288 9.57247 1.77822C9.60247 1.50422 9.84713 1.30222 10.1245 1.33688C12.8431 1.63888 14.9545 3.74755 15.2591 6.46555C15.2898 6.74022 15.0925 6.98755 14.8185 7.01822C14.7998 7.02022 14.7805 7.02155 14.7618 7.02155Z" fill="#37C3DD"/>
</g>
<path fill-rule="evenodd" clip-rule="evenodd" d="M12.4015 7.02878C12.1668 7.02878 11.9581 6.86345 11.9115 6.62478C11.7195 5.63812 10.9588 4.87745 9.97347 4.68612C9.70213 4.63345 9.52547 4.37145 9.57813 4.10012C9.6308 3.82878 9.89747 3.65145 10.1641 3.70478C11.5515 3.97412 12.6228 5.04478 12.8928 6.43278C12.9455 6.70478 12.7688 6.96678 12.4981 7.01945C12.4655 7.02545 12.4335 7.02878 12.4015 7.02878Z" fill="#37C3DD"/>
<mask id="mask1_2517_20477" style="mask-type:luminance" maskUnits="userSpaceOnUse" x="1" y="1" width="15" height="14">
<path fill-rule="evenodd" clip-rule="evenodd" d="M1.3335 1.33301H15.0003V15H1.3335V1.33301Z" fill="white"/>
</mask>
<g mask="url(#mask1_2517_20477)">
<path fill-rule="evenodd" clip-rule="evenodd" d="M2.90623 3.37404C2.90756 3.37404 2.87423 3.40871 2.83223 3.45004C2.6709 3.60671 2.3369 3.93271 2.33356 4.61471C2.32823 5.56871 2.95556 7.34004 5.97623 10.36C8.98223 13.3654 10.7509 14 11.7076 14H11.7216C12.4036 13.996 12.7289 13.662 12.8856 13.5014C12.9329 13.4527 12.9716 13.416 12.9989 13.394C13.6636 12.7254 14.0036 12.2287 14.0002 11.9094C13.9962 11.584 13.5916 11.2 13.0322 10.6674C12.8542 10.4987 12.6609 10.314 12.4569 10.11C11.9276 9.58271 11.6669 9.67271 11.0902 9.87537C10.2936 10.1547 9.20223 10.5374 7.50156 8.83537C5.80023 7.13471 6.18156 6.04337 6.45956 5.24604C6.6609 4.67004 6.7529 4.40804 6.22423 3.87871C6.01756 3.67204 5.83156 3.47604 5.66023 3.29604C5.1309 2.74004 4.7489 2.33804 4.42556 2.33337H4.42023C4.1009 2.33337 3.6049 2.67471 2.9029 3.37671C2.9049 3.37471 2.90556 3.37404 2.90623 3.37404ZM11.7076 15C10.0462 15 7.88022 13.6774 5.26955 11.0674C2.64822 8.4467 1.32355 6.27403 1.33355 4.60937C1.33955 3.50937 1.91622 2.94603 2.13289 2.7347C2.14422 2.7207 2.18289 2.6827 2.19622 2.66937C3.15289 1.7127 3.81022 1.31937 4.43822 1.33337C5.18289 1.34337 5.71355 1.90137 6.38489 2.60737C6.55089 2.78137 6.73022 2.97137 6.93088 3.17137C7.90355 4.1447 7.62689 4.9387 7.40355 5.57603C7.16089 6.27137 6.95089 6.87137 8.20822 8.1287C9.46555 9.38603 10.0649 9.17603 10.7596 8.93137C11.3976 8.7087 12.1896 8.43003 13.1642 9.40337C13.3622 9.60137 13.5489 9.7787 13.7222 9.94337C14.4309 10.618 14.9909 11.1507 15.0002 11.8974C15.0076 12.5334 14.6209 13.1827 13.6662 14.1374L13.2436 13.8507L13.6016 14.1994C13.3902 14.416 12.8282 14.9934 11.7276 15H11.7076Z" fill="#37C3DD"/>
</g>
</svg>
