<svg width="49" height="48" viewBox="0 0 49 48" fill="none" xmlns="http://www.w3.org/2000/svg">
<g id="Frame 17332">
<g id="3 User">
<path id="Fill 1" d="M24.4023 23.7727C17.7784 23.7727 12.1895 24.8551 12.1895 29.0325C12.1895 33.2116 17.8145 34.2559 24.4023 34.2559C31.0263 34.2559 36.6152 33.1736 36.6152 28.9962C36.6152 24.8171 30.9902 23.7727 24.4023 23.7727Z" fill="#C2C2C2"/>
<path id="Fill 3" d="M24.4023 19.7924C28.8876 19.7924 32.4841 16.1753 32.4841 11.6642C32.4841 7.15134 28.8876 3.53589 24.4023 3.53589C19.917 3.53589 16.3206 7.15134 16.3206 11.6642C16.3206 16.1753 19.917 19.7924 24.4023 19.7924Z" fill="#C2C2C2"/>
<path id="Fill 6" d="M41.9491 13.5567C43.1095 8.99204 39.7073 4.89246 35.3751 4.89246C34.904 4.89246 34.4536 4.94433 34.0135 5.03251C33.955 5.04634 33.8897 5.07574 33.8553 5.12761C33.8158 5.19331 33.845 5.28149 33.888 5.33855C35.1894 7.1748 35.9372 9.41047 35.9372 11.8104C35.9372 14.11 35.2513 16.2541 34.0479 18.0332C33.9241 18.2165 34.0341 18.4638 34.2525 18.5018C34.555 18.5554 34.8645 18.5831 35.1808 18.5917C38.3354 18.6747 41.1669 16.6327 41.9491 13.5567Z" fill="#C2C2C2"/>
<path id="Fill 8" d="M45.2535 24.3043C44.6759 23.0663 43.2817 22.2173 41.1619 21.8006C40.1614 21.5551 37.4537 21.2093 34.9352 21.256C34.8973 21.2612 34.8767 21.2871 34.8733 21.3044C34.8681 21.3286 34.8784 21.3701 34.9283 21.396C36.0921 21.9753 40.5912 24.4945 40.0256 29.8079C40.0015 30.0378 40.1855 30.2367 40.4141 30.2021C41.5212 30.043 44.3699 29.4275 45.2535 27.51C45.7418 26.4967 45.7418 25.3193 45.2535 24.3043Z" fill="#C2C2C2"/>
<path id="Fill 11" d="M14.9862 5.03336C14.5478 4.94345 14.0957 4.89331 13.6247 4.89331C9.29239 4.89331 5.89017 8.99289 7.05232 13.5576C7.83282 16.6336 10.6643 18.6756 13.8189 18.5926C14.1353 18.5839 14.4464 18.5545 14.7473 18.5027C14.9656 18.4646 15.0756 18.2174 14.9519 18.0341C13.7484 16.2532 13.0625 14.1109 13.0625 11.8112C13.0625 9.40959 13.812 7.17393 15.1135 5.33941C15.1547 5.28235 15.1857 5.19417 15.1444 5.12846C15.11 5.07486 15.0464 5.0472 14.9862 5.03336Z" fill="#C2C2C2"/>
<path id="Fill 13" d="M7.83772 21.8001C5.71799 22.2168 4.32548 23.0657 3.74784 24.3037C3.25788 25.3187 3.25788 26.4962 3.74784 27.5111C4.63149 29.4269 7.48013 30.0442 8.58727 30.2015C8.81592 30.2361 8.99815 30.039 8.97408 29.8073C8.40847 24.4957 12.9075 21.9764 14.0731 21.3972C14.1212 21.3695 14.1315 21.3298 14.1264 21.3038C14.123 21.2865 14.104 21.2606 14.0662 21.2571C11.5459 21.2087 8.83998 21.5545 7.83772 21.8001Z" fill="#C2C2C2"/>
</g>
</g>
</svg>
