<svg width="999" height="373" viewBox="0 0 999 373" fill="none" xmlns="http://www.w3.org/2000/svg">
<g opacity="0.2" clip-path="url(#clip0_2517_18840)">
<path d="M-6 435L-6 429.98L-0.980198 429.98L-0.980198 435L-6 435Z" fill="#E5E7EB"/>
<path d="M-6 409.901L-6 404.881L-0.980199 404.881L-0.980199 409.901L-6 409.901Z" fill="#E5E7EB"/>
<path d="M-6 384.802L-6 379.782L-0.9802 379.782L-0.9802 384.802L-6 384.802Z" fill="#E5E7EB"/>
<path d="M-6 359.703L-6 354.683L-0.980201 354.683L-0.980201 359.703L-6 359.703Z" fill="#E5E7EB"/>
<path d="M-6 334.604L-6 329.584L-0.980203 329.584L-0.980202 334.604L-6 334.604Z" fill="#E5E7EB"/>
<path d="M-6.00001 309.505L-6.00001 304.485L-0.980204 304.485L-0.980203 309.505L-6.00001 309.505Z" fill="#E5E7EB"/>
<path d="M-6.00001 284.406L-6.00001 279.386L-0.980205 279.386L-0.980204 284.406L-6.00001 284.406Z" fill="#E5E7EB"/>
<path d="M-6.00001 259.307L-6.00001 254.287L-0.980206 254.287L-0.980206 259.307L-6.00001 259.307Z" fill="#E5E7EB"/>
<path d="M-6.00001 234.208L-6.00001 229.188L-0.980207 229.188L-0.980207 234.208L-6.00001 234.208Z" fill="#E5E7EB"/>
<path d="M-6.00001 209.109L-6.00001 204.089L-0.980208 204.089L-0.980208 209.109L-6.00001 209.109Z" fill="#E5E7EB"/>
<path d="M-6.00001 184.01L-6.00001 178.99L-0.980209 178.99L-0.980209 184.01L-6.00001 184.01Z" fill="#E5E7EB"/>
<path d="M-6.00001 158.911L-6.00001 153.891L-0.98021 153.891L-0.98021 158.911L-6.00001 158.911Z" fill="#E5E7EB"/>
<path d="M-6.00001 133.812L-6.00001 128.792L-0.980211 128.792L-0.980211 133.812L-6.00001 133.812Z" fill="#E5E7EB"/>
<path d="M-6.00001 108.713L-6.00001 103.693L-0.980212 103.693L-0.980212 108.713L-6.00001 108.713Z" fill="#E5E7EB"/>
<path d="M-6.00002 83.6139L-6.00002 78.5941L-0.980213 78.5941L-0.980213 83.6139L-6.00002 83.6139Z" fill="#E5E7EB"/>
<path d="M-6.00002 58.5148L-6.00002 53.4951L-0.980215 53.4951L-0.980214 58.5148L-6.00002 58.5148Z" fill="#E5E7EB"/>
<path d="M-6.00002 33.4158L-6.00002 28.396L-0.980216 28.396L-0.980215 33.4158L-6.00002 33.4158Z" fill="#E5E7EB"/>
<path d="M-6.00002 8.31683L-6.00002 3.29703L-0.980217 3.29703L-0.980217 8.31683L-6.00002 8.31683Z" fill="#E5E7EB"/>
<path d="M-6.00002 -16.7822L-6.00002 -21.802L-0.980218 -21.802L-0.980218 -16.7822L-6.00002 -16.7822Z" fill="#E5E7EB"/>
<path d="M-6.00002 -41.8812L-6.00002 -46.901L-0.980219 -46.901L-0.980219 -41.8812L-6.00002 -41.8812Z" fill="#E5E7EB"/>
<path d="M-6.00002 -66.9802L-6.00002 -72L-0.98022 -72L-0.98022 -66.9802L-6.00002 -66.9802Z" fill="#E5E7EB"/>
<path d="M19.099 435L19.099 429.98L24.1188 429.98L24.1188 435L19.099 435Z" fill="#E5E7EB"/>
<path d="M19.099 409.901L19.099 404.881L24.1188 404.881L24.1188 409.901L19.099 409.901Z" fill="#E5E7EB"/>
<path d="M19.099 384.802L19.099 379.782L24.1188 379.782L24.1188 384.802L19.099 384.802Z" fill="#E5E7EB"/>
<path d="M19.099 359.703L19.099 354.683L24.1188 354.683L24.1188 359.703L19.099 359.703Z" fill="#E5E7EB"/>
<path d="M19.099 334.604L19.099 329.584L24.1188 329.584L24.1188 334.604L19.099 334.604Z" fill="#E5E7EB"/>
<path d="M19.099 309.505L19.099 304.485L24.1188 304.485L24.1188 309.505L19.099 309.505Z" fill="#E5E7EB"/>
<path d="M19.099 284.406L19.099 279.386L24.1188 279.386L24.1188 284.406L19.099 284.406Z" fill="#E5E7EB"/>
<path d="M19.099 259.307L19.099 254.287L24.1188 254.287L24.1188 259.307L19.099 259.307Z" fill="#E5E7EB"/>
<path d="M19.099 234.208L19.099 229.188L24.1188 229.188L24.1188 234.208L19.099 234.208Z" fill="#E5E7EB"/>
<path d="M19.099 209.109L19.099 204.089L24.1188 204.089L24.1188 209.109L19.099 209.109Z" fill="#E5E7EB"/>
<path d="M19.099 184.01L19.099 178.99L24.1188 178.99L24.1188 184.01L19.099 184.01Z" fill="#E5E7EB"/>
<path d="M19.099 158.911L19.099 153.891L24.1188 153.891L24.1188 158.911L19.099 158.911Z" fill="#E5E7EB"/>
<path d="M19.099 133.812L19.099 128.792L24.1188 128.792L24.1188 133.812L19.099 133.812Z" fill="#E5E7EB"/>
<path d="M19.099 108.713L19.099 103.693L24.1188 103.693L24.1188 108.713L19.099 108.713Z" fill="#E5E7EB"/>
<path d="M19.099 83.6139L19.099 78.5941L24.1188 78.5941L24.1188 83.6139L19.099 83.6139Z" fill="#E5E7EB"/>
<path d="M19.099 58.5148L19.099 53.4951L24.1188 53.4951L24.1188 58.5148L19.099 58.5148Z" fill="#E5E7EB"/>
<path d="M19.099 33.4158L19.099 28.396L24.1188 28.396L24.1188 33.4158L19.099 33.4158Z" fill="#E5E7EB"/>
<path d="M19.099 8.31683L19.099 3.29703L24.1188 3.29703L24.1188 8.31683L19.099 8.31683Z" fill="#E5E7EB"/>
<path d="M19.099 -16.7822L19.099 -21.802L24.1188 -21.802L24.1188 -16.7822L19.099 -16.7822Z" fill="#E5E7EB"/>
<path d="M19.099 -41.8812L19.099 -46.901L24.1188 -46.901L24.1188 -41.8812L19.099 -41.8812Z" fill="#E5E7EB"/>
<path d="M19.099 -66.9802L19.099 -72L24.1188 -72L24.1188 -66.9802L19.099 -66.9802Z" fill="#E5E7EB"/>
<path d="M44.198 435L44.198 429.98L49.2178 429.98L49.2178 435L44.198 435Z" fill="#E5E7EB"/>
<path d="M44.198 409.901L44.198 404.881L49.2178 404.881L49.2178 409.901L44.198 409.901Z" fill="#E5E7EB"/>
<path d="M44.198 384.802L44.198 379.782L49.2178 379.782L49.2178 384.802L44.198 384.802Z" fill="#E5E7EB"/>
<path d="M44.198 359.703L44.198 354.683L49.2178 354.683L49.2178 359.703L44.198 359.703Z" fill="#E5E7EB"/>
<path d="M44.198 334.604L44.198 329.584L49.2178 329.584L49.2178 334.604L44.198 334.604Z" fill="#E5E7EB"/>
<path d="M44.198 309.505L44.198 304.485L49.2178 304.485L49.2178 309.505L44.198 309.505Z" fill="#E5E7EB"/>
<path d="M44.198 284.406L44.198 279.386L49.2178 279.386L49.2178 284.406L44.198 284.406Z" fill="#E5E7EB"/>
<path d="M44.198 259.307L44.198 254.287L49.2178 254.287L49.2178 259.307L44.198 259.307Z" fill="#E5E7EB"/>
<path d="M44.198 234.208L44.198 229.188L49.2178 229.188L49.2178 234.208L44.198 234.208Z" fill="#E5E7EB"/>
<path d="M44.198 209.109L44.198 204.089L49.2178 204.089L49.2178 209.109L44.198 209.109Z" fill="#E5E7EB"/>
<path d="M44.198 184.01L44.198 178.99L49.2178 178.99L49.2178 184.01L44.198 184.01Z" fill="#E5E7EB"/>
<path d="M44.198 158.911L44.198 153.891L49.2178 153.891L49.2178 158.911L44.198 158.911Z" fill="#E5E7EB"/>
<path d="M44.198 133.812L44.198 128.792L49.2178 128.792L49.2178 133.812L44.198 133.812Z" fill="#E5E7EB"/>
<path d="M44.198 108.713L44.198 103.693L49.2178 103.693L49.2178 108.713L44.198 108.713Z" fill="#E5E7EB"/>
<path d="M44.198 83.6139L44.198 78.5941L49.2178 78.5941L49.2178 83.6139L44.198 83.6139Z" fill="#E5E7EB"/>
<path d="M44.198 58.5148L44.198 53.4951L49.2178 53.4951L49.2178 58.5148L44.198 58.5148Z" fill="#E5E7EB"/>
<path d="M44.198 33.4158L44.198 28.396L49.2178 28.396L49.2178 33.4158L44.198 33.4158Z" fill="#E5E7EB"/>
<path d="M44.198 8.31683L44.198 3.29703L49.2178 3.29703L49.2178 8.31683L44.198 8.31683Z" fill="#E5E7EB"/>
<path d="M44.198 -16.7822L44.198 -21.802L49.2178 -21.802L49.2178 -16.7822L44.198 -16.7822Z" fill="#E5E7EB"/>
<path d="M44.198 -41.8812L44.198 -46.901L49.2178 -46.901L49.2178 -41.8812L44.198 -41.8812Z" fill="#E5E7EB"/>
<path d="M44.198 -66.9802L44.198 -72L49.2178 -72L49.2178 -66.9802L44.198 -66.9802Z" fill="#E5E7EB"/>
<path d="M69.297 435L69.297 429.98L74.3168 429.98L74.3168 435L69.297 435Z" fill="#E5E7EB"/>
<path d="M69.297 409.901L69.297 404.881L74.3168 404.881L74.3168 409.901L69.297 409.901Z" fill="#E5E7EB"/>
<path d="M69.297 384.802L69.297 379.782L74.3168 379.782L74.3168 384.802L69.297 384.802Z" fill="#E5E7EB"/>
<path d="M69.297 359.703L69.297 354.683L74.3168 354.683L74.3168 359.703L69.297 359.703Z" fill="#E5E7EB"/>
<path d="M69.297 334.604L69.297 329.584L74.3168 329.584L74.3168 334.604L69.297 334.604Z" fill="#E5E7EB"/>
<path d="M69.297 309.505L69.297 304.485L74.3168 304.485L74.3168 309.505L69.297 309.505Z" fill="#E5E7EB"/>
<path d="M69.297 284.406L69.297 279.386L74.3168 279.386L74.3168 284.406L69.297 284.406Z" fill="#E5E7EB"/>
<path d="M69.297 259.307L69.297 254.287L74.3168 254.287L74.3168 259.307L69.297 259.307Z" fill="#E5E7EB"/>
<path d="M69.297 234.208L69.297 229.188L74.3168 229.188L74.3168 234.208L69.297 234.208Z" fill="#E5E7EB"/>
<path d="M69.297 209.109L69.297 204.089L74.3168 204.089L74.3168 209.109L69.297 209.109Z" fill="#E5E7EB"/>
<path d="M69.297 184.01L69.297 178.99L74.3168 178.99L74.3168 184.01L69.297 184.01Z" fill="#E5E7EB"/>
<path d="M69.297 158.911L69.297 153.891L74.3168 153.891L74.3168 158.911L69.297 158.911Z" fill="#E5E7EB"/>
<path d="M69.297 133.812L69.297 128.792L74.3168 128.792L74.3168 133.812L69.297 133.812Z" fill="#E5E7EB"/>
<path d="M69.297 108.713L69.297 103.693L74.3168 103.693L74.3168 108.713L69.297 108.713Z" fill="#E5E7EB"/>
<path d="M69.297 83.6139L69.297 78.5941L74.3168 78.5941L74.3168 83.6139L69.297 83.6139Z" fill="#E5E7EB"/>
<path d="M69.297 58.5148L69.297 53.4951L74.3168 53.4951L74.3168 58.5148L69.297 58.5148Z" fill="#E5E7EB"/>
<path d="M69.297 33.4158L69.297 28.396L74.3168 28.396L74.3168 33.4158L69.297 33.4158Z" fill="#E5E7EB"/>
<path d="M69.297 8.31683L69.297 3.29702L74.3168 3.29702L74.3168 8.31683L69.297 8.31683Z" fill="#E5E7EB"/>
<path d="M69.297 -16.7822L69.297 -21.802L74.3168 -21.802L74.3168 -16.7822L69.297 -16.7822Z" fill="#E5E7EB"/>
<path d="M69.297 -41.8812L69.297 -46.901L74.3168 -46.901L74.3168 -41.8812L69.297 -41.8812Z" fill="#E5E7EB"/>
<path d="M69.297 -66.9802L69.297 -72L74.3168 -72L74.3168 -66.9802L69.297 -66.9802Z" fill="#E5E7EB"/>
<path d="M94.396 435L94.396 429.98L99.4158 429.98L99.4158 435L94.396 435Z" fill="#E5E7EB"/>
<path d="M94.396 409.901L94.396 404.881L99.4158 404.881L99.4158 409.901L94.396 409.901Z" fill="#E5E7EB"/>
<path d="M94.396 384.802L94.396 379.782L99.4158 379.782L99.4158 384.802L94.396 384.802Z" fill="#E5E7EB"/>
<path d="M94.396 359.703L94.396 354.683L99.4158 354.683L99.4158 359.703L94.396 359.703Z" fill="#E5E7EB"/>
<path d="M94.396 334.604L94.396 329.584L99.4158 329.584L99.4158 334.604L94.396 334.604Z" fill="#E5E7EB"/>
<path d="M94.396 309.505L94.396 304.485L99.4158 304.485L99.4158 309.505L94.396 309.505Z" fill="#E5E7EB"/>
<path d="M94.396 284.406L94.396 279.386L99.4158 279.386L99.4158 284.406L94.396 284.406Z" fill="#E5E7EB"/>
<path d="M94.396 259.307L94.396 254.287L99.4158 254.287L99.4158 259.307L94.396 259.307Z" fill="#E5E7EB"/>
<path d="M94.396 234.208L94.396 229.188L99.4158 229.188L99.4158 234.208L94.396 234.208Z" fill="#E5E7EB"/>
<path d="M94.396 209.109L94.396 204.089L99.4158 204.089L99.4158 209.109L94.396 209.109Z" fill="#E5E7EB"/>
<path d="M94.396 184.01L94.396 178.99L99.4158 178.99L99.4158 184.01L94.396 184.01Z" fill="#E5E7EB"/>
<path d="M94.396 158.911L94.396 153.891L99.4158 153.891L99.4158 158.911L94.396 158.911Z" fill="#E5E7EB"/>
<path d="M94.396 133.812L94.396 128.792L99.4158 128.792L99.4158 133.812L94.396 133.812Z" fill="#E5E7EB"/>
<path d="M94.396 108.713L94.396 103.693L99.4158 103.693L99.4158 108.713L94.396 108.713Z" fill="#E5E7EB"/>
<path d="M94.396 83.6139L94.396 78.5941L99.4158 78.5941L99.4158 83.6139L94.396 83.6139Z" fill="#E5E7EB"/>
<path d="M94.396 58.5148L94.396 53.4951L99.4158 53.4951L99.4158 58.5148L94.396 58.5148Z" fill="#E5E7EB"/>
<path d="M94.396 33.4158L94.396 28.396L99.4158 28.396L99.4158 33.4158L94.396 33.4158Z" fill="#E5E7EB"/>
<path d="M94.396 8.31683L94.396 3.29702L99.4158 3.29702L99.4158 8.31683L94.396 8.31683Z" fill="#E5E7EB"/>
<path d="M94.396 -16.7822L94.396 -21.802L99.4158 -21.802L99.4158 -16.7822L94.396 -16.7822Z" fill="#E5E7EB"/>
<path d="M94.396 -41.8812L94.396 -46.901L99.4158 -46.901L99.4158 -41.8812L94.396 -41.8812Z" fill="#E5E7EB"/>
<path d="M94.396 -66.9802L94.396 -72L99.4158 -72L99.4158 -66.9802L94.396 -66.9802Z" fill="#E5E7EB"/>
<path d="M119.495 435L119.495 429.98L124.515 429.98L124.515 435L119.495 435Z" fill="#E5E7EB"/>
<path d="M119.495 409.901L119.495 404.881L124.515 404.881L124.515 409.901L119.495 409.901Z" fill="#E5E7EB"/>
<path d="M119.495 384.802L119.495 379.782L124.515 379.782L124.515 384.802L119.495 384.802Z" fill="#E5E7EB"/>
<path d="M119.495 359.703L119.495 354.683L124.515 354.683L124.515 359.703L119.495 359.703Z" fill="#E5E7EB"/>
<path d="M119.495 334.604L119.495 329.584L124.515 329.584L124.515 334.604L119.495 334.604Z" fill="#E5E7EB"/>
<path d="M119.495 309.505L119.495 304.485L124.515 304.485L124.515 309.505L119.495 309.505Z" fill="#E5E7EB"/>
<path d="M119.495 284.406L119.495 279.386L124.515 279.386L124.515 284.406L119.495 284.406Z" fill="#E5E7EB"/>
<path d="M119.495 259.307L119.495 254.287L124.515 254.287L124.515 259.307L119.495 259.307Z" fill="#E5E7EB"/>
<path d="M119.495 234.208L119.495 229.188L124.515 229.188L124.515 234.208L119.495 234.208Z" fill="#E5E7EB"/>
<path d="M119.495 209.109L119.495 204.089L124.515 204.089L124.515 209.109L119.495 209.109Z" fill="#E5E7EB"/>
<path d="M119.495 184.01L119.495 178.99L124.515 178.99L124.515 184.01L119.495 184.01Z" fill="#E5E7EB"/>
<path d="M119.495 158.911L119.495 153.891L124.515 153.891L124.515 158.911L119.495 158.911Z" fill="#E5E7EB"/>
<path d="M119.495 133.812L119.495 128.792L124.515 128.792L124.515 133.812L119.495 133.812Z" fill="#E5E7EB"/>
<path d="M119.495 108.713L119.495 103.693L124.515 103.693L124.515 108.713L119.495 108.713Z" fill="#E5E7EB"/>
<path d="M119.495 83.6139L119.495 78.594L124.515 78.594L124.515 83.6139L119.495 83.6139Z" fill="#E5E7EB"/>
<path d="M119.495 58.5148L119.495 53.4951L124.515 53.4951L124.515 58.5148L119.495 58.5148Z" fill="#E5E7EB"/>
<path d="M119.495 33.4158L119.495 28.396L124.515 28.396L124.515 33.4158L119.495 33.4158Z" fill="#E5E7EB"/>
<path d="M119.495 8.31683L119.495 3.29702L124.515 3.29702L124.515 8.31683L119.495 8.31683Z" fill="#E5E7EB"/>
<path d="M119.495 -16.7822L119.495 -21.802L124.515 -21.802L124.515 -16.7822L119.495 -16.7822Z" fill="#E5E7EB"/>
<path d="M119.495 -41.8812L119.495 -46.901L124.515 -46.901L124.515 -41.8812L119.495 -41.8812Z" fill="#E5E7EB"/>
<path d="M119.495 -66.9802L119.495 -72L124.515 -72L124.515 -66.9802L119.495 -66.9802Z" fill="#E5E7EB"/>
<path d="M144.594 435L144.594 429.98L149.614 429.98L149.614 435L144.594 435Z" fill="#E5E7EB"/>
<path d="M144.594 409.901L144.594 404.881L149.614 404.881L149.614 409.901L144.594 409.901Z" fill="#E5E7EB"/>
<path d="M144.594 384.802L144.594 379.782L149.614 379.782L149.614 384.802L144.594 384.802Z" fill="#E5E7EB"/>
<path d="M144.594 359.703L144.594 354.683L149.614 354.683L149.614 359.703L144.594 359.703Z" fill="#E5E7EB"/>
<path d="M144.594 334.604L144.594 329.584L149.614 329.584L149.614 334.604L144.594 334.604Z" fill="#E5E7EB"/>
<path d="M144.594 309.505L144.594 304.485L149.614 304.485L149.614 309.505L144.594 309.505Z" fill="#E5E7EB"/>
<path d="M144.594 284.406L144.594 279.386L149.614 279.386L149.614 284.406L144.594 284.406Z" fill="#E5E7EB"/>
<path d="M144.594 259.307L144.594 254.287L149.614 254.287L149.614 259.307L144.594 259.307Z" fill="#E5E7EB"/>
<path d="M144.594 234.208L144.594 229.188L149.614 229.188L149.614 234.208L144.594 234.208Z" fill="#E5E7EB"/>
<path d="M144.594 209.109L144.594 204.089L149.614 204.089L149.614 209.109L144.594 209.109Z" fill="#E5E7EB"/>
<path d="M144.594 184.01L144.594 178.99L149.614 178.99L149.614 184.01L144.594 184.01Z" fill="#E5E7EB"/>
<path d="M144.594 158.911L144.594 153.891L149.614 153.891L149.614 158.911L144.594 158.911Z" fill="#E5E7EB"/>
<path d="M144.594 133.812L144.594 128.792L149.614 128.792L149.614 133.812L144.594 133.812Z" fill="#E5E7EB"/>
<path d="M144.594 108.713L144.594 103.693L149.614 103.693L149.614 108.713L144.594 108.713Z" fill="#E5E7EB"/>
<path d="M144.594 83.6139L144.594 78.594L149.614 78.594L149.614 83.6139L144.594 83.6139Z" fill="#E5E7EB"/>
<path d="M144.594 58.5148L144.594 53.495L149.614 53.495L149.614 58.5148L144.594 58.5148Z" fill="#E5E7EB"/>
<path d="M144.594 33.4158L144.594 28.396L149.614 28.396L149.614 33.4158L144.594 33.4158Z" fill="#E5E7EB"/>
<path d="M144.594 8.31683L144.594 3.29702L149.614 3.29702L149.614 8.31683L144.594 8.31683Z" fill="#E5E7EB"/>
<path d="M144.594 -16.7822L144.594 -21.802L149.614 -21.802L149.614 -16.7822L144.594 -16.7822Z" fill="#E5E7EB"/>
<path d="M144.594 -41.8812L144.594 -46.901L149.614 -46.901L149.614 -41.8812L144.594 -41.8812Z" fill="#E5E7EB"/>
<path d="M144.594 -66.9802L144.594 -72L149.614 -72L149.614 -66.9802L144.594 -66.9802Z" fill="#E5E7EB"/>
<path d="M169.693 435L169.693 429.98L174.713 429.98L174.713 435L169.693 435Z" fill="#E5E7EB"/>
<path d="M169.693 409.901L169.693 404.881L174.713 404.881L174.713 409.901L169.693 409.901Z" fill="#E5E7EB"/>
<path d="M169.693 384.802L169.693 379.782L174.713 379.782L174.713 384.802L169.693 384.802Z" fill="#E5E7EB"/>
<path d="M169.693 359.703L169.693 354.683L174.713 354.683L174.713 359.703L169.693 359.703Z" fill="#E5E7EB"/>
<path d="M169.693 334.604L169.693 329.584L174.713 329.584L174.713 334.604L169.693 334.604Z" fill="#E5E7EB"/>
<path d="M169.693 309.505L169.693 304.485L174.713 304.485L174.713 309.505L169.693 309.505Z" fill="#E5E7EB"/>
<path d="M169.693 284.406L169.693 279.386L174.713 279.386L174.713 284.406L169.693 284.406Z" fill="#E5E7EB"/>
<path d="M169.693 259.307L169.693 254.287L174.713 254.287L174.713 259.307L169.693 259.307Z" fill="#E5E7EB"/>
<path d="M169.693 234.208L169.693 229.188L174.713 229.188L174.713 234.208L169.693 234.208Z" fill="#E5E7EB"/>
<path d="M169.693 209.109L169.693 204.089L174.713 204.089L174.713 209.109L169.693 209.109Z" fill="#E5E7EB"/>
<path d="M169.693 184.01L169.693 178.99L174.713 178.99L174.713 184.01L169.693 184.01Z" fill="#E5E7EB"/>
<path d="M169.693 158.911L169.693 153.891L174.713 153.891L174.713 158.911L169.693 158.911Z" fill="#E5E7EB"/>
<path d="M169.693 133.812L169.693 128.792L174.713 128.792L174.713 133.812L169.693 133.812Z" fill="#E5E7EB"/>
<path d="M169.693 108.713L169.693 103.693L174.713 103.693L174.713 108.713L169.693 108.713Z" fill="#E5E7EB"/>
<path d="M169.693 83.6139L169.693 78.594L174.713 78.594L174.713 83.6139L169.693 83.6139Z" fill="#E5E7EB"/>
<path d="M169.693 58.5148L169.693 53.495L174.713 53.495L174.713 58.5148L169.693 58.5148Z" fill="#E5E7EB"/>
<path d="M169.693 33.4158L169.693 28.396L174.713 28.396L174.713 33.4158L169.693 33.4158Z" fill="#E5E7EB"/>
<path d="M169.693 8.31683L169.693 3.29702L174.713 3.29702L174.713 8.31683L169.693 8.31683Z" fill="#E5E7EB"/>
<path d="M169.693 -16.7822L169.693 -21.802L174.713 -21.802L174.713 -16.7822L169.693 -16.7822Z" fill="#E5E7EB"/>
<path d="M169.693 -41.8812L169.693 -46.901L174.713 -46.901L174.713 -41.8812L169.693 -41.8812Z" fill="#E5E7EB"/>
<path d="M169.693 -66.9802L169.693 -72L174.713 -72L174.713 -66.9802L169.693 -66.9802Z" fill="#E5E7EB"/>
<path d="M194.792 435L194.792 429.98L199.812 429.98L199.812 435L194.792 435Z" fill="#E5E7EB"/>
<path d="M194.792 409.901L194.792 404.881L199.812 404.881L199.812 409.901L194.792 409.901Z" fill="#E5E7EB"/>
<path d="M194.792 384.802L194.792 379.782L199.812 379.782L199.812 384.802L194.792 384.802Z" fill="#E5E7EB"/>
<path d="M194.792 359.703L194.792 354.683L199.812 354.683L199.812 359.703L194.792 359.703Z" fill="#E5E7EB"/>
<path d="M194.792 334.604L194.792 329.584L199.812 329.584L199.812 334.604L194.792 334.604Z" fill="#E5E7EB"/>
<path d="M194.792 309.505L194.792 304.485L199.812 304.485L199.812 309.505L194.792 309.505Z" fill="#E5E7EB"/>
<path d="M194.792 284.406L194.792 279.386L199.812 279.386L199.812 284.406L194.792 284.406Z" fill="#E5E7EB"/>
<path d="M194.792 259.307L194.792 254.287L199.812 254.287L199.812 259.307L194.792 259.307Z" fill="#E5E7EB"/>
<path d="M194.792 234.208L194.792 229.188L199.812 229.188L199.812 234.208L194.792 234.208Z" fill="#E5E7EB"/>
<path d="M194.792 209.109L194.792 204.089L199.812 204.089L199.812 209.109L194.792 209.109Z" fill="#E5E7EB"/>
<path d="M194.792 184.01L194.792 178.99L199.812 178.99L199.812 184.01L194.792 184.01Z" fill="#E5E7EB"/>
<path d="M194.792 158.911L194.792 153.891L199.812 153.891L199.812 158.911L194.792 158.911Z" fill="#E5E7EB"/>
<path d="M194.792 133.812L194.792 128.792L199.812 128.792L199.812 133.812L194.792 133.812Z" fill="#E5E7EB"/>
<path d="M194.792 108.713L194.792 103.693L199.812 103.693L199.812 108.713L194.792 108.713Z" fill="#E5E7EB"/>
<path d="M194.792 83.6139L194.792 78.594L199.812 78.594L199.812 83.6139L194.792 83.6139Z" fill="#E5E7EB"/>
<path d="M194.792 58.5148L194.792 53.495L199.812 53.495L199.812 58.5148L194.792 58.5148Z" fill="#E5E7EB"/>
<path d="M194.792 33.4158L194.792 28.396L199.812 28.396L199.812 33.4158L194.792 33.4158Z" fill="#E5E7EB"/>
<path d="M194.792 8.31682L194.792 3.29702L199.812 3.29702L199.812 8.31682L194.792 8.31682Z" fill="#E5E7EB"/>
<path d="M194.792 -16.7822L194.792 -21.802L199.812 -21.802L199.812 -16.7822L194.792 -16.7822Z" fill="#E5E7EB"/>
<path d="M194.792 -41.8812L194.792 -46.901L199.812 -46.901L199.812 -41.8812L194.792 -41.8812Z" fill="#E5E7EB"/>
<path d="M194.792 -66.9802L194.792 -72L199.812 -72L199.812 -66.9802L194.792 -66.9802Z" fill="#E5E7EB"/>
<path d="M219.891 435L219.891 429.98L224.911 429.98L224.911 435L219.891 435Z" fill="#E5E7EB"/>
<path d="M219.891 409.901L219.891 404.881L224.911 404.881L224.911 409.901L219.891 409.901Z" fill="#E5E7EB"/>
<path d="M219.891 384.802L219.891 379.782L224.911 379.782L224.911 384.802L219.891 384.802Z" fill="#E5E7EB"/>
<path d="M219.891 359.703L219.891 354.683L224.911 354.683L224.911 359.703L219.891 359.703Z" fill="#E5E7EB"/>
<path d="M219.891 334.604L219.891 329.584L224.911 329.584L224.911 334.604L219.891 334.604Z" fill="#E5E7EB"/>
<path d="M219.891 309.505L219.891 304.485L224.911 304.485L224.911 309.505L219.891 309.505Z" fill="#E5E7EB"/>
<path d="M219.891 284.406L219.891 279.386L224.911 279.386L224.911 284.406L219.891 284.406Z" fill="#E5E7EB"/>
<path d="M219.891 259.307L219.891 254.287L224.911 254.287L224.911 259.307L219.891 259.307Z" fill="#E5E7EB"/>
<path d="M219.891 234.208L219.891 229.188L224.911 229.188L224.911 234.208L219.891 234.208Z" fill="#E5E7EB"/>
<path d="M219.891 209.109L219.891 204.089L224.911 204.089L224.911 209.109L219.891 209.109Z" fill="#E5E7EB"/>
<path d="M219.891 184.01L219.891 178.99L224.911 178.99L224.911 184.01L219.891 184.01Z" fill="#E5E7EB"/>
<path d="M219.891 158.911L219.891 153.891L224.911 153.891L224.911 158.911L219.891 158.911Z" fill="#E5E7EB"/>
<path d="M219.891 133.812L219.891 128.792L224.911 128.792L224.911 133.812L219.891 133.812Z" fill="#E5E7EB"/>
<path d="M219.891 108.713L219.891 103.693L224.911 103.693L224.911 108.713L219.891 108.713Z" fill="#E5E7EB"/>
<path d="M219.891 83.6139L219.891 78.594L224.911 78.594L224.911 83.6139L219.891 83.6139Z" fill="#E5E7EB"/>
<path d="M219.891 58.5148L219.891 53.495L224.911 53.495L224.911 58.5148L219.891 58.5148Z" fill="#E5E7EB"/>
<path d="M219.891 33.4158L219.891 28.396L224.911 28.396L224.911 33.4158L219.891 33.4158Z" fill="#E5E7EB"/>
<path d="M219.891 8.31682L219.891 3.29702L224.911 3.29702L224.911 8.31682L219.891 8.31682Z" fill="#E5E7EB"/>
<path d="M219.891 -16.7822L219.891 -21.802L224.911 -21.802L224.911 -16.7822L219.891 -16.7822Z" fill="#E5E7EB"/>
<path d="M219.891 -41.8812L219.891 -46.901L224.911 -46.901L224.911 -41.8812L219.891 -41.8812Z" fill="#E5E7EB"/>
<path d="M219.891 -66.9802L219.891 -72L224.911 -72L224.911 -66.9802L219.891 -66.9802Z" fill="#E5E7EB"/>
<path d="M244.99 435L244.99 429.98L250.01 429.98L250.01 435L244.99 435Z" fill="#E5E7EB"/>
<path d="M244.99 409.901L244.99 404.881L250.01 404.881L250.01 409.901L244.99 409.901Z" fill="#E5E7EB"/>
<path d="M244.99 384.802L244.99 379.782L250.01 379.782L250.01 384.802L244.99 384.802Z" fill="#E5E7EB"/>
<path d="M244.99 359.703L244.99 354.683L250.01 354.683L250.01 359.703L244.99 359.703Z" fill="#E5E7EB"/>
<path d="M244.99 334.604L244.99 329.584L250.01 329.584L250.01 334.604L244.99 334.604Z" fill="#E5E7EB"/>
<path d="M244.99 309.505L244.99 304.485L250.01 304.485L250.01 309.505L244.99 309.505Z" fill="#E5E7EB"/>
<path d="M244.99 284.406L244.99 279.386L250.01 279.386L250.01 284.406L244.99 284.406Z" fill="#E5E7EB"/>
<path d="M244.99 259.307L244.99 254.287L250.01 254.287L250.01 259.307L244.99 259.307Z" fill="#E5E7EB"/>
<path d="M244.99 234.208L244.99 229.188L250.01 229.188L250.01 234.208L244.99 234.208Z" fill="#E5E7EB"/>
<path d="M244.99 209.109L244.99 204.089L250.01 204.089L250.01 209.109L244.99 209.109Z" fill="#E5E7EB"/>
<path d="M244.99 184.01L244.99 178.99L250.01 178.99L250.01 184.01L244.99 184.01Z" fill="#E5E7EB"/>
<path d="M244.99 158.911L244.99 153.891L250.01 153.891L250.01 158.911L244.99 158.911Z" fill="#E5E7EB"/>
<path d="M244.99 133.812L244.99 128.792L250.01 128.792L250.01 133.812L244.99 133.812Z" fill="#E5E7EB"/>
<path d="M244.99 108.713L244.99 103.693L250.01 103.693L250.01 108.713L244.99 108.713Z" fill="#E5E7EB"/>
<path d="M244.99 83.6139L244.99 78.594L250.01 78.594L250.01 83.6138L244.99 83.6139Z" fill="#E5E7EB"/>
<path d="M244.99 58.5148L244.99 53.495L250.01 53.495L250.01 58.5148L244.99 58.5148Z" fill="#E5E7EB"/>
<path d="M244.99 33.4158L244.99 28.396L250.01 28.396L250.01 33.4158L244.99 33.4158Z" fill="#E5E7EB"/>
<path d="M244.99 8.31682L244.99 3.29702L250.01 3.29702L250.01 8.31682L244.99 8.31682Z" fill="#E5E7EB"/>
<path d="M244.99 -16.7822L244.99 -21.802L250.01 -21.802L250.01 -16.7822L244.99 -16.7822Z" fill="#E5E7EB"/>
<path d="M244.99 -41.8812L244.99 -46.901L250.01 -46.901L250.01 -41.8812L244.99 -41.8812Z" fill="#E5E7EB"/>
<path d="M244.99 -66.9802L244.99 -72L250.01 -72L250.01 -66.9802L244.99 -66.9802Z" fill="#E5E7EB"/>
<path d="M270.089 435L270.089 429.98L275.109 429.98L275.109 435L270.089 435Z" fill="#E5E7EB"/>
<path d="M270.089 409.901L270.089 404.881L275.109 404.881L275.109 409.901L270.089 409.901Z" fill="#E5E7EB"/>
<path d="M270.089 384.802L270.089 379.782L275.109 379.782L275.109 384.802L270.089 384.802Z" fill="#E5E7EB"/>
<path d="M270.089 359.703L270.089 354.683L275.109 354.683L275.109 359.703L270.089 359.703Z" fill="#E5E7EB"/>
<path d="M270.089 334.604L270.089 329.584L275.109 329.584L275.109 334.604L270.089 334.604Z" fill="#E5E7EB"/>
<path d="M270.089 309.505L270.089 304.485L275.109 304.485L275.109 309.505L270.089 309.505Z" fill="#E5E7EB"/>
<path d="M270.089 284.406L270.089 279.386L275.109 279.386L275.109 284.406L270.089 284.406Z" fill="#E5E7EB"/>
<path d="M270.089 259.307L270.089 254.287L275.109 254.287L275.109 259.307L270.089 259.307Z" fill="#E5E7EB"/>
<path d="M270.089 234.208L270.089 229.188L275.109 229.188L275.109 234.208L270.089 234.208Z" fill="#E5E7EB"/>
<path d="M270.089 209.109L270.089 204.089L275.109 204.089L275.109 209.109L270.089 209.109Z" fill="#E5E7EB"/>
<path d="M270.089 184.01L270.089 178.99L275.109 178.99L275.109 184.01L270.089 184.01Z" fill="#E5E7EB"/>
<path d="M270.089 158.911L270.089 153.891L275.109 153.891L275.109 158.911L270.089 158.911Z" fill="#E5E7EB"/>
<path d="M270.089 133.812L270.089 128.792L275.109 128.792L275.109 133.812L270.089 133.812Z" fill="#E5E7EB"/>
<path d="M270.089 108.713L270.089 103.693L275.109 103.693L275.109 108.713L270.089 108.713Z" fill="#E5E7EB"/>
<path d="M270.089 83.6138L270.089 78.594L275.109 78.594L275.109 83.6138L270.089 83.6138Z" fill="#E5E7EB"/>
<path d="M270.089 58.5148L270.089 53.495L275.109 53.495L275.109 58.5148L270.089 58.5148Z" fill="#E5E7EB"/>
<path d="M270.089 33.4158L270.089 28.396L275.109 28.396L275.109 33.4158L270.089 33.4158Z" fill="#E5E7EB"/>
<path d="M270.089 8.31682L270.089 3.29702L275.109 3.29702L275.109 8.31682L270.089 8.31682Z" fill="#E5E7EB"/>
<path d="M270.089 -16.7822L270.089 -21.802L275.109 -21.802L275.109 -16.7822L270.089 -16.7822Z" fill="#E5E7EB"/>
<path d="M270.089 -41.8812L270.089 -46.901L275.109 -46.901L275.109 -41.8812L270.089 -41.8812Z" fill="#E5E7EB"/>
<path d="M270.089 -66.9802L270.089 -72L275.109 -72L275.109 -66.9802L270.089 -66.9802Z" fill="#E5E7EB"/>
<path d="M295.188 435L295.188 429.98L300.208 429.98L300.208 435L295.188 435Z" fill="#E5E7EB"/>
<path d="M295.188 409.901L295.188 404.881L300.208 404.881L300.208 409.901L295.188 409.901Z" fill="#E5E7EB"/>
<path d="M295.188 384.802L295.188 379.782L300.208 379.782L300.208 384.802L295.188 384.802Z" fill="#E5E7EB"/>
<path d="M295.188 359.703L295.188 354.683L300.208 354.683L300.208 359.703L295.188 359.703Z" fill="#E5E7EB"/>
<path d="M295.188 334.604L295.188 329.584L300.208 329.584L300.208 334.604L295.188 334.604Z" fill="#E5E7EB"/>
<path d="M295.188 309.505L295.188 304.485L300.208 304.485L300.208 309.505L295.188 309.505Z" fill="#E5E7EB"/>
<path d="M295.188 284.406L295.188 279.386L300.208 279.386L300.208 284.406L295.188 284.406Z" fill="#E5E7EB"/>
<path d="M295.188 259.307L295.188 254.287L300.208 254.287L300.208 259.307L295.188 259.307Z" fill="#E5E7EB"/>
<path d="M295.188 234.208L295.188 229.188L300.208 229.188L300.208 234.208L295.188 234.208Z" fill="#E5E7EB"/>
<path d="M295.188 209.109L295.188 204.089L300.208 204.089L300.208 209.109L295.188 209.109Z" fill="#E5E7EB"/>
<path d="M295.188 184.01L295.188 178.99L300.208 178.99L300.208 184.01L295.188 184.01Z" fill="#E5E7EB"/>
<path d="M295.188 158.911L295.188 153.891L300.208 153.891L300.208 158.911L295.188 158.911Z" fill="#E5E7EB"/>
<path d="M295.188 133.812L295.188 128.792L300.208 128.792L300.208 133.812L295.188 133.812Z" fill="#E5E7EB"/>
<path d="M295.188 108.713L295.188 103.693L300.208 103.693L300.208 108.713L295.188 108.713Z" fill="#E5E7EB"/>
<path d="M295.188 83.6138L295.188 78.594L300.208 78.594L300.208 83.6138L295.188 83.6138Z" fill="#E5E7EB"/>
<path d="M295.188 58.5148L295.188 53.495L300.208 53.495L300.208 58.5148L295.188 58.5148Z" fill="#E5E7EB"/>
<path d="M295.188 33.4158L295.188 28.396L300.208 28.396L300.208 33.4158L295.188 33.4158Z" fill="#E5E7EB"/>
<path d="M295.188 8.31682L295.188 3.29701L300.208 3.29701L300.208 8.31682L295.188 8.31682Z" fill="#E5E7EB"/>
<path d="M295.188 -16.7822L295.188 -21.802L300.208 -21.802L300.208 -16.7822L295.188 -16.7822Z" fill="#E5E7EB"/>
<path d="M295.188 -41.8812L295.188 -46.901L300.208 -46.901L300.208 -41.8812L295.188 -41.8812Z" fill="#E5E7EB"/>
<path d="M295.188 -66.9802L295.188 -72L300.208 -72L300.208 -66.9802L295.188 -66.9802Z" fill="#E5E7EB"/>
<path d="M320.287 435L320.287 429.98L325.307 429.98L325.307 435L320.287 435Z" fill="#E5E7EB"/>
<path d="M320.287 409.901L320.287 404.881L325.307 404.881L325.307 409.901L320.287 409.901Z" fill="#E5E7EB"/>
<path d="M320.287 384.802L320.287 379.782L325.307 379.782L325.307 384.802L320.287 384.802Z" fill="#E5E7EB"/>
<path d="M320.287 359.703L320.287 354.683L325.307 354.683L325.307 359.703L320.287 359.703Z" fill="#E5E7EB"/>
<path d="M320.287 334.604L320.287 329.584L325.307 329.584L325.307 334.604L320.287 334.604Z" fill="#E5E7EB"/>
<path d="M320.287 309.505L320.287 304.485L325.307 304.485L325.307 309.505L320.287 309.505Z" fill="#E5E7EB"/>
<path d="M320.287 284.406L320.287 279.386L325.307 279.386L325.307 284.406L320.287 284.406Z" fill="#E5E7EB"/>
<path d="M320.287 259.307L320.287 254.287L325.307 254.287L325.307 259.307L320.287 259.307Z" fill="#E5E7EB"/>
<path d="M320.287 234.208L320.287 229.188L325.307 229.188L325.307 234.208L320.287 234.208Z" fill="#E5E7EB"/>
<path d="M320.287 209.109L320.287 204.089L325.307 204.089L325.307 209.109L320.287 209.109Z" fill="#E5E7EB"/>
<path d="M320.287 184.01L320.287 178.99L325.307 178.99L325.307 184.01L320.287 184.01Z" fill="#E5E7EB"/>
<path d="M320.287 158.911L320.287 153.891L325.307 153.891L325.307 158.911L320.287 158.911Z" fill="#E5E7EB"/>
<path d="M320.287 133.812L320.287 128.792L325.307 128.792L325.307 133.812L320.287 133.812Z" fill="#E5E7EB"/>
<path d="M320.287 108.713L320.287 103.693L325.307 103.693L325.307 108.713L320.287 108.713Z" fill="#E5E7EB"/>
<path d="M320.287 83.6138L320.287 78.594L325.307 78.594L325.307 83.6138L320.287 83.6138Z" fill="#E5E7EB"/>
<path d="M320.287 58.5148L320.287 53.495L325.307 53.495L325.307 58.5148L320.287 58.5148Z" fill="#E5E7EB"/>
<path d="M320.287 33.4158L320.287 28.396L325.307 28.396L325.307 33.4158L320.287 33.4158Z" fill="#E5E7EB"/>
<path d="M320.287 8.31682L320.287 3.29701L325.307 3.29701L325.307 8.31682L320.287 8.31682Z" fill="#E5E7EB"/>
<path d="M320.287 -16.7822L320.287 -21.802L325.307 -21.802L325.307 -16.7822L320.287 -16.7822Z" fill="#E5E7EB"/>
<path d="M320.287 -41.8812L320.287 -46.901L325.307 -46.901L325.307 -41.8812L320.287 -41.8812Z" fill="#E5E7EB"/>
<path d="M320.287 -66.9802L320.287 -72L325.307 -72L325.307 -66.9802L320.287 -66.9802Z" fill="#E5E7EB"/>
<path d="M345.386 435L345.386 429.98L350.406 429.98L350.406 435L345.386 435Z" fill="#E5E7EB"/>
<path d="M345.386 409.901L345.386 404.881L350.406 404.881L350.406 409.901L345.386 409.901Z" fill="#E5E7EB"/>
<path d="M345.386 384.802L345.386 379.782L350.406 379.782L350.406 384.802L345.386 384.802Z" fill="#E5E7EB"/>
<path d="M345.386 359.703L345.386 354.683L350.406 354.683L350.406 359.703L345.386 359.703Z" fill="#E5E7EB"/>
<path d="M345.386 334.604L345.386 329.584L350.406 329.584L350.406 334.604L345.386 334.604Z" fill="#E5E7EB"/>
<path d="M345.386 309.505L345.386 304.485L350.406 304.485L350.406 309.505L345.386 309.505Z" fill="#E5E7EB"/>
<path d="M345.386 284.406L345.386 279.386L350.406 279.386L350.406 284.406L345.386 284.406Z" fill="#E5E7EB"/>
<path d="M345.386 259.307L345.386 254.287L350.406 254.287L350.406 259.307L345.386 259.307Z" fill="#E5E7EB"/>
<path d="M345.386 234.208L345.386 229.188L350.406 229.188L350.406 234.208L345.386 234.208Z" fill="#E5E7EB"/>
<path d="M345.386 209.109L345.386 204.089L350.406 204.089L350.406 209.109L345.386 209.109Z" fill="#E5E7EB"/>
<path d="M345.386 184.01L345.386 178.99L350.406 178.99L350.406 184.01L345.386 184.01Z" fill="#E5E7EB"/>
<path d="M345.386 158.911L345.386 153.891L350.406 153.891L350.406 158.911L345.386 158.911Z" fill="#E5E7EB"/>
<path d="M345.386 133.812L345.386 128.792L350.406 128.792L350.406 133.812L345.386 133.812Z" fill="#E5E7EB"/>
<path d="M345.386 108.713L345.386 103.693L350.406 103.693L350.406 108.713L345.386 108.713Z" fill="#E5E7EB"/>
<path d="M345.386 83.6138L345.386 78.594L350.406 78.594L350.406 83.6138L345.386 83.6138Z" fill="#E5E7EB"/>
<path d="M345.386 58.5148L345.386 53.495L350.406 53.495L350.406 58.5148L345.386 58.5148Z" fill="#E5E7EB"/>
<path d="M345.386 33.4158L345.386 28.396L350.406 28.396L350.406 33.4158L345.386 33.4158Z" fill="#E5E7EB"/>
<path d="M345.386 8.31682L345.386 3.29701L350.406 3.29701L350.406 8.31682L345.386 8.31682Z" fill="#E5E7EB"/>
<path d="M345.386 -16.7822L345.386 -21.802L350.406 -21.802L350.406 -16.7822L345.386 -16.7822Z" fill="#E5E7EB"/>
<path d="M345.386 -41.8812L345.386 -46.901L350.406 -46.901L350.406 -41.8812L345.386 -41.8812Z" fill="#E5E7EB"/>
<path d="M345.386 -66.9802L345.386 -72L350.406 -72L350.406 -66.9802L345.386 -66.9802Z" fill="#E5E7EB"/>
<path d="M370.485 435L370.485 429.98L375.505 429.98L375.505 435L370.485 435Z" fill="#E5E7EB"/>
<path d="M370.485 409.901L370.485 404.881L375.505 404.881L375.505 409.901L370.485 409.901Z" fill="#E5E7EB"/>
<path d="M370.485 384.802L370.485 379.782L375.505 379.782L375.505 384.802L370.485 384.802Z" fill="#E5E7EB"/>
<path d="M370.485 359.703L370.485 354.683L375.505 354.683L375.505 359.703L370.485 359.703Z" fill="#E5E7EB"/>
<path d="M370.485 334.604L370.485 329.584L375.505 329.584L375.505 334.604L370.485 334.604Z" fill="#E5E7EB"/>
<path d="M370.485 309.505L370.485 304.485L375.505 304.485L375.505 309.505L370.485 309.505Z" fill="#E5E7EB"/>
<path d="M370.485 284.406L370.485 279.386L375.505 279.386L375.505 284.406L370.485 284.406Z" fill="#E5E7EB"/>
<path d="M370.485 259.307L370.485 254.287L375.505 254.287L375.505 259.307L370.485 259.307Z" fill="#E5E7EB"/>
<path d="M370.485 234.208L370.485 229.188L375.505 229.188L375.505 234.208L370.485 234.208Z" fill="#E5E7EB"/>
<path d="M370.485 209.109L370.485 204.089L375.505 204.089L375.505 209.109L370.485 209.109Z" fill="#E5E7EB"/>
<path d="M370.485 184.01L370.485 178.99L375.505 178.99L375.505 184.01L370.485 184.01Z" fill="#E5E7EB"/>
<path d="M370.485 158.911L370.485 153.891L375.505 153.891L375.505 158.911L370.485 158.911Z" fill="#E5E7EB"/>
<path d="M370.485 133.812L370.485 128.792L375.505 128.792L375.505 133.812L370.485 133.812Z" fill="#E5E7EB"/>
<path d="M370.485 108.713L370.485 103.693L375.505 103.693L375.505 108.713L370.485 108.713Z" fill="#E5E7EB"/>
<path d="M370.485 83.6138L370.485 78.594L375.505 78.594L375.505 83.6138L370.485 83.6138Z" fill="#E5E7EB"/>
<path d="M370.485 58.5148L370.485 53.495L375.505 53.495L375.505 58.5148L370.485 58.5148Z" fill="#E5E7EB"/>
<path d="M370.485 33.4158L370.485 28.396L375.505 28.396L375.505 33.4158L370.485 33.4158Z" fill="#E5E7EB"/>
<path d="M370.485 8.31682L370.485 3.29701L375.505 3.29701L375.505 8.31682L370.485 8.31682Z" fill="#E5E7EB"/>
<path d="M370.485 -16.7822L370.485 -21.802L375.505 -21.802L375.505 -16.7822L370.485 -16.7822Z" fill="#E5E7EB"/>
<path d="M370.485 -41.8812L370.485 -46.901L375.505 -46.901L375.505 -41.8812L370.485 -41.8812Z" fill="#E5E7EB"/>
<path d="M370.485 -66.9802L370.485 -72L375.505 -72L375.505 -66.9802L370.485 -66.9802Z" fill="#E5E7EB"/>
<path d="M395.584 435L395.584 429.98L400.604 429.98L400.604 435L395.584 435Z" fill="#E5E7EB"/>
<path d="M395.584 409.901L395.584 404.881L400.604 404.881L400.604 409.901L395.584 409.901Z" fill="#E5E7EB"/>
<path d="M395.584 384.802L395.584 379.782L400.604 379.782L400.604 384.802L395.584 384.802Z" fill="#E5E7EB"/>
<path d="M395.584 359.703L395.584 354.683L400.604 354.683L400.604 359.703L395.584 359.703Z" fill="#E5E7EB"/>
<path d="M395.584 334.604L395.584 329.584L400.604 329.584L400.604 334.604L395.584 334.604Z" fill="#E5E7EB"/>
<path d="M395.584 309.505L395.584 304.485L400.604 304.485L400.604 309.505L395.584 309.505Z" fill="#E5E7EB"/>
<path d="M395.584 284.406L395.584 279.386L400.604 279.386L400.604 284.406L395.584 284.406Z" fill="#E5E7EB"/>
<path d="M395.584 259.307L395.584 254.287L400.604 254.287L400.604 259.307L395.584 259.307Z" fill="#E5E7EB"/>
<path d="M395.584 234.208L395.584 229.188L400.604 229.188L400.604 234.208L395.584 234.208Z" fill="#E5E7EB"/>
<path d="M395.584 209.109L395.584 204.089L400.604 204.089L400.604 209.109L395.584 209.109Z" fill="#E5E7EB"/>
<path d="M395.584 184.01L395.584 178.99L400.604 178.99L400.604 184.01L395.584 184.01Z" fill="#E5E7EB"/>
<path d="M395.584 158.911L395.584 153.891L400.604 153.891L400.604 158.911L395.584 158.911Z" fill="#E5E7EB"/>
<path d="M395.584 133.812L395.584 128.792L400.604 128.792L400.604 133.812L395.584 133.812Z" fill="#E5E7EB"/>
<path d="M395.584 108.713L395.584 103.693L400.604 103.693L400.604 108.713L395.584 108.713Z" fill="#E5E7EB"/>
<path d="M395.584 83.6138L395.584 78.594L400.604 78.594L400.604 83.6138L395.584 83.6138Z" fill="#E5E7EB"/>
<path d="M395.584 58.5148L395.584 53.495L400.604 53.495L400.604 58.5148L395.584 58.5148Z" fill="#E5E7EB"/>
<path d="M395.584 33.4158L395.584 28.396L400.604 28.396L400.604 33.4158L395.584 33.4158Z" fill="#E5E7EB"/>
<path d="M395.584 8.31682L395.584 3.29701L400.604 3.29701L400.604 8.31682L395.584 8.31682Z" fill="#E5E7EB"/>
<path d="M395.584 -16.7822L395.584 -21.802L400.604 -21.802L400.604 -16.7822L395.584 -16.7822Z" fill="#E5E7EB"/>
<path d="M395.584 -41.8812L395.584 -46.901L400.604 -46.901L400.604 -41.8812L395.584 -41.8812Z" fill="#E5E7EB"/>
<path d="M395.584 -66.9802L395.584 -72L400.604 -72L400.604 -66.9802L395.584 -66.9802Z" fill="#E5E7EB"/>
<path d="M420.683 435L420.683 429.98L425.703 429.98L425.703 435L420.683 435Z" fill="#E5E7EB"/>
<path d="M420.683 409.901L420.683 404.881L425.703 404.881L425.703 409.901L420.683 409.901Z" fill="#E5E7EB"/>
<path d="M420.683 384.802L420.683 379.782L425.703 379.782L425.703 384.802L420.683 384.802Z" fill="#E5E7EB"/>
<path d="M420.683 359.703L420.683 354.683L425.703 354.683L425.703 359.703L420.683 359.703Z" fill="#E5E7EB"/>
<path d="M420.683 334.604L420.683 329.584L425.703 329.584L425.703 334.604L420.683 334.604Z" fill="#E5E7EB"/>
<path d="M420.683 309.505L420.683 304.485L425.703 304.485L425.703 309.505L420.683 309.505Z" fill="#E5E7EB"/>
<path d="M420.683 284.406L420.683 279.386L425.703 279.386L425.703 284.406L420.683 284.406Z" fill="#E5E7EB"/>
<path d="M420.683 259.307L420.683 254.287L425.703 254.287L425.703 259.307L420.683 259.307Z" fill="#E5E7EB"/>
<path d="M420.683 234.208L420.683 229.188L425.703 229.188L425.703 234.208L420.683 234.208Z" fill="#E5E7EB"/>
<path d="M420.683 209.109L420.683 204.089L425.703 204.089L425.703 209.109L420.683 209.109Z" fill="#E5E7EB"/>
<path d="M420.683 184.01L420.683 178.99L425.703 178.99L425.703 184.01L420.683 184.01Z" fill="#E5E7EB"/>
<path d="M420.683 158.911L420.683 153.891L425.703 153.891L425.703 158.911L420.683 158.911Z" fill="#E5E7EB"/>
<path d="M420.683 133.812L420.683 128.792L425.703 128.792L425.703 133.812L420.683 133.812Z" fill="#E5E7EB"/>
<path d="M420.683 108.713L420.683 103.693L425.703 103.693L425.703 108.713L420.683 108.713Z" fill="#E5E7EB"/>
<path d="M420.683 83.6138L420.683 78.594L425.703 78.594L425.703 83.6138L420.683 83.6138Z" fill="#E5E7EB"/>
<path d="M420.683 58.5148L420.683 53.495L425.703 53.495L425.703 58.5148L420.683 58.5148Z" fill="#E5E7EB"/>
<path d="M420.683 33.4158L420.683 28.396L425.703 28.396L425.703 33.4158L420.683 33.4158Z" fill="#E5E7EB"/>
<path d="M420.683 8.31681L420.683 3.29701L425.703 3.29701L425.703 8.31681L420.683 8.31681Z" fill="#E5E7EB"/>
<path d="M420.683 -16.7822L420.683 -21.802L425.703 -21.802L425.703 -16.7822L420.683 -16.7822Z" fill="#E5E7EB"/>
<path d="M420.683 -41.8812L420.683 -46.901L425.703 -46.901L425.703 -41.8812L420.683 -41.8812Z" fill="#E5E7EB"/>
<path d="M420.683 -66.9802L420.683 -72L425.703 -72L425.703 -66.9802L420.683 -66.9802Z" fill="#E5E7EB"/>
<path d="M445.782 435L445.782 429.98L450.802 429.98L450.802 435L445.782 435Z" fill="#E5E7EB"/>
<path d="M445.782 409.901L445.782 404.881L450.802 404.881L450.802 409.901L445.782 409.901Z" fill="#E5E7EB"/>
<path d="M445.782 384.802L445.782 379.782L450.802 379.782L450.802 384.802L445.782 384.802Z" fill="#E5E7EB"/>
<path d="M445.782 359.703L445.782 354.683L450.802 354.683L450.802 359.703L445.782 359.703Z" fill="#E5E7EB"/>
<path d="M445.782 334.604L445.782 329.584L450.802 329.584L450.802 334.604L445.782 334.604Z" fill="#E5E7EB"/>
<path d="M445.782 309.505L445.782 304.485L450.802 304.485L450.802 309.505L445.782 309.505Z" fill="#E5E7EB"/>
<path d="M445.782 284.406L445.782 279.386L450.802 279.386L450.802 284.406L445.782 284.406Z" fill="#E5E7EB"/>
<path d="M445.782 259.307L445.782 254.287L450.802 254.287L450.802 259.307L445.782 259.307Z" fill="#E5E7EB"/>
<path d="M445.782 234.208L445.782 229.188L450.802 229.188L450.802 234.208L445.782 234.208Z" fill="#E5E7EB"/>
<path d="M445.782 209.109L445.782 204.089L450.802 204.089L450.802 209.109L445.782 209.109Z" fill="#E5E7EB"/>
<path d="M445.782 184.01L445.782 178.99L450.802 178.99L450.802 184.01L445.782 184.01Z" fill="#E5E7EB"/>
<path d="M445.782 158.911L445.782 153.891L450.802 153.891L450.802 158.911L445.782 158.911Z" fill="#E5E7EB"/>
<path d="M445.782 133.812L445.782 128.792L450.802 128.792L450.802 133.812L445.782 133.812Z" fill="#E5E7EB"/>
<path d="M445.782 108.713L445.782 103.693L450.802 103.693L450.802 108.713L445.782 108.713Z" fill="#E5E7EB"/>
<path d="M445.782 83.6138L445.782 78.594L450.802 78.594L450.802 83.6138L445.782 83.6138Z" fill="#E5E7EB"/>
<path d="M445.782 58.5148L445.782 53.495L450.802 53.495L450.802 58.5148L445.782 58.5148Z" fill="#E5E7EB"/>
<path d="M445.782 33.4158L445.782 28.396L450.802 28.396L450.802 33.4158L445.782 33.4158Z" fill="#E5E7EB"/>
<path d="M445.782 8.31681L445.782 3.29701L450.802 3.29701L450.802 8.31681L445.782 8.31681Z" fill="#E5E7EB"/>
<path d="M445.782 -16.7822L445.782 -21.802L450.802 -21.802L450.802 -16.7822L445.782 -16.7822Z" fill="#E5E7EB"/>
<path d="M445.782 -41.8812L445.782 -46.901L450.802 -46.901L450.802 -41.8812L445.782 -41.8812Z" fill="#E5E7EB"/>
<path d="M445.782 -66.9802L445.782 -72L450.802 -72L450.802 -66.9802L445.782 -66.9802Z" fill="#E5E7EB"/>
<path d="M470.881 435L470.881 429.98L475.901 429.98L475.901 435L470.881 435Z" fill="#E5E7EB"/>
<path d="M470.881 409.901L470.881 404.881L475.901 404.881L475.901 409.901L470.881 409.901Z" fill="#E5E7EB"/>
<path d="M470.881 384.802L470.881 379.782L475.901 379.782L475.901 384.802L470.881 384.802Z" fill="#E5E7EB"/>
<path d="M470.881 359.703L470.881 354.683L475.901 354.683L475.901 359.703L470.881 359.703Z" fill="#E5E7EB"/>
<path d="M470.881 334.604L470.881 329.584L475.901 329.584L475.901 334.604L470.881 334.604Z" fill="#E5E7EB"/>
<path d="M470.881 309.505L470.881 304.485L475.901 304.485L475.901 309.505L470.881 309.505Z" fill="#E5E7EB"/>
<path d="M470.881 284.406L470.881 279.386L475.901 279.386L475.901 284.406L470.881 284.406Z" fill="#E5E7EB"/>
<path d="M470.881 259.307L470.881 254.287L475.901 254.287L475.901 259.307L470.881 259.307Z" fill="#E5E7EB"/>
<path d="M470.881 234.208L470.881 229.188L475.901 229.188L475.901 234.208L470.881 234.208Z" fill="#E5E7EB"/>
<path d="M470.881 209.109L470.881 204.089L475.901 204.089L475.901 209.109L470.881 209.109Z" fill="#E5E7EB"/>
<path d="M470.881 184.01L470.881 178.99L475.901 178.99L475.901 184.01L470.881 184.01Z" fill="#E5E7EB"/>
<path d="M470.881 158.911L470.881 153.891L475.901 153.891L475.901 158.911L470.881 158.911Z" fill="#E5E7EB"/>
<path d="M470.881 133.812L470.881 128.792L475.901 128.792L475.901 133.812L470.881 133.812Z" fill="#E5E7EB"/>
<path d="M470.881 108.713L470.881 103.693L475.901 103.693L475.901 108.713L470.881 108.713Z" fill="#E5E7EB"/>
<path d="M470.881 83.6138L470.881 78.594L475.901 78.594L475.901 83.6138L470.881 83.6138Z" fill="#E5E7EB"/>
<path d="M470.881 58.5148L470.881 53.495L475.901 53.495L475.901 58.5148L470.881 58.5148Z" fill="#E5E7EB"/>
<path d="M470.881 33.4158L470.881 28.396L475.901 28.396L475.901 33.4158L470.881 33.4158Z" fill="#E5E7EB"/>
<path d="M470.881 8.31681L470.881 3.29701L475.901 3.29701L475.901 8.31681L470.881 8.31681Z" fill="#E5E7EB"/>
<path d="M470.881 -16.7822L470.881 -21.802L475.901 -21.802L475.901 -16.7822L470.881 -16.7822Z" fill="#E5E7EB"/>
<path d="M470.881 -41.8812L470.881 -46.901L475.901 -46.901L475.901 -41.8812L470.881 -41.8812Z" fill="#E5E7EB"/>
<path d="M470.881 -66.9802L470.881 -72L475.901 -72L475.901 -66.9802L470.881 -66.9802Z" fill="#E5E7EB"/>
<path d="M495.98 435L495.98 429.98L501 429.98L501 435L495.98 435Z" fill="#E5E7EB"/>
<path d="M495.98 409.901L495.98 404.881L501 404.881L501 409.901L495.98 409.901Z" fill="#E5E7EB"/>
<path d="M495.98 384.802L495.98 379.782L501 379.782L501 384.802L495.98 384.802Z" fill="#E5E7EB"/>
<path d="M495.98 359.703L495.98 354.683L501 354.683L501 359.703L495.98 359.703Z" fill="#E5E7EB"/>
<path d="M495.98 334.604L495.98 329.584L501 329.584L501 334.604L495.98 334.604Z" fill="#E5E7EB"/>
<path d="M495.98 309.505L495.98 304.485L501 304.485L501 309.505L495.98 309.505Z" fill="#E5E7EB"/>
<path d="M495.98 284.406L495.98 279.386L501 279.386L501 284.406L495.98 284.406Z" fill="#E5E7EB"/>
<path d="M495.98 259.307L495.98 254.287L501 254.287L501 259.307L495.98 259.307Z" fill="#E5E7EB"/>
<path d="M495.98 234.208L495.98 229.188L501 229.188L501 234.208L495.98 234.208Z" fill="#E5E7EB"/>
<path d="M495.98 209.109L495.98 204.089L501 204.089L501 209.109L495.98 209.109Z" fill="#E5E7EB"/>
<path d="M495.98 184.01L495.98 178.99L501 178.99L501 184.01L495.98 184.01Z" fill="#E5E7EB"/>
<path d="M495.98 158.911L495.98 153.891L501 153.891L501 158.911L495.98 158.911Z" fill="#E5E7EB"/>
<path d="M495.98 133.812L495.98 128.792L501 128.792L501 133.812L495.98 133.812Z" fill="#E5E7EB"/>
<path d="M495.98 108.713L495.98 103.693L501 103.693L501 108.713L495.98 108.713Z" fill="#E5E7EB"/>
<path d="M495.98 83.6138L495.98 78.594L501 78.594L501 83.6138L495.98 83.6138Z" fill="#E5E7EB"/>
<path d="M495.98 58.5148L495.98 53.495L501 53.495L501 58.5148L495.98 58.5148Z" fill="#E5E7EB"/>
<path d="M495.98 33.4158L495.98 28.396L501 28.396L501 33.4158L495.98 33.4158Z" fill="#E5E7EB"/>
<path d="M495.98 8.31681L495.98 3.29701L501 3.29701L501 8.31681L495.98 8.31681Z" fill="#E5E7EB"/>
<path d="M495.98 -16.7822L495.98 -21.802L501 -21.802L501 -16.7822L495.98 -16.7822Z" fill="#E5E7EB"/>
<path d="M495.98 -41.8812L495.98 -46.901L501 -46.901L501 -41.8812L495.98 -41.8812Z" fill="#E5E7EB"/>
<path d="M495.98 -66.9802L495.98 -72L501 -72L501 -66.9802L495.98 -66.9802Z" fill="#E5E7EB"/>
<path d="M521.079 435L521.079 429.98L526.099 429.98L526.099 435L521.079 435Z" fill="#E5E7EB"/>
<path d="M521.079 409.901L521.079 404.881L526.099 404.881L526.099 409.901L521.079 409.901Z" fill="#E5E7EB"/>
<path d="M521.079 384.802L521.079 379.782L526.099 379.782L526.099 384.802L521.079 384.802Z" fill="#E5E7EB"/>
<path d="M521.079 359.703L521.079 354.683L526.099 354.683L526.099 359.703L521.079 359.703Z" fill="#E5E7EB"/>
<path d="M521.079 334.604L521.079 329.584L526.099 329.584L526.099 334.604L521.079 334.604Z" fill="#E5E7EB"/>
<path d="M521.079 309.505L521.079 304.485L526.099 304.485L526.099 309.505L521.079 309.505Z" fill="#E5E7EB"/>
<path d="M521.079 284.406L521.079 279.386L526.099 279.386L526.099 284.406L521.079 284.406Z" fill="#E5E7EB"/>
<path d="M521.079 259.307L521.079 254.287L526.099 254.287L526.099 259.307L521.079 259.307Z" fill="#E5E7EB"/>
<path d="M521.079 234.208L521.079 229.188L526.099 229.188L526.099 234.208L521.079 234.208Z" fill="#E5E7EB"/>
<path d="M521.079 209.109L521.079 204.089L526.099 204.089L526.099 209.109L521.079 209.109Z" fill="#E5E7EB"/>
<path d="M521.079 184.01L521.079 178.99L526.099 178.99L526.099 184.01L521.079 184.01Z" fill="#E5E7EB"/>
<path d="M521.079 158.911L521.079 153.891L526.099 153.891L526.099 158.911L521.079 158.911Z" fill="#E5E7EB"/>
<path d="M521.079 133.812L521.079 128.792L526.099 128.792L526.099 133.812L521.079 133.812Z" fill="#E5E7EB"/>
<path d="M521.079 108.713L521.079 103.693L526.099 103.693L526.099 108.713L521.079 108.713Z" fill="#E5E7EB"/>
<path d="M521.079 83.6139L521.079 78.5941L526.099 78.5941L526.099 83.6139L521.079 83.6139Z" fill="#E5E7EB"/>
<path d="M521.079 58.5148L521.079 53.4951L526.099 53.4951L526.099 58.5148L521.079 58.5148Z" fill="#E5E7EB"/>
<path d="M521.079 33.4158L521.079 28.396L526.099 28.396L526.099 33.4158L521.079 33.4158Z" fill="#E5E7EB"/>
<path d="M521.079 8.31683L521.079 3.29703L526.099 3.29703L526.099 8.31683L521.079 8.31683Z" fill="#E5E7EB"/>
<path d="M521.079 -16.7822L521.079 -21.802L526.099 -21.802L526.099 -16.7822L521.079 -16.7822Z" fill="#E5E7EB"/>
<path d="M521.079 -41.8812L521.079 -46.901L526.099 -46.901L526.099 -41.8812L521.079 -41.8812Z" fill="#E5E7EB"/>
<path d="M521.079 -66.9802L521.079 -72L526.099 -72L526.099 -66.9802L521.079 -66.9802Z" fill="#E5E7EB"/>
<path d="M546.178 435L546.178 429.98L551.198 429.98L551.198 435L546.178 435Z" fill="#E5E7EB"/>
<path d="M546.178 409.901L546.178 404.881L551.198 404.881L551.198 409.901L546.178 409.901Z" fill="#E5E7EB"/>
<path d="M546.178 384.802L546.178 379.782L551.198 379.782L551.198 384.802L546.178 384.802Z" fill="#E5E7EB"/>
<path d="M546.178 359.703L546.178 354.683L551.198 354.683L551.198 359.703L546.178 359.703Z" fill="#E5E7EB"/>
<path d="M546.178 334.604L546.178 329.584L551.198 329.584L551.198 334.604L546.178 334.604Z" fill="#E5E7EB"/>
<path d="M546.178 309.505L546.178 304.485L551.198 304.485L551.198 309.505L546.178 309.505Z" fill="#E5E7EB"/>
<path d="M546.178 284.406L546.178 279.386L551.198 279.386L551.198 284.406L546.178 284.406Z" fill="#E5E7EB"/>
<path d="M546.178 259.307L546.178 254.287L551.198 254.287L551.198 259.307L546.178 259.307Z" fill="#E5E7EB"/>
<path d="M546.178 234.208L546.178 229.188L551.198 229.188L551.198 234.208L546.178 234.208Z" fill="#E5E7EB"/>
<path d="M546.178 209.109L546.178 204.089L551.198 204.089L551.198 209.109L546.178 209.109Z" fill="#E5E7EB"/>
<path d="M546.178 184.01L546.178 178.99L551.198 178.99L551.198 184.01L546.178 184.01Z" fill="#E5E7EB"/>
<path d="M546.178 158.911L546.178 153.891L551.198 153.891L551.198 158.911L546.178 158.911Z" fill="#E5E7EB"/>
<path d="M546.178 133.812L546.178 128.792L551.198 128.792L551.198 133.812L546.178 133.812Z" fill="#E5E7EB"/>
<path d="M546.178 108.713L546.178 103.693L551.198 103.693L551.198 108.713L546.178 108.713Z" fill="#E5E7EB"/>
<path d="M546.178 83.6139L546.178 78.5941L551.198 78.5941L551.198 83.6139L546.178 83.6139Z" fill="#E5E7EB"/>
<path d="M546.178 58.5148L546.178 53.4951L551.198 53.4951L551.198 58.5148L546.178 58.5148Z" fill="#E5E7EB"/>
<path d="M546.178 33.4158L546.178 28.396L551.198 28.396L551.198 33.4158L546.178 33.4158Z" fill="#E5E7EB"/>
<path d="M546.178 8.31683L546.178 3.29703L551.198 3.29703L551.198 8.31683L546.178 8.31683Z" fill="#E5E7EB"/>
<path d="M546.178 -16.7822L546.178 -21.802L551.198 -21.802L551.198 -16.7822L546.178 -16.7822Z" fill="#E5E7EB"/>
<path d="M546.178 -41.8812L546.178 -46.901L551.198 -46.901L551.198 -41.8812L546.178 -41.8812Z" fill="#E5E7EB"/>
<path d="M546.178 -66.9802L546.178 -72L551.198 -72L551.198 -66.9802L546.178 -66.9802Z" fill="#E5E7EB"/>
<path d="M571.277 435L571.277 429.98L576.297 429.98L576.297 435L571.277 435Z" fill="#E5E7EB"/>
<path d="M571.277 409.901L571.277 404.881L576.297 404.881L576.297 409.901L571.277 409.901Z" fill="#E5E7EB"/>
<path d="M571.277 384.802L571.277 379.782L576.297 379.782L576.297 384.802L571.277 384.802Z" fill="#E5E7EB"/>
<path d="M571.277 359.703L571.277 354.683L576.297 354.683L576.297 359.703L571.277 359.703Z" fill="#E5E7EB"/>
<path d="M571.277 334.604L571.277 329.584L576.297 329.584L576.297 334.604L571.277 334.604Z" fill="#E5E7EB"/>
<path d="M571.277 309.505L571.277 304.485L576.297 304.485L576.297 309.505L571.277 309.505Z" fill="#E5E7EB"/>
<path d="M571.277 284.406L571.277 279.386L576.297 279.386L576.297 284.406L571.277 284.406Z" fill="#E5E7EB"/>
<path d="M571.277 259.307L571.277 254.287L576.297 254.287L576.297 259.307L571.277 259.307Z" fill="#E5E7EB"/>
<path d="M571.277 234.208L571.277 229.188L576.297 229.188L576.297 234.208L571.277 234.208Z" fill="#E5E7EB"/>
<path d="M571.277 209.109L571.277 204.089L576.297 204.089L576.297 209.109L571.277 209.109Z" fill="#E5E7EB"/>
<path d="M571.277 184.01L571.277 178.99L576.297 178.99L576.297 184.01L571.277 184.01Z" fill="#E5E7EB"/>
<path d="M571.277 158.911L571.277 153.891L576.297 153.891L576.297 158.911L571.277 158.911Z" fill="#E5E7EB"/>
<path d="M571.277 133.812L571.277 128.792L576.297 128.792L576.297 133.812L571.277 133.812Z" fill="#E5E7EB"/>
<path d="M571.277 108.713L571.277 103.693L576.297 103.693L576.297 108.713L571.277 108.713Z" fill="#E5E7EB"/>
<path d="M571.277 83.6139L571.277 78.5941L576.297 78.5941L576.297 83.6139L571.277 83.6139Z" fill="#E5E7EB"/>
<path d="M571.277 58.5148L571.277 53.4951L576.297 53.4951L576.297 58.5148L571.277 58.5148Z" fill="#E5E7EB"/>
<path d="M571.277 33.4158L571.277 28.396L576.297 28.396L576.297 33.4158L571.277 33.4158Z" fill="#E5E7EB"/>
<path d="M571.277 8.31683L571.277 3.29703L576.297 3.29703L576.297 8.31683L571.277 8.31683Z" fill="#E5E7EB"/>
<path d="M571.277 -16.7822L571.277 -21.802L576.297 -21.802L576.297 -16.7822L571.277 -16.7822Z" fill="#E5E7EB"/>
<path d="M571.277 -41.8812L571.277 -46.901L576.297 -46.901L576.297 -41.8812L571.277 -41.8812Z" fill="#E5E7EB"/>
<path d="M571.277 -66.9802L571.277 -72L576.297 -72L576.297 -66.9802L571.277 -66.9802Z" fill="#E5E7EB"/>
<path d="M596.376 435L596.376 429.98L601.396 429.98L601.396 435L596.376 435Z" fill="#E5E7EB"/>
<path d="M596.376 409.901L596.376 404.881L601.396 404.881L601.396 409.901L596.376 409.901Z" fill="#E5E7EB"/>
<path d="M596.376 384.802L596.376 379.782L601.396 379.782L601.396 384.802L596.376 384.802Z" fill="#E5E7EB"/>
<path d="M596.376 359.703L596.376 354.683L601.396 354.683L601.396 359.703L596.376 359.703Z" fill="#E5E7EB"/>
<path d="M596.376 334.604L596.376 329.584L601.396 329.584L601.396 334.604L596.376 334.604Z" fill="#E5E7EB"/>
<path d="M596.376 309.505L596.376 304.485L601.396 304.485L601.396 309.505L596.376 309.505Z" fill="#E5E7EB"/>
<path d="M596.376 284.406L596.376 279.386L601.396 279.386L601.396 284.406L596.376 284.406Z" fill="#E5E7EB"/>
<path d="M596.376 259.307L596.376 254.287L601.396 254.287L601.396 259.307L596.376 259.307Z" fill="#E5E7EB"/>
<path d="M596.376 234.208L596.376 229.188L601.396 229.188L601.396 234.208L596.376 234.208Z" fill="#E5E7EB"/>
<path d="M596.376 209.109L596.376 204.089L601.396 204.089L601.396 209.109L596.376 209.109Z" fill="#E5E7EB"/>
<path d="M596.376 184.01L596.376 178.99L601.396 178.99L601.396 184.01L596.376 184.01Z" fill="#E5E7EB"/>
<path d="M596.376 158.911L596.376 153.891L601.396 153.891L601.396 158.911L596.376 158.911Z" fill="#E5E7EB"/>
<path d="M596.376 133.812L596.376 128.792L601.396 128.792L601.396 133.812L596.376 133.812Z" fill="#E5E7EB"/>
<path d="M596.376 108.713L596.376 103.693L601.396 103.693L601.396 108.713L596.376 108.713Z" fill="#E5E7EB"/>
<path d="M596.376 83.6139L596.376 78.5941L601.396 78.5941L601.396 83.6139L596.376 83.6139Z" fill="#E5E7EB"/>
<path d="M596.376 58.5148L596.376 53.4951L601.396 53.4951L601.396 58.5148L596.376 58.5148Z" fill="#E5E7EB"/>
<path d="M596.376 33.4158L596.376 28.396L601.396 28.396L601.396 33.4158L596.376 33.4158Z" fill="#E5E7EB"/>
<path d="M596.376 8.31683L596.376 3.29702L601.396 3.29702L601.396 8.31683L596.376 8.31683Z" fill="#E5E7EB"/>
<path d="M596.376 -16.7822L596.376 -21.802L601.396 -21.802L601.396 -16.7822L596.376 -16.7822Z" fill="#E5E7EB"/>
<path d="M596.376 -41.8812L596.376 -46.901L601.396 -46.901L601.396 -41.8812L596.376 -41.8812Z" fill="#E5E7EB"/>
<path d="M596.376 -66.9802L596.376 -72L601.396 -72L601.396 -66.9802L596.376 -66.9802Z" fill="#E5E7EB"/>
<path d="M621.475 435L621.475 429.98L626.495 429.98L626.495 435L621.475 435Z" fill="#E5E7EB"/>
<path d="M621.475 409.901L621.475 404.881L626.495 404.881L626.495 409.901L621.475 409.901Z" fill="#E5E7EB"/>
<path d="M621.475 384.802L621.475 379.782L626.495 379.782L626.495 384.802L621.475 384.802Z" fill="#E5E7EB"/>
<path d="M621.475 359.703L621.475 354.683L626.495 354.683L626.495 359.703L621.475 359.703Z" fill="#E5E7EB"/>
<path d="M621.475 334.604L621.475 329.584L626.495 329.584L626.495 334.604L621.475 334.604Z" fill="#E5E7EB"/>
<path d="M621.475 309.505L621.475 304.485L626.495 304.485L626.495 309.505L621.475 309.505Z" fill="#E5E7EB"/>
<path d="M621.475 284.406L621.475 279.386L626.495 279.386L626.495 284.406L621.475 284.406Z" fill="#E5E7EB"/>
<path d="M621.475 259.307L621.475 254.287L626.495 254.287L626.495 259.307L621.475 259.307Z" fill="#E5E7EB"/>
<path d="M621.475 234.208L621.475 229.188L626.495 229.188L626.495 234.208L621.475 234.208Z" fill="#E5E7EB"/>
<path d="M621.475 209.109L621.475 204.089L626.495 204.089L626.495 209.109L621.475 209.109Z" fill="#E5E7EB"/>
<path d="M621.475 184.01L621.475 178.99L626.495 178.99L626.495 184.01L621.475 184.01Z" fill="#E5E7EB"/>
<path d="M621.475 158.911L621.475 153.891L626.495 153.891L626.495 158.911L621.475 158.911Z" fill="#E5E7EB"/>
<path d="M621.475 133.812L621.475 128.792L626.495 128.792L626.495 133.812L621.475 133.812Z" fill="#E5E7EB"/>
<path d="M621.475 108.713L621.475 103.693L626.495 103.693L626.495 108.713L621.475 108.713Z" fill="#E5E7EB"/>
<path d="M621.475 83.6139L621.475 78.5941L626.495 78.5941L626.495 83.6139L621.475 83.6139Z" fill="#E5E7EB"/>
<path d="M621.475 58.5148L621.475 53.4951L626.495 53.4951L626.495 58.5148L621.475 58.5148Z" fill="#E5E7EB"/>
<path d="M621.475 33.4158L621.475 28.396L626.495 28.396L626.495 33.4158L621.475 33.4158Z" fill="#E5E7EB"/>
<path d="M621.475 8.31683L621.475 3.29702L626.495 3.29702L626.495 8.31683L621.475 8.31683Z" fill="#E5E7EB"/>
<path d="M621.475 -16.7822L621.475 -21.802L626.495 -21.802L626.495 -16.7822L621.475 -16.7822Z" fill="#E5E7EB"/>
<path d="M621.475 -41.8812L621.475 -46.901L626.495 -46.901L626.495 -41.8812L621.475 -41.8812Z" fill="#E5E7EB"/>
<path d="M621.475 -66.9802L621.475 -72L626.495 -72L626.495 -66.9802L621.475 -66.9802Z" fill="#E5E7EB"/>
<path d="M646.574 435L646.574 429.98L651.594 429.98L651.594 435L646.574 435Z" fill="#E5E7EB"/>
<path d="M646.574 409.901L646.574 404.881L651.594 404.881L651.594 409.901L646.574 409.901Z" fill="#E5E7EB"/>
<path d="M646.574 384.802L646.574 379.782L651.594 379.782L651.594 384.802L646.574 384.802Z" fill="#E5E7EB"/>
<path d="M646.574 359.703L646.574 354.683L651.594 354.683L651.594 359.703L646.574 359.703Z" fill="#E5E7EB"/>
<path d="M646.574 334.604L646.574 329.584L651.594 329.584L651.594 334.604L646.574 334.604Z" fill="#E5E7EB"/>
<path d="M646.574 309.505L646.574 304.485L651.594 304.485L651.594 309.505L646.574 309.505Z" fill="#E5E7EB"/>
<path d="M646.574 284.406L646.574 279.386L651.594 279.386L651.594 284.406L646.574 284.406Z" fill="#E5E7EB"/>
<path d="M646.574 259.307L646.574 254.287L651.594 254.287L651.594 259.307L646.574 259.307Z" fill="#E5E7EB"/>
<path d="M646.574 234.208L646.574 229.188L651.594 229.188L651.594 234.208L646.574 234.208Z" fill="#E5E7EB"/>
<path d="M646.574 209.109L646.574 204.089L651.594 204.089L651.594 209.109L646.574 209.109Z" fill="#E5E7EB"/>
<path d="M646.574 184.01L646.574 178.99L651.594 178.99L651.594 184.01L646.574 184.01Z" fill="#E5E7EB"/>
<path d="M646.574 158.911L646.574 153.891L651.594 153.891L651.594 158.911L646.574 158.911Z" fill="#E5E7EB"/>
<path d="M646.574 133.812L646.574 128.792L651.594 128.792L651.594 133.812L646.574 133.812Z" fill="#E5E7EB"/>
<path d="M646.574 108.713L646.574 103.693L651.594 103.693L651.594 108.713L646.574 108.713Z" fill="#E5E7EB"/>
<path d="M646.574 83.6139L646.574 78.594L651.594 78.594L651.594 83.6139L646.574 83.6139Z" fill="#E5E7EB"/>
<path d="M646.574 58.5148L646.574 53.4951L651.594 53.4951L651.594 58.5148L646.574 58.5148Z" fill="#E5E7EB"/>
<path d="M646.574 33.4158L646.574 28.396L651.594 28.396L651.594 33.4158L646.574 33.4158Z" fill="#E5E7EB"/>
<path d="M646.574 8.31683L646.574 3.29702L651.594 3.29702L651.594 8.31683L646.574 8.31683Z" fill="#E5E7EB"/>
<path d="M646.574 -16.7822L646.574 -21.802L651.594 -21.802L651.594 -16.7822L646.574 -16.7822Z" fill="#E5E7EB"/>
<path d="M646.574 -41.8812L646.574 -46.901L651.594 -46.901L651.594 -41.8812L646.574 -41.8812Z" fill="#E5E7EB"/>
<path d="M646.574 -66.9802L646.574 -72L651.594 -72L651.594 -66.9802L646.574 -66.9802Z" fill="#E5E7EB"/>
<path d="M671.673 435L671.673 429.98L676.693 429.98L676.693 435L671.673 435Z" fill="#E5E7EB"/>
<path d="M671.673 409.901L671.673 404.881L676.693 404.881L676.693 409.901L671.673 409.901Z" fill="#E5E7EB"/>
<path d="M671.673 384.802L671.673 379.782L676.693 379.782L676.693 384.802L671.673 384.802Z" fill="#E5E7EB"/>
<path d="M671.673 359.703L671.673 354.683L676.693 354.683L676.693 359.703L671.673 359.703Z" fill="#E5E7EB"/>
<path d="M671.673 334.604L671.673 329.584L676.693 329.584L676.693 334.604L671.673 334.604Z" fill="#E5E7EB"/>
<path d="M671.673 309.505L671.673 304.485L676.693 304.485L676.693 309.505L671.673 309.505Z" fill="#E5E7EB"/>
<path d="M671.673 284.406L671.673 279.386L676.693 279.386L676.693 284.406L671.673 284.406Z" fill="#E5E7EB"/>
<path d="M671.673 259.307L671.673 254.287L676.693 254.287L676.693 259.307L671.673 259.307Z" fill="#E5E7EB"/>
<path d="M671.673 234.208L671.673 229.188L676.693 229.188L676.693 234.208L671.673 234.208Z" fill="#E5E7EB"/>
<path d="M671.673 209.109L671.673 204.089L676.693 204.089L676.693 209.109L671.673 209.109Z" fill="#E5E7EB"/>
<path d="M671.673 184.01L671.673 178.99L676.693 178.99L676.693 184.01L671.673 184.01Z" fill="#E5E7EB"/>
<path d="M671.673 158.911L671.673 153.891L676.693 153.891L676.693 158.911L671.673 158.911Z" fill="#E5E7EB"/>
<path d="M671.673 133.812L671.673 128.792L676.693 128.792L676.693 133.812L671.673 133.812Z" fill="#E5E7EB"/>
<path d="M671.673 108.713L671.673 103.693L676.693 103.693L676.693 108.713L671.673 108.713Z" fill="#E5E7EB"/>
<path d="M671.673 83.6139L671.673 78.594L676.693 78.594L676.693 83.6139L671.673 83.6139Z" fill="#E5E7EB"/>
<path d="M671.673 58.5148L671.673 53.495L676.693 53.495L676.693 58.5148L671.673 58.5148Z" fill="#E5E7EB"/>
<path d="M671.673 33.4158L671.673 28.396L676.693 28.396L676.693 33.4158L671.673 33.4158Z" fill="#E5E7EB"/>
<path d="M671.673 8.31683L671.673 3.29702L676.693 3.29702L676.693 8.31683L671.673 8.31683Z" fill="#E5E7EB"/>
<path d="M671.673 -16.7822L671.673 -21.802L676.693 -21.802L676.693 -16.7822L671.673 -16.7822Z" fill="#E5E7EB"/>
<path d="M671.673 -41.8812L671.673 -46.901L676.693 -46.901L676.693 -41.8812L671.673 -41.8812Z" fill="#E5E7EB"/>
<path d="M671.673 -66.9802L671.673 -72L676.693 -72L676.693 -66.9802L671.673 -66.9802Z" fill="#E5E7EB"/>
<path d="M696.772 435L696.772 429.98L701.792 429.98L701.792 435L696.772 435Z" fill="#E5E7EB"/>
<path d="M696.772 409.901L696.772 404.881L701.792 404.881L701.792 409.901L696.772 409.901Z" fill="#E5E7EB"/>
<path d="M696.772 384.802L696.772 379.782L701.792 379.782L701.792 384.802L696.772 384.802Z" fill="#E5E7EB"/>
<path d="M696.772 359.703L696.772 354.683L701.792 354.683L701.792 359.703L696.772 359.703Z" fill="#E5E7EB"/>
<path d="M696.772 334.604L696.772 329.584L701.792 329.584L701.792 334.604L696.772 334.604Z" fill="#E5E7EB"/>
<path d="M696.772 309.505L696.772 304.485L701.792 304.485L701.792 309.505L696.772 309.505Z" fill="#E5E7EB"/>
<path d="M696.772 284.406L696.772 279.386L701.792 279.386L701.792 284.406L696.772 284.406Z" fill="#E5E7EB"/>
<path d="M696.772 259.307L696.772 254.287L701.792 254.287L701.792 259.307L696.772 259.307Z" fill="#E5E7EB"/>
<path d="M696.772 234.208L696.772 229.188L701.792 229.188L701.792 234.208L696.772 234.208Z" fill="#E5E7EB"/>
<path d="M696.772 209.109L696.772 204.089L701.792 204.089L701.792 209.109L696.772 209.109Z" fill="#E5E7EB"/>
<path d="M696.772 184.01L696.772 178.99L701.792 178.99L701.792 184.01L696.772 184.01Z" fill="#E5E7EB"/>
<path d="M696.772 158.911L696.772 153.891L701.792 153.891L701.792 158.911L696.772 158.911Z" fill="#E5E7EB"/>
<path d="M696.772 133.812L696.772 128.792L701.792 128.792L701.792 133.812L696.772 133.812Z" fill="#E5E7EB"/>
<path d="M696.772 108.713L696.772 103.693L701.792 103.693L701.792 108.713L696.772 108.713Z" fill="#E5E7EB"/>
<path d="M696.772 83.6139L696.772 78.594L701.792 78.594L701.792 83.6139L696.772 83.6139Z" fill="#E5E7EB"/>
<path d="M696.772 58.5148L696.772 53.495L701.792 53.495L701.792 58.5148L696.772 58.5148Z" fill="#E5E7EB"/>
<path d="M696.772 33.4158L696.772 28.396L701.792 28.396L701.792 33.4158L696.772 33.4158Z" fill="#E5E7EB"/>
<path d="M696.772 8.31683L696.772 3.29702L701.792 3.29702L701.792 8.31683L696.772 8.31683Z" fill="#E5E7EB"/>
<path d="M696.772 -16.7822L696.772 -21.802L701.792 -21.802L701.792 -16.7822L696.772 -16.7822Z" fill="#E5E7EB"/>
<path d="M696.772 -41.8812L696.772 -46.901L701.792 -46.901L701.792 -41.8812L696.772 -41.8812Z" fill="#E5E7EB"/>
<path d="M696.772 -66.9802L696.772 -72L701.792 -72L701.792 -66.9802L696.772 -66.9802Z" fill="#E5E7EB"/>
<path d="M721.871 435L721.871 429.98L726.891 429.98L726.891 435L721.871 435Z" fill="#E5E7EB"/>
<path d="M721.871 409.901L721.871 404.881L726.891 404.881L726.891 409.901L721.871 409.901Z" fill="#E5E7EB"/>
<path d="M721.871 384.802L721.871 379.782L726.891 379.782L726.891 384.802L721.871 384.802Z" fill="#E5E7EB"/>
<path d="M721.871 359.703L721.871 354.683L726.891 354.683L726.891 359.703L721.871 359.703Z" fill="#E5E7EB"/>
<path d="M721.871 334.604L721.871 329.584L726.891 329.584L726.891 334.604L721.871 334.604Z" fill="#E5E7EB"/>
<path d="M721.871 309.505L721.871 304.485L726.891 304.485L726.891 309.505L721.871 309.505Z" fill="#E5E7EB"/>
<path d="M721.871 284.406L721.871 279.386L726.891 279.386L726.891 284.406L721.871 284.406Z" fill="#E5E7EB"/>
<path d="M721.871 259.307L721.871 254.287L726.891 254.287L726.891 259.307L721.871 259.307Z" fill="#E5E7EB"/>
<path d="M721.871 234.208L721.871 229.188L726.891 229.188L726.891 234.208L721.871 234.208Z" fill="#E5E7EB"/>
<path d="M721.871 209.109L721.871 204.089L726.891 204.089L726.891 209.109L721.871 209.109Z" fill="#E5E7EB"/>
<path d="M721.871 184.01L721.871 178.99L726.891 178.99L726.891 184.01L721.871 184.01Z" fill="#E5E7EB"/>
<path d="M721.871 158.911L721.871 153.891L726.891 153.891L726.891 158.911L721.871 158.911Z" fill="#E5E7EB"/>
<path d="M721.871 133.812L721.871 128.792L726.891 128.792L726.891 133.812L721.871 133.812Z" fill="#E5E7EB"/>
<path d="M721.871 108.713L721.871 103.693L726.891 103.693L726.891 108.713L721.871 108.713Z" fill="#E5E7EB"/>
<path d="M721.871 83.6139L721.871 78.594L726.891 78.594L726.891 83.6139L721.871 83.6139Z" fill="#E5E7EB"/>
<path d="M721.871 58.5148L721.871 53.495L726.891 53.495L726.891 58.5148L721.871 58.5148Z" fill="#E5E7EB"/>
<path d="M721.871 33.4158L721.871 28.396L726.891 28.396L726.891 33.4158L721.871 33.4158Z" fill="#E5E7EB"/>
<path d="M721.871 8.31682L721.871 3.29702L726.891 3.29702L726.891 8.31682L721.871 8.31682Z" fill="#E5E7EB"/>
<path d="M721.871 -16.7822L721.871 -21.802L726.891 -21.802L726.891 -16.7822L721.871 -16.7822Z" fill="#E5E7EB"/>
<path d="M721.871 -41.8812L721.871 -46.901L726.891 -46.901L726.891 -41.8812L721.871 -41.8812Z" fill="#E5E7EB"/>
<path d="M721.871 -66.9802L721.871 -72L726.891 -72L726.891 -66.9802L721.871 -66.9802Z" fill="#E5E7EB"/>
<path d="M746.97 435L746.97 429.98L751.99 429.98L751.99 435L746.97 435Z" fill="#E5E7EB"/>
<path d="M746.97 409.901L746.97 404.881L751.99 404.881L751.99 409.901L746.97 409.901Z" fill="#E5E7EB"/>
<path d="M746.97 384.802L746.97 379.782L751.99 379.782L751.99 384.802L746.97 384.802Z" fill="#E5E7EB"/>
<path d="M746.97 359.703L746.97 354.683L751.99 354.683L751.99 359.703L746.97 359.703Z" fill="#E5E7EB"/>
<path d="M746.97 334.604L746.97 329.584L751.99 329.584L751.99 334.604L746.97 334.604Z" fill="#E5E7EB"/>
<path d="M746.97 309.505L746.97 304.485L751.99 304.485L751.99 309.505L746.97 309.505Z" fill="#E5E7EB"/>
<path d="M746.97 284.406L746.97 279.386L751.99 279.386L751.99 284.406L746.97 284.406Z" fill="#E5E7EB"/>
<path d="M746.97 259.307L746.97 254.287L751.99 254.287L751.99 259.307L746.97 259.307Z" fill="#E5E7EB"/>
<path d="M746.97 234.208L746.97 229.188L751.99 229.188L751.99 234.208L746.97 234.208Z" fill="#E5E7EB"/>
<path d="M746.97 209.109L746.97 204.089L751.99 204.089L751.99 209.109L746.97 209.109Z" fill="#E5E7EB"/>
<path d="M746.97 184.01L746.97 178.99L751.99 178.99L751.99 184.01L746.97 184.01Z" fill="#E5E7EB"/>
<path d="M746.97 158.911L746.97 153.891L751.99 153.891L751.99 158.911L746.97 158.911Z" fill="#E5E7EB"/>
<path d="M746.97 133.812L746.97 128.792L751.99 128.792L751.99 133.812L746.97 133.812Z" fill="#E5E7EB"/>
<path d="M746.97 108.713L746.97 103.693L751.99 103.693L751.99 108.713L746.97 108.713Z" fill="#E5E7EB"/>
<path d="M746.97 83.6139L746.97 78.594L751.99 78.594L751.99 83.6139L746.97 83.6139Z" fill="#E5E7EB"/>
<path d="M746.97 58.5148L746.97 53.495L751.99 53.495L751.99 58.5148L746.97 58.5148Z" fill="#E5E7EB"/>
<path d="M746.97 33.4158L746.97 28.396L751.99 28.396L751.99 33.4158L746.97 33.4158Z" fill="#E5E7EB"/>
<path d="M746.97 8.31682L746.97 3.29702L751.99 3.29702L751.99 8.31682L746.97 8.31682Z" fill="#E5E7EB"/>
<path d="M746.97 -16.7822L746.97 -21.802L751.99 -21.802L751.99 -16.7822L746.97 -16.7822Z" fill="#E5E7EB"/>
<path d="M746.97 -41.8812L746.97 -46.901L751.99 -46.901L751.99 -41.8812L746.97 -41.8812Z" fill="#E5E7EB"/>
<path d="M746.97 -66.9802L746.97 -72L751.99 -72L751.99 -66.9802L746.97 -66.9802Z" fill="#E5E7EB"/>
<path d="M772.069 435L772.069 429.98L777.089 429.98L777.089 435L772.069 435Z" fill="#E5E7EB"/>
<path d="M772.069 409.901L772.069 404.881L777.089 404.881L777.089 409.901L772.069 409.901Z" fill="#E5E7EB"/>
<path d="M772.069 384.802L772.069 379.782L777.089 379.782L777.089 384.802L772.069 384.802Z" fill="#E5E7EB"/>
<path d="M772.069 359.703L772.069 354.683L777.089 354.683L777.089 359.703L772.069 359.703Z" fill="#E5E7EB"/>
<path d="M772.069 334.604L772.069 329.584L777.089 329.584L777.089 334.604L772.069 334.604Z" fill="#E5E7EB"/>
<path d="M772.069 309.505L772.069 304.485L777.089 304.485L777.089 309.505L772.069 309.505Z" fill="#E5E7EB"/>
<path d="M772.069 284.406L772.069 279.386L777.089 279.386L777.089 284.406L772.069 284.406Z" fill="#E5E7EB"/>
<path d="M772.069 259.307L772.069 254.287L777.089 254.287L777.089 259.307L772.069 259.307Z" fill="#E5E7EB"/>
<path d="M772.069 234.208L772.069 229.188L777.089 229.188L777.089 234.208L772.069 234.208Z" fill="#E5E7EB"/>
<path d="M772.069 209.109L772.069 204.089L777.089 204.089L777.089 209.109L772.069 209.109Z" fill="#E5E7EB"/>
<path d="M772.069 184.01L772.069 178.99L777.089 178.99L777.089 184.01L772.069 184.01Z" fill="#E5E7EB"/>
<path d="M772.069 158.911L772.069 153.891L777.089 153.891L777.089 158.911L772.069 158.911Z" fill="#E5E7EB"/>
<path d="M772.069 133.812L772.069 128.792L777.089 128.792L777.089 133.812L772.069 133.812Z" fill="#E5E7EB"/>
<path d="M772.069 108.713L772.069 103.693L777.089 103.693L777.089 108.713L772.069 108.713Z" fill="#E5E7EB"/>
<path d="M772.069 83.6139L772.069 78.594L777.089 78.594L777.089 83.6138L772.069 83.6139Z" fill="#E5E7EB"/>
<path d="M772.069 58.5148L772.069 53.495L777.089 53.495L777.089 58.5148L772.069 58.5148Z" fill="#E5E7EB"/>
<path d="M772.069 33.4158L772.069 28.396L777.089 28.396L777.089 33.4158L772.069 33.4158Z" fill="#E5E7EB"/>
<path d="M772.069 8.31682L772.069 3.29702L777.089 3.29702L777.089 8.31682L772.069 8.31682Z" fill="#E5E7EB"/>
<path d="M772.069 -16.7822L772.069 -21.802L777.089 -21.802L777.089 -16.7822L772.069 -16.7822Z" fill="#E5E7EB"/>
<path d="M772.069 -41.8812L772.069 -46.901L777.089 -46.901L777.089 -41.8812L772.069 -41.8812Z" fill="#E5E7EB"/>
<path d="M772.069 -66.9802L772.069 -72L777.089 -72L777.089 -66.9802L772.069 -66.9802Z" fill="#E5E7EB"/>
<path d="M797.168 435L797.168 429.98L802.188 429.98L802.188 435L797.168 435Z" fill="#E5E7EB"/>
<path d="M797.168 409.901L797.168 404.881L802.188 404.881L802.188 409.901L797.168 409.901Z" fill="#E5E7EB"/>
<path d="M797.168 384.802L797.168 379.782L802.188 379.782L802.188 384.802L797.168 384.802Z" fill="#E5E7EB"/>
<path d="M797.168 359.703L797.168 354.683L802.188 354.683L802.188 359.703L797.168 359.703Z" fill="#E5E7EB"/>
<path d="M797.168 334.604L797.168 329.584L802.188 329.584L802.188 334.604L797.168 334.604Z" fill="#E5E7EB"/>
<path d="M797.168 309.505L797.168 304.485L802.188 304.485L802.188 309.505L797.168 309.505Z" fill="#E5E7EB"/>
<path d="M797.168 284.406L797.168 279.386L802.188 279.386L802.188 284.406L797.168 284.406Z" fill="#E5E7EB"/>
<path d="M797.168 259.307L797.168 254.287L802.188 254.287L802.188 259.307L797.168 259.307Z" fill="#E5E7EB"/>
<path d="M797.168 234.208L797.168 229.188L802.188 229.188L802.188 234.208L797.168 234.208Z" fill="#E5E7EB"/>
<path d="M797.168 209.109L797.168 204.089L802.188 204.089L802.188 209.109L797.168 209.109Z" fill="#E5E7EB"/>
<path d="M797.168 184.01L797.168 178.99L802.188 178.99L802.188 184.01L797.168 184.01Z" fill="#E5E7EB"/>
<path d="M797.168 158.911L797.168 153.891L802.188 153.891L802.188 158.911L797.168 158.911Z" fill="#E5E7EB"/>
<path d="M797.168 133.812L797.168 128.792L802.188 128.792L802.188 133.812L797.168 133.812Z" fill="#E5E7EB"/>
<path d="M797.168 108.713L797.168 103.693L802.188 103.693L802.188 108.713L797.168 108.713Z" fill="#E5E7EB"/>
<path d="M797.168 83.6138L797.168 78.594L802.188 78.594L802.188 83.6138L797.168 83.6138Z" fill="#E5E7EB"/>
<path d="M797.168 58.5148L797.168 53.495L802.188 53.495L802.188 58.5148L797.168 58.5148Z" fill="#E5E7EB"/>
<path d="M797.168 33.4158L797.168 28.396L802.188 28.396L802.188 33.4158L797.168 33.4158Z" fill="#E5E7EB"/>
<path d="M797.168 8.31682L797.168 3.29702L802.188 3.29702L802.188 8.31682L797.168 8.31682Z" fill="#E5E7EB"/>
<path d="M797.168 -16.7822L797.168 -21.802L802.188 -21.802L802.188 -16.7822L797.168 -16.7822Z" fill="#E5E7EB"/>
<path d="M797.168 -41.8812L797.168 -46.901L802.188 -46.901L802.188 -41.8812L797.168 -41.8812Z" fill="#E5E7EB"/>
<path d="M797.168 -66.9802L797.168 -72L802.188 -72L802.188 -66.9802L797.168 -66.9802Z" fill="#E5E7EB"/>
<path d="M822.267 435L822.267 429.98L827.287 429.98L827.287 435L822.267 435Z" fill="#E5E7EB"/>
<path d="M822.267 409.901L822.267 404.881L827.287 404.881L827.287 409.901L822.267 409.901Z" fill="#E5E7EB"/>
<path d="M822.267 384.802L822.267 379.782L827.287 379.782L827.287 384.802L822.267 384.802Z" fill="#E5E7EB"/>
<path d="M822.267 359.703L822.267 354.683L827.287 354.683L827.287 359.703L822.267 359.703Z" fill="#E5E7EB"/>
<path d="M822.267 334.604L822.267 329.584L827.287 329.584L827.287 334.604L822.267 334.604Z" fill="#E5E7EB"/>
<path d="M822.267 309.505L822.267 304.485L827.287 304.485L827.287 309.505L822.267 309.505Z" fill="#E5E7EB"/>
<path d="M822.267 284.406L822.267 279.386L827.287 279.386L827.287 284.406L822.267 284.406Z" fill="#E5E7EB"/>
<path d="M822.267 259.307L822.267 254.287L827.287 254.287L827.287 259.307L822.267 259.307Z" fill="#E5E7EB"/>
<path d="M822.267 234.208L822.267 229.188L827.287 229.188L827.287 234.208L822.267 234.208Z" fill="#E5E7EB"/>
<path d="M822.267 209.109L822.267 204.089L827.287 204.089L827.287 209.109L822.267 209.109Z" fill="#E5E7EB"/>
<path d="M822.267 184.01L822.267 178.99L827.287 178.99L827.287 184.01L822.267 184.01Z" fill="#E5E7EB"/>
<path d="M822.267 158.911L822.267 153.891L827.287 153.891L827.287 158.911L822.267 158.911Z" fill="#E5E7EB"/>
<path d="M822.267 133.812L822.267 128.792L827.287 128.792L827.287 133.812L822.267 133.812Z" fill="#E5E7EB"/>
<path d="M822.267 108.713L822.267 103.693L827.287 103.693L827.287 108.713L822.267 108.713Z" fill="#E5E7EB"/>
<path d="M822.267 83.6138L822.267 78.594L827.287 78.594L827.287 83.6138L822.267 83.6138Z" fill="#E5E7EB"/>
<path d="M822.267 58.5148L822.267 53.495L827.287 53.495L827.287 58.5148L822.267 58.5148Z" fill="#E5E7EB"/>
<path d="M822.267 33.4158L822.267 28.396L827.287 28.396L827.287 33.4158L822.267 33.4158Z" fill="#E5E7EB"/>
<path d="M822.267 8.31682L822.267 3.29701L827.287 3.29701L827.287 8.31682L822.267 8.31682Z" fill="#E5E7EB"/>
<path d="M822.267 -16.7822L822.267 -21.802L827.287 -21.802L827.287 -16.7822L822.267 -16.7822Z" fill="#E5E7EB"/>
<path d="M822.267 -41.8812L822.267 -46.901L827.287 -46.901L827.287 -41.8812L822.267 -41.8812Z" fill="#E5E7EB"/>
<path d="M822.267 -66.9802L822.267 -72L827.287 -72L827.287 -66.9802L822.267 -66.9802Z" fill="#E5E7EB"/>
<path d="M847.366 435L847.366 429.98L852.386 429.98L852.386 435L847.366 435Z" fill="#E5E7EB"/>
<path d="M847.366 409.901L847.366 404.881L852.386 404.881L852.386 409.901L847.366 409.901Z" fill="#E5E7EB"/>
<path d="M847.366 384.802L847.366 379.782L852.386 379.782L852.386 384.802L847.366 384.802Z" fill="#E5E7EB"/>
<path d="M847.366 359.703L847.366 354.683L852.386 354.683L852.386 359.703L847.366 359.703Z" fill="#E5E7EB"/>
<path d="M847.366 334.604L847.366 329.584L852.386 329.584L852.386 334.604L847.366 334.604Z" fill="#E5E7EB"/>
<path d="M847.366 309.505L847.366 304.485L852.386 304.485L852.386 309.505L847.366 309.505Z" fill="#E5E7EB"/>
<path d="M847.366 284.406L847.366 279.386L852.386 279.386L852.386 284.406L847.366 284.406Z" fill="#E5E7EB"/>
<path d="M847.366 259.307L847.366 254.287L852.386 254.287L852.386 259.307L847.366 259.307Z" fill="#E5E7EB"/>
<path d="M847.366 234.208L847.366 229.188L852.386 229.188L852.386 234.208L847.366 234.208Z" fill="#E5E7EB"/>
<path d="M847.366 209.109L847.366 204.089L852.386 204.089L852.386 209.109L847.366 209.109Z" fill="#E5E7EB"/>
<path d="M847.366 184.01L847.366 178.99L852.386 178.99L852.386 184.01L847.366 184.01Z" fill="#E5E7EB"/>
<path d="M847.366 158.911L847.366 153.891L852.386 153.891L852.386 158.911L847.366 158.911Z" fill="#E5E7EB"/>
<path d="M847.366 133.812L847.366 128.792L852.386 128.792L852.386 133.812L847.366 133.812Z" fill="#E5E7EB"/>
<path d="M847.366 108.713L847.366 103.693L852.386 103.693L852.386 108.713L847.366 108.713Z" fill="#E5E7EB"/>
<path d="M847.366 83.6138L847.366 78.594L852.386 78.594L852.386 83.6138L847.366 83.6138Z" fill="#E5E7EB"/>
<path d="M847.366 58.5148L847.366 53.495L852.386 53.495L852.386 58.5148L847.366 58.5148Z" fill="#E5E7EB"/>
<path d="M847.366 33.4158L847.366 28.396L852.386 28.396L852.386 33.4158L847.366 33.4158Z" fill="#E5E7EB"/>
<path d="M847.366 8.31682L847.366 3.29701L852.386 3.29701L852.386 8.31682L847.366 8.31682Z" fill="#E5E7EB"/>
<path d="M847.366 -16.7822L847.366 -21.802L852.386 -21.802L852.386 -16.7822L847.366 -16.7822Z" fill="#E5E7EB"/>
<path d="M847.366 -41.8812L847.366 -46.901L852.386 -46.901L852.386 -41.8812L847.366 -41.8812Z" fill="#E5E7EB"/>
<path d="M847.366 -66.9802L847.366 -72L852.386 -72L852.386 -66.9802L847.366 -66.9802Z" fill="#E5E7EB"/>
<path d="M872.465 435L872.465 429.98L877.485 429.98L877.485 435L872.465 435Z" fill="#E5E7EB"/>
<path d="M872.465 409.901L872.465 404.881L877.485 404.881L877.485 409.901L872.465 409.901Z" fill="#E5E7EB"/>
<path d="M872.465 384.802L872.465 379.782L877.485 379.782L877.485 384.802L872.465 384.802Z" fill="#E5E7EB"/>
<path d="M872.465 359.703L872.465 354.683L877.485 354.683L877.485 359.703L872.465 359.703Z" fill="#E5E7EB"/>
<path d="M872.465 334.604L872.465 329.584L877.485 329.584L877.485 334.604L872.465 334.604Z" fill="#E5E7EB"/>
<path d="M872.465 309.505L872.465 304.485L877.485 304.485L877.485 309.505L872.465 309.505Z" fill="#E5E7EB"/>
<path d="M872.465 284.406L872.465 279.386L877.485 279.386L877.485 284.406L872.465 284.406Z" fill="#E5E7EB"/>
<path d="M872.465 259.307L872.465 254.287L877.485 254.287L877.485 259.307L872.465 259.307Z" fill="#E5E7EB"/>
<path d="M872.465 234.208L872.465 229.188L877.485 229.188L877.485 234.208L872.465 234.208Z" fill="#E5E7EB"/>
<path d="M872.465 209.109L872.465 204.089L877.485 204.089L877.485 209.109L872.465 209.109Z" fill="#E5E7EB"/>
<path d="M872.465 184.01L872.465 178.99L877.485 178.99L877.485 184.01L872.465 184.01Z" fill="#E5E7EB"/>
<path d="M872.465 158.911L872.465 153.891L877.485 153.891L877.485 158.911L872.465 158.911Z" fill="#E5E7EB"/>
<path d="M872.465 133.812L872.465 128.792L877.485 128.792L877.485 133.812L872.465 133.812Z" fill="#E5E7EB"/>
<path d="M872.465 108.713L872.465 103.693L877.485 103.693L877.485 108.713L872.465 108.713Z" fill="#E5E7EB"/>
<path d="M872.465 83.6138L872.465 78.594L877.485 78.594L877.485 83.6138L872.465 83.6138Z" fill="#E5E7EB"/>
<path d="M872.465 58.5148L872.465 53.495L877.485 53.495L877.485 58.5148L872.465 58.5148Z" fill="#E5E7EB"/>
<path d="M872.465 33.4158L872.465 28.396L877.485 28.396L877.485 33.4158L872.465 33.4158Z" fill="#E5E7EB"/>
<path d="M872.465 8.31682L872.465 3.29701L877.485 3.29701L877.485 8.31682L872.465 8.31682Z" fill="#E5E7EB"/>
<path d="M872.465 -16.7822L872.465 -21.802L877.485 -21.802L877.485 -16.7822L872.465 -16.7822Z" fill="#E5E7EB"/>
<path d="M872.465 -41.8812L872.465 -46.901L877.485 -46.901L877.485 -41.8812L872.465 -41.8812Z" fill="#E5E7EB"/>
<path d="M872.465 -66.9802L872.465 -72L877.485 -72L877.485 -66.9802L872.465 -66.9802Z" fill="#E5E7EB"/>
<path d="M897.564 435L897.564 429.98L902.584 429.98L902.584 435L897.564 435Z" fill="#E5E7EB"/>
<path d="M897.564 409.901L897.564 404.881L902.584 404.881L902.584 409.901L897.564 409.901Z" fill="#E5E7EB"/>
<path d="M897.564 384.802L897.564 379.782L902.584 379.782L902.584 384.802L897.564 384.802Z" fill="#E5E7EB"/>
<path d="M897.564 359.703L897.564 354.683L902.584 354.683L902.584 359.703L897.564 359.703Z" fill="#E5E7EB"/>
<path d="M897.564 334.604L897.564 329.584L902.584 329.584L902.584 334.604L897.564 334.604Z" fill="#E5E7EB"/>
<path d="M897.564 309.505L897.564 304.485L902.584 304.485L902.584 309.505L897.564 309.505Z" fill="#E5E7EB"/>
<path d="M897.564 284.406L897.564 279.386L902.584 279.386L902.584 284.406L897.564 284.406Z" fill="#E5E7EB"/>
<path d="M897.564 259.307L897.564 254.287L902.584 254.287L902.584 259.307L897.564 259.307Z" fill="#E5E7EB"/>
<path d="M897.564 234.208L897.564 229.188L902.584 229.188L902.584 234.208L897.564 234.208Z" fill="#E5E7EB"/>
<path d="M897.564 209.109L897.564 204.089L902.584 204.089L902.584 209.109L897.564 209.109Z" fill="#E5E7EB"/>
<path d="M897.564 184.01L897.564 178.99L902.584 178.99L902.584 184.01L897.564 184.01Z" fill="#E5E7EB"/>
<path d="M897.564 158.911L897.564 153.891L902.584 153.891L902.584 158.911L897.564 158.911Z" fill="#E5E7EB"/>
<path d="M897.564 133.812L897.564 128.792L902.584 128.792L902.584 133.812L897.564 133.812Z" fill="#E5E7EB"/>
<path d="M897.564 108.713L897.564 103.693L902.584 103.693L902.584 108.713L897.564 108.713Z" fill="#E5E7EB"/>
<path d="M897.564 83.6138L897.564 78.594L902.584 78.594L902.584 83.6138L897.564 83.6138Z" fill="#E5E7EB"/>
<path d="M897.564 58.5148L897.564 53.495L902.584 53.495L902.584 58.5148L897.564 58.5148Z" fill="#E5E7EB"/>
<path d="M897.564 33.4158L897.564 28.396L902.584 28.396L902.584 33.4158L897.564 33.4158Z" fill="#E5E7EB"/>
<path d="M897.564 8.31682L897.564 3.29701L902.584 3.29701L902.584 8.31682L897.564 8.31682Z" fill="#E5E7EB"/>
<path d="M897.564 -16.7822L897.564 -21.802L902.584 -21.802L902.584 -16.7822L897.564 -16.7822Z" fill="#E5E7EB"/>
<path d="M897.564 -41.8812L897.564 -46.901L902.584 -46.901L902.584 -41.8812L897.564 -41.8812Z" fill="#E5E7EB"/>
<path d="M897.564 -66.9802L897.564 -72L902.584 -72L902.584 -66.9802L897.564 -66.9802Z" fill="#E5E7EB"/>
<path d="M922.663 435L922.663 429.98L927.683 429.98L927.683 435L922.663 435Z" fill="#E5E7EB"/>
<path d="M922.663 409.901L922.663 404.881L927.683 404.881L927.683 409.901L922.663 409.901Z" fill="#E5E7EB"/>
<path d="M922.663 384.802L922.663 379.782L927.683 379.782L927.683 384.802L922.663 384.802Z" fill="#E5E7EB"/>
<path d="M922.663 359.703L922.663 354.683L927.683 354.683L927.683 359.703L922.663 359.703Z" fill="#E5E7EB"/>
<path d="M922.663 334.604L922.663 329.584L927.683 329.584L927.683 334.604L922.663 334.604Z" fill="#E5E7EB"/>
<path d="M922.663 309.505L922.663 304.485L927.683 304.485L927.683 309.505L922.663 309.505Z" fill="#E5E7EB"/>
<path d="M922.663 284.406L922.663 279.386L927.683 279.386L927.683 284.406L922.663 284.406Z" fill="#E5E7EB"/>
<path d="M922.663 259.307L922.663 254.287L927.683 254.287L927.683 259.307L922.663 259.307Z" fill="#E5E7EB"/>
<path d="M922.663 234.208L922.663 229.188L927.683 229.188L927.683 234.208L922.663 234.208Z" fill="#E5E7EB"/>
<path d="M922.663 209.109L922.663 204.089L927.683 204.089L927.683 209.109L922.663 209.109Z" fill="#E5E7EB"/>
<path d="M922.663 184.01L922.663 178.99L927.683 178.99L927.683 184.01L922.663 184.01Z" fill="#E5E7EB"/>
<path d="M922.663 158.911L922.663 153.891L927.683 153.891L927.683 158.911L922.663 158.911Z" fill="#E5E7EB"/>
<path d="M922.663 133.812L922.663 128.792L927.683 128.792L927.683 133.812L922.663 133.812Z" fill="#E5E7EB"/>
<path d="M922.663 108.713L922.663 103.693L927.683 103.693L927.683 108.713L922.663 108.713Z" fill="#E5E7EB"/>
<path d="M922.663 83.6138L922.663 78.594L927.683 78.594L927.683 83.6138L922.663 83.6138Z" fill="#E5E7EB"/>
<path d="M922.663 58.5148L922.663 53.495L927.683 53.495L927.683 58.5148L922.663 58.5148Z" fill="#E5E7EB"/>
<path d="M922.663 33.4158L922.663 28.396L927.683 28.396L927.683 33.4158L922.663 33.4158Z" fill="#E5E7EB"/>
<path d="M922.663 8.31682L922.663 3.29701L927.683 3.29701L927.683 8.31682L922.663 8.31682Z" fill="#E5E7EB"/>
<path d="M922.663 -16.7822L922.663 -21.802L927.683 -21.802L927.683 -16.7822L922.663 -16.7822Z" fill="#E5E7EB"/>
<path d="M922.663 -41.8812L922.663 -46.901L927.683 -46.901L927.683 -41.8812L922.663 -41.8812Z" fill="#E5E7EB"/>
<path d="M922.663 -66.9802L922.663 -72L927.683 -72L927.683 -66.9802L922.663 -66.9802Z" fill="#E5E7EB"/>
<path d="M947.762 435L947.762 429.98L952.782 429.98L952.782 435L947.762 435Z" fill="#E5E7EB"/>
<path d="M947.762 409.901L947.762 404.881L952.782 404.881L952.782 409.901L947.762 409.901Z" fill="#E5E7EB"/>
<path d="M947.762 384.802L947.762 379.782L952.782 379.782L952.782 384.802L947.762 384.802Z" fill="#E5E7EB"/>
<path d="M947.762 359.703L947.762 354.683L952.782 354.683L952.782 359.703L947.762 359.703Z" fill="#E5E7EB"/>
<path d="M947.762 334.604L947.762 329.584L952.782 329.584L952.782 334.604L947.762 334.604Z" fill="#E5E7EB"/>
<path d="M947.762 309.505L947.762 304.485L952.782 304.485L952.782 309.505L947.762 309.505Z" fill="#E5E7EB"/>
<path d="M947.762 284.406L947.762 279.386L952.782 279.386L952.782 284.406L947.762 284.406Z" fill="#E5E7EB"/>
<path d="M947.762 259.307L947.762 254.287L952.782 254.287L952.782 259.307L947.762 259.307Z" fill="#E5E7EB"/>
<path d="M947.762 234.208L947.762 229.188L952.782 229.188L952.782 234.208L947.762 234.208Z" fill="#E5E7EB"/>
<path d="M947.762 209.109L947.762 204.089L952.782 204.089L952.782 209.109L947.762 209.109Z" fill="#E5E7EB"/>
<path d="M947.762 184.01L947.762 178.99L952.782 178.99L952.782 184.01L947.762 184.01Z" fill="#E5E7EB"/>
<path d="M947.762 158.911L947.762 153.891L952.782 153.891L952.782 158.911L947.762 158.911Z" fill="#E5E7EB"/>
<path d="M947.762 133.812L947.762 128.792L952.782 128.792L952.782 133.812L947.762 133.812Z" fill="#E5E7EB"/>
<path d="M947.762 108.713L947.762 103.693L952.782 103.693L952.782 108.713L947.762 108.713Z" fill="#E5E7EB"/>
<path d="M947.762 83.6138L947.762 78.594L952.782 78.594L952.782 83.6138L947.762 83.6138Z" fill="#E5E7EB"/>
<path d="M947.762 58.5148L947.762 53.495L952.782 53.495L952.782 58.5148L947.762 58.5148Z" fill="#E5E7EB"/>
<path d="M947.762 33.4158L947.762 28.396L952.782 28.396L952.782 33.4158L947.762 33.4158Z" fill="#E5E7EB"/>
<path d="M947.762 8.31681L947.762 3.29701L952.782 3.29701L952.782 8.31681L947.762 8.31681Z" fill="#E5E7EB"/>
<path d="M947.762 -16.7822L947.762 -21.802L952.782 -21.802L952.782 -16.7822L947.762 -16.7822Z" fill="#E5E7EB"/>
<path d="M947.762 -41.8812L947.762 -46.901L952.782 -46.901L952.782 -41.8812L947.762 -41.8812Z" fill="#E5E7EB"/>
<path d="M947.762 -66.9802L947.762 -72L952.782 -72L952.782 -66.9802L947.762 -66.9802Z" fill="#E5E7EB"/>
<path d="M972.861 435L972.861 429.98L977.881 429.98L977.881 435L972.861 435Z" fill="#E5E7EB"/>
<path d="M972.861 409.901L972.861 404.881L977.881 404.881L977.881 409.901L972.861 409.901Z" fill="#E5E7EB"/>
<path d="M972.861 384.802L972.861 379.782L977.881 379.782L977.881 384.802L972.861 384.802Z" fill="#E5E7EB"/>
<path d="M972.861 359.703L972.861 354.683L977.881 354.683L977.881 359.703L972.861 359.703Z" fill="#E5E7EB"/>
<path d="M972.861 334.604L972.861 329.584L977.881 329.584L977.881 334.604L972.861 334.604Z" fill="#E5E7EB"/>
<path d="M972.861 309.505L972.861 304.485L977.881 304.485L977.881 309.505L972.861 309.505Z" fill="#E5E7EB"/>
<path d="M972.861 284.406L972.861 279.386L977.881 279.386L977.881 284.406L972.861 284.406Z" fill="#E5E7EB"/>
<path d="M972.861 259.307L972.861 254.287L977.881 254.287L977.881 259.307L972.861 259.307Z" fill="#E5E7EB"/>
<path d="M972.861 234.208L972.861 229.188L977.881 229.188L977.881 234.208L972.861 234.208Z" fill="#E5E7EB"/>
<path d="M972.861 209.109L972.861 204.089L977.881 204.089L977.881 209.109L972.861 209.109Z" fill="#E5E7EB"/>
<path d="M972.861 184.01L972.861 178.99L977.881 178.99L977.881 184.01L972.861 184.01Z" fill="#E5E7EB"/>
<path d="M972.861 158.911L972.861 153.891L977.881 153.891L977.881 158.911L972.861 158.911Z" fill="#E5E7EB"/>
<path d="M972.861 133.812L972.861 128.792L977.881 128.792L977.881 133.812L972.861 133.812Z" fill="#E5E7EB"/>
<path d="M972.861 108.713L972.861 103.693L977.881 103.693L977.881 108.713L972.861 108.713Z" fill="#E5E7EB"/>
<path d="M972.861 83.6138L972.861 78.594L977.881 78.594L977.881 83.6138L972.861 83.6138Z" fill="#E5E7EB"/>
<path d="M972.861 58.5148L972.861 53.495L977.881 53.495L977.881 58.5148L972.861 58.5148Z" fill="#E5E7EB"/>
<path d="M972.861 33.4158L972.861 28.396L977.881 28.396L977.881 33.4158L972.861 33.4158Z" fill="#E5E7EB"/>
<path d="M972.861 8.31681L972.861 3.29701L977.881 3.29701L977.881 8.31681L972.861 8.31681Z" fill="#E5E7EB"/>
<path d="M972.861 -16.7822L972.861 -21.802L977.881 -21.802L977.881 -16.7822L972.861 -16.7822Z" fill="#E5E7EB"/>
<path d="M972.861 -41.8812L972.861 -46.901L977.881 -46.901L977.881 -41.8812L972.861 -41.8812Z" fill="#E5E7EB"/>
<path d="M972.861 -66.9802L972.861 -72L977.881 -72L977.881 -66.9802L972.861 -66.9802Z" fill="#E5E7EB"/>
<path d="M997.96 435L997.96 429.98L1002.98 429.98L1002.98 435L997.96 435Z" fill="#E5E7EB"/>
<path d="M997.96 409.901L997.96 404.881L1002.98 404.881L1002.98 409.901L997.96 409.901Z" fill="#E5E7EB"/>
<path d="M997.96 384.802L997.96 379.782L1002.98 379.782L1002.98 384.802L997.96 384.802Z" fill="#E5E7EB"/>
<path d="M997.96 359.703L997.96 354.683L1002.98 354.683L1002.98 359.703L997.96 359.703Z" fill="#E5E7EB"/>
<path d="M997.96 334.604L997.96 329.584L1002.98 329.584L1002.98 334.604L997.96 334.604Z" fill="#E5E7EB"/>
<path d="M997.96 309.505L997.96 304.485L1002.98 304.485L1002.98 309.505L997.96 309.505Z" fill="#E5E7EB"/>
<path d="M997.96 284.406L997.96 279.386L1002.98 279.386L1002.98 284.406L997.96 284.406Z" fill="#E5E7EB"/>
<path d="M997.96 259.307L997.96 254.287L1002.98 254.287L1002.98 259.307L997.96 259.307Z" fill="#E5E7EB"/>
<path d="M997.96 234.208L997.96 229.188L1002.98 229.188L1002.98 234.208L997.96 234.208Z" fill="#E5E7EB"/>
<path d="M997.96 209.109L997.96 204.089L1002.98 204.089L1002.98 209.109L997.96 209.109Z" fill="#E5E7EB"/>
<path d="M997.96 184.01L997.96 178.99L1002.98 178.99L1002.98 184.01L997.96 184.01Z" fill="#E5E7EB"/>
<path d="M997.96 158.911L997.96 153.891L1002.98 153.891L1002.98 158.911L997.96 158.911Z" fill="#E5E7EB"/>
<path d="M997.96 133.812L997.96 128.792L1002.98 128.792L1002.98 133.812L997.96 133.812Z" fill="#E5E7EB"/>
<path d="M997.96 108.713L997.96 103.693L1002.98 103.693L1002.98 108.713L997.96 108.713Z" fill="#E5E7EB"/>
<path d="M997.96 83.6138L997.96 78.594L1002.98 78.594L1002.98 83.6138L997.96 83.6138Z" fill="#E5E7EB"/>
<path d="M997.96 58.5148L997.96 53.495L1002.98 53.495L1002.98 58.5148L997.96 58.5148Z" fill="#E5E7EB"/>
<path d="M997.96 33.4158L997.96 28.396L1002.98 28.396L1002.98 33.4158L997.96 33.4158Z" fill="#E5E7EB"/>
<path d="M997.96 8.31681L997.96 3.29701L1002.98 3.29701L1002.98 8.31681L997.96 8.31681Z" fill="#E5E7EB"/>
<path d="M997.96 -16.7822L997.96 -21.802L1002.98 -21.802L1002.98 -16.7822L997.96 -16.7822Z" fill="#E5E7EB"/>
<path d="M997.96 -41.8812L997.96 -46.901L1002.98 -46.901L1002.98 -41.8812L997.96 -41.8812Z" fill="#E5E7EB"/>
<path d="M997.96 -66.9802L997.96 -72L1002.98 -72L1002.98 -66.9802L997.96 -66.9802Z" fill="#E5E7EB"/>
<path d="M1023.06 435L1023.06 429.98L1028.08 429.98L1028.08 435L1023.06 435Z" fill="#E5E7EB"/>
<path d="M1023.06 409.901L1023.06 404.881L1028.08 404.881L1028.08 409.901L1023.06 409.901Z" fill="#E5E7EB"/>
<path d="M1023.06 384.802L1023.06 379.782L1028.08 379.782L1028.08 384.802L1023.06 384.802Z" fill="#E5E7EB"/>
<path d="M1023.06 359.703L1023.06 354.683L1028.08 354.683L1028.08 359.703L1023.06 359.703Z" fill="#E5E7EB"/>
<path d="M1023.06 334.604L1023.06 329.584L1028.08 329.584L1028.08 334.604L1023.06 334.604Z" fill="#E5E7EB"/>
<path d="M1023.06 309.505L1023.06 304.485L1028.08 304.485L1028.08 309.505L1023.06 309.505Z" fill="#E5E7EB"/>
<path d="M1023.06 284.406L1023.06 279.386L1028.08 279.386L1028.08 284.406L1023.06 284.406Z" fill="#E5E7EB"/>
<path d="M1023.06 259.307L1023.06 254.287L1028.08 254.287L1028.08 259.307L1023.06 259.307Z" fill="#E5E7EB"/>
<path d="M1023.06 234.208L1023.06 229.188L1028.08 229.188L1028.08 234.208L1023.06 234.208Z" fill="#E5E7EB"/>
<path d="M1023.06 209.109L1023.06 204.089L1028.08 204.089L1028.08 209.109L1023.06 209.109Z" fill="#E5E7EB"/>
<path d="M1023.06 184.01L1023.06 178.99L1028.08 178.99L1028.08 184.01L1023.06 184.01Z" fill="#E5E7EB"/>
<path d="M1023.06 158.911L1023.06 153.891L1028.08 153.891L1028.08 158.911L1023.06 158.911Z" fill="#E5E7EB"/>
<path d="M1023.06 133.812L1023.06 128.792L1028.08 128.792L1028.08 133.812L1023.06 133.812Z" fill="#E5E7EB"/>
<path d="M1023.06 108.713L1023.06 103.693L1028.08 103.693L1028.08 108.713L1023.06 108.713Z" fill="#E5E7EB"/>
<path d="M1023.06 83.6138L1023.06 78.594L1028.08 78.594L1028.08 83.6138L1023.06 83.6138Z" fill="#E5E7EB"/>
<path d="M1023.06 58.5148L1023.06 53.495L1028.08 53.495L1028.08 58.5148L1023.06 58.5148Z" fill="#E5E7EB"/>
<path d="M1023.06 33.4158L1023.06 28.396L1028.08 28.396L1028.08 33.4158L1023.06 33.4158Z" fill="#E5E7EB"/>
<path d="M1023.06 8.31681L1023.06 3.29701L1028.08 3.29701L1028.08 8.31681L1023.06 8.31681Z" fill="#E5E7EB"/>
<path d="M1023.06 -16.7822L1023.06 -21.802L1028.08 -21.802L1028.08 -16.7822L1023.06 -16.7822Z" fill="#E5E7EB"/>
<path d="M1023.06 -41.8812L1023.06 -46.901L1028.08 -46.901L1028.08 -41.8812L1023.06 -41.8812Z" fill="#E5E7EB"/>
<path d="M1023.06 -66.9802L1023.06 -72L1028.08 -72L1028.08 -66.9802L1023.06 -66.9802Z" fill="#E5E7EB"/>
</g>
<defs>
<clipPath id="clip0_2517_18840">
<rect width="373" height="999" fill="white" transform="translate(0 373) rotate(-90)"/>
</clipPath>
</defs>
</svg>
