<svg width="230" height="252" viewBox="0 0 230 252" fill="none" xmlns="http://www.w3.org/2000/svg">
<g id="Frame" clip-path="url(#clip0_2517_18687)">
<g id="Envelope 3">
<g id="Letter 4">
<g id="XMLID 61">
<g id="XMLID 62">
<path id="XMLID 63" d="M0 88.827C0 86.9339 1.33656 84.7068 2.89588 83.8159L145.685 1.41131C147.245 0.520449 149.918 0.520449 151.477 1.41131L154.707 3.30439C156.266 4.19525 157.603 6.4224 157.603 8.31548V121.789C157.603 123.571 156.266 125.909 154.707 126.8L11.9177 209.205C10.3584 210.095 7.68523 210.095 6.12591 209.205L2.89588 207.311C1.33656 206.421 0 204.082 0 202.3V88.827Z" fill="#37C3DD"/>
</g>
</g>
<g id="XMLID 58" opacity="0.7">
<g id="XMLID 59" opacity="0.7">
<path id="XMLID 60" opacity="0.7" d="M0 88.827C0 86.9339 1.33656 84.7068 2.89588 83.8159L145.685 1.41131C147.245 0.520449 149.918 0.520449 151.477 1.41131L154.707 3.30439C156.266 4.19525 157.603 6.4224 157.603 8.31548V121.789C157.603 123.571 156.266 125.909 154.707 126.8L11.9177 209.205C10.3584 210.095 7.68523 210.095 6.12591 209.205L2.89588 207.311C1.33656 206.421 0 204.082 0 202.3V88.827Z" fill="white"/>
</g>
</g>
<path id="XMLID 57" d="M0.891113 86.0431L9.13324 90.8315L156.712 5.53154C156.155 4.64068 155.487 3.86118 154.707 3.41575L151.477 1.41131C149.918 0.520449 147.245 0.520449 145.685 1.41131L2.89596 83.8159C2.11629 84.2614 1.33663 85.0409 0.891113 86.0431Z" fill="#37C3DD"/>
<path id="XMLID 56" opacity="0.8" d="M0.891113 86.0431L9.13324 90.8315L156.712 5.53154C156.155 4.64068 155.487 3.86118 154.707 3.41575L151.477 1.41131C149.918 0.520449 147.245 0.520449 145.685 1.41131L2.89596 83.8159C2.11629 84.2614 1.33663 85.0409 0.891113 86.0431Z" fill="white"/>
<path id="XMLID 55" opacity="0.1" d="M0 88.8269V202.3C0 204.193 1.33656 206.421 2.89588 207.311L6.12591 209.205C6.34867 209.316 6.68281 209.427 6.90557 209.539C7.23971 209.65 7.68523 209.761 8.13075 209.761C8.91041 209.873 9.69007 209.873 10.4697 209.65C10.6925 209.65 10.8039 209.539 11.0266 209.539C11.138 209.539 11.2494 209.427 11.3608 209.427C10.8039 209.65 10.3584 209.539 9.91283 209.427C9.35593 209.093 9.02179 208.536 9.02179 207.534V94.0607C9.02179 92.8358 9.57869 91.9449 10.5811 91.6109L9.02179 90.72L0.779661 85.9316C0.33414 86.9339 0 87.9361 0 88.8269Z" fill="#37C3DD"/>
<path id="XMLID 54" opacity="0.05" d="M0 88.8269V202.3C0 204.193 1.33656 206.421 2.89588 207.311L6.12591 209.205C6.34867 209.316 6.68281 209.427 6.90557 209.539C7.23971 209.65 7.68523 209.761 8.13075 209.761C8.91041 209.873 9.69007 209.873 10.4697 209.65C10.6925 209.65 10.8039 209.539 11.0266 209.539C11.138 209.539 11.2494 209.427 11.3608 209.427C10.8039 209.65 10.3584 209.539 9.91283 209.427C9.35593 209.093 9.02179 208.536 9.02179 207.534V94.0607C9.02179 92.8358 9.57869 91.9449 10.5811 91.6109L9.02179 90.72L0.779661 85.9316C0.33414 86.9339 0 87.9361 0 88.8269Z" fill="black"/>
<path id="XMLID 53" opacity="0.2" d="M9.02173 90.7198L77.6319 116.332C82.5326 118.114 87.9903 116.332 90.8861 111.989L101.913 95.1741L156.823 5.53125L104.029 95.7309L157.603 121.789C157.603 122.679 157.269 123.793 156.712 124.684L103.918 96.065L91.1089 116.555C88.213 121.232 82.1985 123.125 77.1864 120.786L68.0532 116.777L9.91277 209.427C9.35587 209.093 9.02173 208.536 9.02173 207.534V205.641L67.7191 116.666L9.02173 90.7198Z" fill="#37C3DD"/>
<path id="XMLID 52" opacity="0.05" d="M9.02173 90.7198L77.6319 116.332C82.5326 118.114 87.9903 116.332 90.8861 111.989L101.913 95.1741L156.823 5.53125L104.029 95.7309L157.603 121.789C157.603 122.679 157.269 123.793 156.712 124.684L103.918 96.065L91.1089 116.555C88.213 121.232 82.1985 123.125 77.1864 120.786L68.0532 116.777L9.91277 209.427C9.35587 209.093 9.02173 208.536 9.02173 207.534V205.641L67.7191 116.666L9.02173 90.7198Z" fill="black"/>
</g>
</g>
<g id="Envelope 2">
<g id="Letter 3">
<g id="XMLID 49">
<g id="XMLID 50">
<path id="XMLID 51" d="M36.1985 109.763C36.1985 107.869 37.535 105.642 39.0944 104.751L181.884 22.3469C183.443 21.456 186.116 21.456 187.675 22.3469L190.906 24.2399C192.465 25.1308 193.801 27.3579 193.801 29.251V142.724C193.801 144.506 192.465 146.845 190.906 147.736L48.1162 230.14C46.5568 231.031 43.8837 231.031 42.3244 230.14L39.0944 228.247C37.535 227.356 36.1985 225.018 36.1985 223.236V109.763Z" fill="#37C3DD"/>
</g>
</g>
<g id="XMLID 46" opacity="0.5">
<g id="XMLID 47" opacity="0.5">
<path id="XMLID 48" opacity="0.5" d="M36.1985 109.763C36.1985 107.869 37.535 105.642 39.0944 104.751L181.884 22.3469C183.443 21.456 186.116 21.456 187.675 22.3469L190.906 24.2399C192.465 25.1308 193.801 27.3579 193.801 29.251V142.724C193.801 144.506 192.465 146.845 190.906 147.736L48.1162 230.14C46.5568 231.031 43.8837 231.031 42.3244 230.14L39.0944 228.247C37.535 227.356 36.1985 225.018 36.1985 223.236V109.763Z" fill="white"/>
</g>
</g>
<path id="XMLID 45" d="M37.0896 106.867L45.3317 111.656L192.91 26.3557C192.354 25.4649 191.685 24.6854 190.906 24.2399L187.676 22.3469C186.116 21.456 183.443 21.456 181.884 22.3469L39.0944 104.751C38.3148 105.197 37.5351 105.976 37.0896 106.867Z" fill="#37C3DD"/>
<path id="XMLID 44" opacity="0.6" d="M37.0896 106.867L45.3317 111.656L192.91 26.3557C192.354 25.4649 191.685 24.6854 190.906 24.2399L187.676 22.3469C186.116 21.456 183.443 21.456 181.884 22.3469L39.0944 104.751C38.3148 105.197 37.5351 105.976 37.0896 106.867Z" fill="white"/>
<path id="XMLID 43" opacity="0.1" d="M36.1985 109.762V223.236C36.1985 225.129 37.535 227.356 39.0944 228.247L42.3244 230.14C42.5472 230.251 42.8813 230.363 43.1041 230.474C43.4382 230.585 43.8837 230.697 44.3292 230.697C45.1089 230.808 45.8886 230.808 46.6682 230.585C46.891 230.585 47.0024 230.474 47.2251 230.474C47.3365 230.474 47.4479 230.363 47.5593 230.363C47.0024 230.585 46.5568 230.474 46.2227 230.363C45.6658 230.029 45.3317 229.472 45.3317 228.47V114.996C45.3317 113.771 45.8886 112.88 46.891 112.546L45.3317 111.656L37.0895 106.867C36.5326 107.869 36.1985 108.872 36.1985 109.762Z" fill="black"/>
<path id="XMLID 42" opacity="0.4" d="M45.2202 111.655L113.83 137.268C118.731 139.049 124.189 137.268 127.085 132.925L138.111 116.11L192.91 26.3555L140.227 116.666L193.801 142.724C193.801 143.615 193.467 144.729 192.91 145.619L140.116 116.889L127.307 137.379C124.411 142.056 118.397 143.949 113.385 141.611L104.252 137.602L46.2226 230.251C45.6657 229.917 45.3316 229.36 45.3316 228.358V226.465L104.029 137.49L45.2202 111.655Z" fill="#37C3DD"/>
<path id="XMLID 41" opacity="0.05" d="M45.2202 111.655L113.83 137.268C118.731 139.049 124.189 137.268 127.085 132.925L138.111 116.11L192.91 26.3555L140.227 116.666L193.801 142.724C193.801 143.615 193.467 144.729 192.91 145.619L140.116 116.889L127.307 137.379C124.411 142.056 118.397 143.949 113.385 141.611L104.252 137.602L46.2226 230.251C45.6657 229.917 45.3316 229.36 45.3316 228.358V226.465L104.029 137.49L45.2202 111.655Z" fill="black"/>
</g>
</g>
<g id="Open Envelope 2">
<g id="XMLID 23">
<path id="XMLID 40" d="M72.7312 131.588L221.312 45.8428L227.215 49.2949C228.775 50.1857 230 52.4129 230 54.0832V163.659C230 165.441 228.775 167.557 227.215 168.447L84.2034 251.075C82.644 251.966 80.1937 251.966 78.6343 251.075L75.5157 249.293C73.9564 248.402 72.7312 246.175 72.7312 244.505V131.588Z" fill="#37C3DD"/>
<path id="XMLID 39" opacity="0.2" d="M72.7312 131.588L221.312 45.8428L227.215 49.2949C228.775 50.1857 230 52.4129 230 54.0832V163.659C230 165.441 228.775 167.557 227.215 168.447L84.2034 251.075C82.644 251.966 80.1937 251.966 78.6343 251.075L75.5157 249.293C73.9564 248.402 72.7312 246.175 72.7312 244.505V131.588Z" fill="black"/>
<path id="XMLID 38" d="M220.421 36.1551L220.978 35.821L218.639 34.4847C218.416 34.3733 218.194 34.262 217.971 34.1506L152.702 9.98602C150.92 9.31788 148.692 10.0974 147.69 11.545L74.6247 118.448C73.6222 120.007 72.7312 122.68 72.7312 124.573C72.7312 127.58 72.7312 131.7 72.7312 131.7L74.9588 133.036L221.201 45.9545V38.8276C221.201 37.8254 220.978 36.9346 220.421 36.1551Z" fill="#37C3DD"/>
<path id="XMLID 37" opacity="0.1" d="M150.697 12.1019C150.363 12.3246 150.14 12.6587 149.918 12.8814L76.8522 119.673C76.2953 120.453 75.8498 121.566 75.5157 122.68L73.2881 121.344C73.3995 120.787 73.6222 120.23 73.845 119.785C73.9564 119.562 74.0677 119.339 74.1791 119.117C74.1791 119.117 74.1791 119.005 74.2905 119.005C74.4019 118.782 74.5133 118.56 74.6246 118.337L147.801 11.5451C147.913 11.4338 148.024 11.2111 148.136 11.0997C148.247 10.9883 148.358 10.877 148.581 10.7656L150.697 12.1019Z" fill="black"/>
<path id="XMLID 36" opacity="0.35" d="M220.978 35.821C220.755 35.7096 220.533 35.5982 220.31 35.4869L155.041 11.3223C153.705 10.7655 151.922 11.2109 150.809 12.1018L148.581 10.7655C149.806 9.76328 151.477 9.42921 152.814 9.986L218.194 34.262C218.416 34.3733 218.639 34.4847 218.862 34.596L220.978 35.821Z" fill="white"/>
<g id="XMLID 26">
<path id="XMLID 35" d="M74.1792 119.005C74.2906 118.782 74.402 118.56 74.6247 118.337C74.402 118.56 74.2906 118.782 74.1792 119.005Z" fill="#37C3DD"/>
<path id="XMLID 34" d="M148.135 11.211C148.247 11.0997 148.358 10.9883 148.581 10.877C148.358 10.877 148.247 10.9883 148.135 11.211Z" fill="#37C3DD"/>
<path id="XMLID 33" d="M73.1768 121.455C73.3995 120.898 73.5109 120.341 73.7337 119.784C73.6223 120.341 73.3995 120.898 73.1768 121.455Z" fill="#37C3DD"/>
<path id="XMLID 32" d="M73.845 119.784C73.9564 119.562 74.0677 119.339 74.1791 119.116C74.0677 119.339 73.9564 119.562 73.845 119.784Z" fill="#37C3DD"/>
<path id="XMLID 27" opacity="0.2" d="M147.69 11.6564C147.802 11.545 147.913 11.3223 148.024 11.2109C147.913 11.3223 147.802 11.4337 147.69 11.6564Z" fill="black"/>
</g>
<path id="XMLID 25" d="M150.029 12.881L76.8522 119.673C75.8498 121.232 74.9587 123.904 74.9587 125.798C74.9587 128.804 74.9587 132.924 74.9587 132.924L223.54 47.1791V40.0522C223.54 38.1591 222.092 36.1547 220.421 35.5979L155.041 11.322C153.259 10.6538 151.031 11.4333 150.029 12.881Z" fill="#37C3DD"/>
<path id="XMLID 24" opacity="0.05" d="M223.54 40.0524C223.54 39.1615 223.206 38.2707 222.76 37.6025L75.5156 122.791C75.1815 123.793 74.9587 124.907 74.9587 125.798C74.9587 128.804 74.9587 132.925 74.9587 132.925L223.54 47.1793V40.0524Z" fill="black"/>
</g>
<g id="Group">
<path id="Vector" d="M217.191 9.98628C217.191 9.20678 216.969 8.64999 216.523 8.42727C216.078 8.20456 212.402 6.08876 211.957 5.75469C211.511 5.53197 210.954 5.53197 210.286 5.9774L88.436 76.244C87.0994 77.0235 85.9856 78.9166 85.9856 80.4756V226.354C85.9856 227.134 86.2084 227.69 86.6539 227.913C87.0994 228.136 90.7749 230.252 91.2205 230.474C91.666 230.697 92.2229 230.697 92.8912 230.252L214.741 159.985C216.078 159.205 217.191 157.312 217.191 155.865V9.98628Z" fill="#F0F0F0"/>
<path id="Vector_2" d="M92.8913 230.363L214.741 159.985C216.078 159.206 217.192 157.313 217.192 155.754V9.87509C217.192 8.31608 216.078 7.7593 214.741 8.42744L92.8913 78.9168C91.5547 79.6963 90.4409 81.5894 90.4409 83.1484V229.027C90.5523 230.475 91.5547 231.143 92.8913 230.363Z" fill="#FAFAFA"/>
<g id="XMLID 19">
<path id="XMLID 20" d="M170.969 92.2794C170.857 94.0611 170.523 95.6201 170.078 97.1792C169.632 98.7382 168.964 100.074 168.296 101.299C167.627 102.524 166.848 103.527 165.957 104.417C165.066 105.308 164.286 105.976 163.395 106.422C161.836 107.201 160.722 107.535 159.831 107.313C159.051 107.09 158.383 106.756 158.049 106.199C157.826 106.756 157.492 107.313 157.269 107.981C156.935 108.538 156.601 109.094 156.155 109.763C155.71 110.319 155.153 110.876 154.484 111.433C153.816 111.99 153.037 112.547 152.034 112.992C150.92 113.549 149.918 113.771 149.027 113.549C148.136 113.326 147.356 112.881 146.799 111.99C146.242 111.099 145.797 109.985 145.463 108.426C145.129 106.979 145.129 105.197 145.129 103.081C145.24 101.077 145.463 99.0722 145.908 97.2905C146.354 95.3974 146.799 93.7271 147.468 92.2794C148.136 90.7204 148.915 89.3841 149.807 88.2705C150.698 87.157 151.811 86.2661 152.925 85.7093C154.15 85.0412 155.041 84.8185 155.71 85.1525C156.267 85.3753 156.823 85.8207 157.158 86.4888V85.932C157.158 85.4866 157.269 84.9298 157.603 84.4844C157.826 84.039 158.16 83.7049 158.494 83.4822L160.833 82.2572C161.167 82.0345 161.501 82.1459 161.724 82.3686C161.947 82.5913 162.058 82.9254 162.058 83.4822L161.501 97.7359C161.501 98.8495 161.613 99.5177 162.058 99.8517C162.504 100.186 163.061 100.186 163.618 99.8517C164.175 99.5177 164.731 98.9609 165.288 98.1814C165.734 97.4019 166.068 96.1769 166.179 94.7293C166.291 93.5044 166.402 92.1681 166.402 90.9431C166.402 89.6068 166.514 88.3819 166.402 87.2683C166.291 84.9298 166.068 82.9254 165.511 81.3664C164.954 79.8074 164.286 78.6938 163.284 77.9143C162.281 77.2461 161.056 76.9121 159.497 77.1348C157.937 77.2461 156.155 77.9143 154.039 79.0279C152.257 79.9187 150.698 81.1437 149.25 82.5913C147.802 84.039 146.576 85.7093 145.463 87.491C144.349 89.2728 143.569 91.2772 142.901 93.393C142.233 95.5088 141.787 97.7359 141.453 99.9631C141.342 100.52 141.342 101.411 141.23 102.302C141.23 103.304 141.119 104.306 141.119 105.308C141.119 106.31 141.007 107.313 141.007 108.315C141.007 109.317 141.007 110.097 141.007 110.653C141.119 112.658 141.453 114.44 142.01 115.887C142.567 117.335 143.346 118.448 144.237 119.339C145.24 120.119 146.354 120.564 147.69 120.564C149.027 120.564 150.586 120.119 152.368 119.228C153.593 118.56 154.707 117.892 155.598 117.335C156.489 116.667 157.38 115.999 158.049 115.33C158.717 114.662 159.385 113.994 159.831 113.437C160.388 112.769 160.833 112.212 161.167 111.544C161.501 110.987 161.836 110.653 161.947 110.319C162.17 110.097 162.392 109.874 162.727 109.651L166.068 107.869C166.402 107.647 166.736 107.758 166.959 107.869C167.182 108.092 167.293 108.426 167.293 109.094C167.293 109.428 167.182 109.874 166.959 110.208C166.291 111.433 165.511 112.769 164.62 114.217C163.729 115.665 162.727 117.001 161.613 118.337C160.499 119.673 159.051 121.01 157.492 122.235C155.932 123.571 154.039 124.684 151.923 125.798C149.25 127.134 146.911 127.802 145.017 127.691C143.012 127.58 141.453 126.912 140.116 125.687C138.78 124.462 137.777 122.791 137.109 120.564C136.441 118.448 135.995 115.999 135.995 113.215C135.995 112.658 135.995 111.767 135.995 110.765C135.995 109.763 136.107 108.649 136.107 107.535C136.107 106.422 136.218 105.308 136.218 104.306C136.218 103.304 136.33 102.413 136.33 101.856C136.552 98.9609 137.109 96.0656 138 93.1703C138.891 90.1636 140.116 87.3797 141.564 84.7071C143.012 82.0345 144.794 79.5847 146.911 77.3575C149.027 75.1304 151.366 73.3486 154.039 72.0123C157.158 70.4533 159.719 69.6738 161.947 69.6738C164.063 69.6738 165.734 70.2306 167.07 71.4555C168.407 72.6805 169.298 74.3508 169.966 76.578C170.523 78.8051 170.857 81.3664 170.969 84.1503C170.969 85.2639 170.969 86.6002 170.857 88.1592C171.191 89.7182 171.08 91.0545 170.969 92.2794ZM150.141 100.409C150.029 102.636 150.252 104.195 150.809 105.086C151.366 105.976 152.145 106.199 153.259 105.642C154.373 105.086 155.264 104.083 155.821 102.524C156.378 101.077 156.823 99.1836 156.823 96.9564C156.935 94.7293 156.712 93.1703 156.155 92.2794C155.598 91.3886 154.819 91.1658 153.705 91.7226C152.591 92.2794 151.811 93.2816 151.143 94.8406C150.586 96.3997 150.141 98.2927 150.141 100.409Z" fill="#37C3DD"/>
</g>
<path id="Vector_3" d="M90.4408 229.026C90.4408 229.694 90.6636 230.251 90.9977 230.474C90.218 230.028 86.988 228.135 86.6539 227.913C86.2084 227.69 85.9856 227.133 85.9856 226.354V80.4752C85.9856 79.6957 86.2084 78.9162 86.6539 78.1367L91.2205 80.6979C90.7749 81.4774 90.5522 82.3683 90.5522 83.0365V229.026H90.4408Z" fill="#E0E0E0"/>
</g>
<g id="XMLID 1">
<path id="XMLID 18" d="M226.213 165.107C226.213 165.218 226.102 165.218 226.102 165.33L164.174 145.731C159.274 143.615 153.593 145.285 150.809 149.851L84.649 248.18L82.1986 249.627C81.419 250.073 80.7507 250.073 80.3052 249.85L148.358 148.515C151.143 143.949 156.935 142.279 161.724 144.395L226.213 165.107Z" fill="#37C3DD"/>
<path id="XMLID 17" opacity="0.4" d="M144.683 159.539L144.794 159.428L84.649 248.18L82.1986 249.628C81.419 250.073 80.7507 250.073 80.3052 249.85L142.344 158.092L144.683 159.539Z" fill="white"/>
<path id="XMLID 16" opacity="0.4" d="M226.213 165.107C226.213 165.218 226.102 165.218 226.102 165.33L164.174 145.731C159.274 143.615 153.593 145.285 150.809 149.851L148.358 148.403C151.143 143.949 156.823 142.167 161.724 144.283L226.213 165.107Z" fill="white"/>
<path id="XMLID 15" d="M229.889 53.4158C229.777 52.6363 229.332 52.4136 228.775 52.7476C228.552 52.859 228.329 53.1931 228.107 53.5271L227.773 53.9726L166.736 146.845L157.603 159.54C156.601 160.987 154.373 161.878 152.591 161.433L144.683 159.54L84.5376 137.379C84.0921 137.268 83.6466 137.268 83.3125 137.379C83.2011 137.379 82.9783 137.491 82.8669 137.491L85.0945 136.154L142.678 157.312L150.252 159.985C152.034 160.43 154.262 159.54 155.264 158.092L164.397 145.397L225.768 52.0795C225.99 51.7454 226.213 51.6341 226.436 51.4113L221.09 48.2933L223.317 46.957L226.993 49.0728C228.552 50.075 229.666 51.7454 229.889 53.4158Z" fill="#37C3DD"/>
<path id="XMLID 14" opacity="0.4" d="M166.736 146.734L157.603 159.428C156.601 160.876 154.373 161.767 152.591 161.322L144.683 159.428L144.794 159.317L145.128 158.76L150.252 159.985C152.034 160.431 154.262 159.54 155.264 158.092L164.286 145.509L166.736 146.734Z" fill="white"/>
<path id="XMLID 13" opacity="0.1" d="M227.216 49.2955L223.54 47.1797L221.312 48.4046L226.659 51.5226C226.436 51.7453 226.102 51.8567 225.99 52.1908L164.62 145.508L164.509 145.62L166.736 146.845L227.884 53.9725L228.218 53.5271C228.441 53.193 228.663 52.9703 228.886 52.7476C229.443 52.4135 229.889 52.6362 230 53.4157C229.666 51.7453 228.552 50.075 227.216 49.2955Z" fill="black"/>
<path id="XMLID 12" d="M85.7627 139.161L72.6199 131.589V244.394C72.6199 246.176 73.8451 248.292 75.4044 249.182L78.523 250.964C80.0823 251.855 82.5327 251.855 84.092 250.964L85.7627 250.185V139.161Z" fill="#37C3DD"/>
<path id="XMLID 11" opacity="0.15" d="M85.7627 139.161L72.6199 131.589V244.394C72.6199 246.176 73.8451 248.292 75.4044 249.182L78.523 250.964C80.0823 251.855 82.5327 251.855 84.092 250.964L85.7627 250.185V139.161Z" fill="black"/>
<path id="XMLID 10" d="M230 54.0837V163.66C230 164.55 229.666 165.553 229.109 166.444C228.664 167.223 228.107 167.891 227.438 168.337H227.327C227.216 168.337 227.216 168.448 227.104 168.448L84.2034 251.075C83.4238 251.521 82.7555 251.521 82.31 251.298C81.8645 251.075 81.5303 250.63 81.4189 249.962C81.4189 249.85 81.4189 249.628 81.4189 249.516V139.94C81.4189 138.159 82.8669 137.045 84.5376 137.491L144.683 159.651L152.591 161.544C154.373 161.989 156.601 161.098 157.603 159.651L166.736 146.956L227.772 54.0837L228.107 53.6383C229.109 52.0793 230 52.302 230 54.0837Z" fill="#37C3DD"/>
<path id="XMLID 9" d="M227.215 168.559C227.327 168.559 227.327 168.448 227.438 168.448L227.55 168.337C228.218 167.891 228.775 167.223 229.22 166.555C229.777 165.664 230.111 164.662 230.111 163.771L166.847 146.845L209.172 179.027L227.215 168.559Z" fill="#37C3DD"/>
<path id="XMLID 8" opacity="0.2" d="M227.215 168.559C227.327 168.559 227.327 168.448 227.438 168.448L227.55 168.337C228.218 167.891 228.775 167.223 229.22 166.555C229.777 165.664 230.111 164.662 230.111 163.771L166.847 146.845L209.172 179.027L227.215 168.559Z" fill="black"/>
<path id="XMLID 7" d="M81.4189 249.406C81.4189 250.296 81.7531 250.965 82.31 251.299C82.7555 251.521 83.4238 251.521 84.2034 251.076L133.433 222.68L144.683 159.54L81.4189 247.624V249.406Z" fill="#37C3DD"/>
<path id="XMLID 6" opacity="0.15" d="M150.809 149.852L82.31 251.299C81.7531 250.965 81.4189 250.408 81.4189 249.517V247.735L148.247 148.627L150.809 149.852Z" fill="black"/>
<path id="XMLID 5" d="M229.109 166.555C228.664 167.335 228.107 167.892 227.438 168.337L227.327 168.448L84.2035 251.076C83.4239 251.521 82.7556 251.521 82.3101 251.298L150.809 149.852C153.593 145.286 159.385 143.616 164.286 145.731L229.109 166.555Z" fill="#37C3DD"/>
<path id="XMLID 4" opacity="0.15" d="M73.1768 121.455L75.4044 122.791C75.0702 123.905 74.8475 124.907 74.8475 125.798C74.8475 128.805 74.8475 132.925 74.8475 132.925L72.6199 131.589C72.6199 131.589 72.6199 127.58 72.6199 124.462C72.7313 123.571 72.8426 122.569 73.1768 121.455Z" fill="black"/>
<path id="XMLID 3" d="M85.206 136.155L82.867 137.491L80.6394 136.155L74.959 132.925L77.1866 131.589L85.206 136.155Z" fill="#37C3DD"/>
<path id="XMLID 2" opacity="0.1" d="M85.3173 136.155L77.1866 131.589L74.959 132.925L80.6394 136.155L82.9784 137.491C83.0897 137.379 83.3125 137.379 83.4239 137.379C83.758 137.268 84.2035 137.268 84.6491 137.379L89.2156 139.05L141.676 158.315L142.455 157.09L85.3173 136.155Z" fill="black"/>
</g>
</g>
</g>
<defs>
<clipPath id="clip0_2517_18687">
<rect width="230" height="251" fill="white" transform="translate(0 0.743164)"/>
</clipPath>
</defs>
</svg>
