<svg width="22" height="23" viewBox="0 0 22 23" fill="none" xmlns="http://www.w3.org/2000/svg">
<g id="eyes">
<g id="eye_off">
<path fill-rule="evenodd" clip-rule="evenodd" d="M11.0001 15.7934C13.2369 15.7934 15.0501 13.9801 15.0501 11.7434C15.0501 9.50661 13.2369 7.69336 11.0001 7.69336C8.76338 7.69336 6.95013 9.50661 6.95013 11.7434C6.95013 13.9801 8.76338 15.7934 11.0001 15.7934ZM11.0001 13.9934C12.2428 13.9934 13.2501 12.986 13.2501 11.7434C13.2501 10.5007 12.2428 9.49336 11.0001 9.49336C9.75749 9.49336 8.75013 10.5007 8.75013 11.7434C8.75013 12.986 9.75749 13.9934 11.0001 13.9934Z" fill="#C2C2C2"/>
<path fill-rule="evenodd" clip-rule="evenodd" d="M2.74691 11.7418L1.14004 10.9384C0.886669 11.4451 0.886669 12.0416 1.14004 12.5483L2.75001 11.7434C1.14004 12.5483 1.14063 12.5495 1.14063 12.5495L1.14281 12.5539L1.14672 12.5616L1.15795 12.5836C1.16694 12.6011 1.17897 12.6242 1.19401 12.6526C1.22407 12.7094 1.26623 12.7875 1.32034 12.8836C1.42841 13.0758 1.58495 13.3419 1.78872 13.6574C2.19404 14.285 2.79794 15.1263 3.5931 15.9745C5.15058 17.6358 7.6559 19.5434 11 19.5434C14.3441 19.5434 16.8494 17.6358 18.4069 15.9745C19.2021 15.1263 19.806 14.285 20.2113 13.6574C20.4151 13.3419 20.5716 13.0758 20.6797 12.8836C20.7338 12.7875 20.776 12.7094 20.806 12.6526C20.8211 12.6242 20.8331 12.6011 20.8421 12.5836L20.8533 12.5616L20.8572 12.5539L20.8587 12.5508L20.8594 12.5495C20.8594 12.5495 20.86 12.5483 19.25 11.7434L20.86 12.5483C21.1134 12.0416 21.1134 11.4451 20.86 10.9384L19.2532 11.7418C20.86 10.9384 20.8594 10.9372 20.8594 10.9372L20.8587 10.9359L20.8572 10.9329L20.8533 10.9251L20.8421 10.9031C20.8331 10.8856 20.8211 10.8625 20.806 10.8341C20.776 10.7773 20.7338 10.6993 20.6797 10.6031C20.5716 10.4109 20.4151 10.1448 20.2113 9.82931C19.806 9.20172 19.2021 8.36043 18.4069 7.51227C16.8494 5.85095 14.3441 3.94336 11 3.94336C7.6559 3.94336 5.15058 5.85095 3.5931 7.51227C2.79794 8.36043 2.19404 9.20172 1.78872 9.82931C1.58495 10.1448 1.42841 10.4109 1.32034 10.6031C1.26623 10.6993 1.22407 10.7773 1.19401 10.8341C1.17897 10.8625 1.16694 10.8856 1.15795 10.9031L1.14672 10.9251L1.14281 10.9329L1.14129 10.9359L1.14063 10.9372C1.14063 10.9372 1.14004 10.9384 2.74691 11.7418ZM19.25 11.7434C19.25 11.7434 16.25 5.74336 11 5.74336C5.75001 5.74336 2.75001 11.7434 2.75001 11.7434C2.75001 11.7434 5.75001 17.7434 11 17.7434C16.25 17.7434 19.25 11.7434 19.25 11.7434Z" fill="#C2C2C2"/>
</g>
</g>
</svg>
