<svg width="28" height="27" viewBox="0 0 28 27" fill="none" xmlns="http://www.w3.org/2000/svg">
<g id="24 / symbols / facebook">
<path id="icon" fill-rule="evenodd" clip-rule="evenodd" d="M4.66683 2.25H23.3335C24.6222 2.25 25.6668 3.25736 25.6668 4.5V22.5C25.6668 23.7426 24.6222 24.75 23.3335 24.75H4.66683C3.37817 24.75 2.3335 23.7426 2.3335 22.5V4.5C2.3335 3.25736 3.37817 2.25 4.66683 2.25ZM4.66683 4.5V22.5H23.3335V4.5H4.66683ZM12.9887 13.5049H15.1668V20.25H17.5002V13.5049H19.813V11.2549H17.5002V10.125C17.5002 9.50368 18.0225 9 18.6668 9H19.8335V6.75H18.6668C16.7338 6.75 15.1668 8.26104 15.1668 10.125V11.2549H12.9887V13.5049Z" fill="#C2C2C2"/>
</g>
</svg>
