<svg width="48" height="48" viewBox="0 0 48 48" fill="none" xmlns="http://www.w3.org/2000/svg">
<g id="Frame 17331">
<g id="Group 2039">
<g id="Group 2038">
<path id="Union" d="M15.4517 3.3524C14.7564 2.98963 13.8783 2.98963 13.183 3.3524C9.30246 5.37695 3.16903 12.2343 2.79824 27.6487C2.62877 34.6939 2.59955 38.9182 2.62352 41.4498C2.64581 43.803 4.531 45.2256 7.37555 45.2256H21.2592C24.1037 45.2256 25.9889 43.803 26.0112 41.4498C26.0352 38.9182 26.006 34.6939 25.8365 27.6487C25.4657 12.2343 19.3323 5.37695 15.4517 3.3524Z" fill="#C2C2C2"/>
<rect id="Rectangle 1058" x="8.77734" y="15.9944" width="11.0799" height="9.87709" rx="2" fill="#01242B"/>
</g>
<path id="Vector 16 (Stroke)" fill-rule="evenodd" clip-rule="evenodd" d="M39.3305 2.54511C39.6234 2.25222 40.0983 2.25222 40.3912 2.54511L45.1642 7.31808C45.4571 7.61097 45.4571 8.08585 45.1642 8.37874C44.8713 8.67163 44.3964 8.67163 44.1035 8.37874L40.6109 4.8861V43.1139L44.1035 39.6213C44.3964 39.3284 44.8713 39.3284 45.1642 39.6213C45.4571 39.9142 45.4571 40.389 45.1642 40.6819L40.3912 45.4549C40.0983 45.7478 39.6234 45.7478 39.3305 45.4549L34.5576 40.6819C34.2647 40.389 34.2647 39.9142 34.5576 39.6213C34.8505 39.3284 35.3253 39.3284 35.6182 39.6213L39.1109 43.1139V4.8861L35.6182 8.37874C35.3253 8.67163 34.8505 8.67163 34.5576 8.37874C34.2647 8.08585 34.2647 7.61097 34.5576 7.31808L39.3305 2.54511Z" fill="#C2C2C2"/>
</g>
</g>
</svg>
