<svg width="27" height="44" viewBox="0 0 27 44" fill="none" xmlns="http://www.w3.org/2000/svg">
<path d="M21.1667 10.3649V32.527C21.1667 45.8243 2 45.8243 2 32.527V23.6622L5.83333 28.0946M21.1667 10.3649C22.1833 10.3649 23.1584 9.89788 23.8772 9.06664C24.5961 8.23539 25 7.10799 25 5.93243C25 4.75688 24.5961 3.62947 23.8772 2.79823C23.1584 1.96699 22.1833 1.5 21.1667 1.5C20.15 1.5 19.175 1.96699 18.4561 2.79823C17.7372 3.62947 17.3333 4.75688 17.3333 5.93243C17.3333 7.10799 17.7372 8.23539 18.4561 9.06664C19.175 9.89788 20.15 10.3649 21.1667 10.3649Z" stroke="#C2C2C2" stroke-width="3" stroke-linecap="round" stroke-linejoin="round"/>
</svg>
