<svg width="28" height="27" viewBox="0 0 28 27" fill="none" xmlns="http://www.w3.org/2000/svg">
<g id="24 / symbols / instagram">
<path id="icon" fill-rule="evenodd" clip-rule="evenodd" d="M18.6663 2.25H9.33301C5.46701 2.25 2.33301 5.27208 2.33301 9V18C2.33301 21.7279 5.46701 24.75 9.33301 24.75H18.6663C22.5323 24.75 25.6663 21.7279 25.6663 18V9C25.6663 5.27208 22.5323 2.25 18.6663 2.25ZM4.66634 9C4.66634 6.51472 6.75568 4.5 9.33301 4.5H18.6663C21.2437 4.5 23.333 6.51472 23.333 9V18C23.333 20.4853 21.2437 22.5 18.6663 22.5H9.33301C6.75568 22.5 4.66634 20.4853 4.66634 18V9ZM13.9997 19.125C10.778 19.125 8.16634 16.6066 8.16634 13.5C8.16634 10.3934 10.778 7.875 13.9997 7.875C17.2213 7.875 19.833 10.3934 19.833 13.5C19.833 16.6066 17.2213 19.125 13.9997 19.125ZM13.9997 16.875C15.9327 16.875 17.4997 15.364 17.4997 13.5C17.4997 11.636 15.9327 10.125 13.9997 10.125C12.0667 10.125 10.4997 11.636 10.4997 13.5C10.4997 15.364 12.0667 16.875 13.9997 16.875ZM20.9997 7.875C20.9997 8.49632 20.4773 9 19.833 9C19.1887 9 18.6663 8.49632 18.6663 7.875C18.6663 7.25368 19.1887 6.75 19.833 6.75C20.4773 6.75 20.9997 7.25368 20.9997 7.875Z" fill="#C2C2C2"/>
</g>
</svg>
