<svg width="39" height="48" viewBox="0 0 39 48" fill="none" xmlns="http://www.w3.org/2000/svg">
<g id="Group">
<g id="Group_2">
<g id="Group_3">
<path id="Vector" d="M4.21973 27.1112H35.1353V46.8446C35.1353 47.5708 34.5583 48.1601 33.8472 48.1601H5.50788C4.79682 48.1601 4.21973 47.5708 4.21973 46.8446V27.1112Z" stroke="#C2C2C2" stroke-width="2"/>
</g>
<g id="Group_4">
<path id="Vector_2" d="M38.999 27.1111H35.1345" stroke="#C2C2C2" stroke-width="2"/>
</g>
<g id="Group_5">
<path id="Vector_3" d="M4.21992 27.111H0.355469" stroke="#C2C2C2" stroke-width="2"/>
</g>
</g>
<g id="Group_6">
<g id="Group_7">
<path id="Vector_4" d="M11.3047 11.3245C8.10883 11.3245 5.50806 13.9806 5.50806 17.2445C5.50806 20.0558 7.44028 22.4054 10.0166 23.0066V20.2558C8.88172 19.7467 8.08436 18.5903 8.08436 17.2445C8.08436 15.4316 9.52966 13.9556 11.3047 13.9556C13.0798 13.9556 14.5251 15.4316 14.5251 17.2445C14.5251 18.5903 13.7277 19.7467 12.5929 20.2558V23.0066C15.1692 22.4054 17.1014 20.0558 17.1014 17.2445C17.1014 13.9806 14.5006 11.3245 11.3047 11.3245Z" fill="#C2C2C2"/>
</g>
</g>
<g id="Group_8">
<g id="Group_9">
<path id="Vector_5" d="M4.22046 27.1114C4.22046 24.2053 6.52754 21.8491 9.37306 21.8491H9.03428H9.93212" stroke="#C2C2C2" stroke-width="2"/>
</g>
</g>
<g id="Group_10">
<g id="Group_11">
<path id="Vector_6" d="M12.7256 21.8491H13.6788C15.0455 21.8491 16.3569 22.403 17.323 23.3896L27.4079 33.6891" stroke="#C2C2C2" stroke-width="2"/>
</g>
</g>
<g id="Group_12">
<g id="Group_13">
<path id="Vector_7" d="M34.9696 -18.7698C34.976 -12.4117 29.8247 -10.7673 29.8247 -4.29868C29.8247 2.16992 34.976 3.81436 34.9696 10.1725C34.9631 16.5306 29.8247 18.2855 29.8247 24.6436M34.9696 -47.799C34.976 -41.4409 29.8247 -39.7964 29.8247 -33.3278C29.8247 -26.8592 34.976 -25.2148 34.9696 -18.8567V-18.7698C34.976 -12.4117 29.8247 -10.7673 29.8247 -4.29868C29.8247 2.16992 34.976 3.81436 34.9696 10.1725C34.9631 16.5306 29.8247 18.2855 29.8247 24.6436" stroke="#C2C2C2" stroke-width="2" stroke-linejoin="round"/>
</g>
</g>
<g id="Group_14">
<g id="Group_15">
<path id="Vector_8" d="M29.5589 -20.3478C29.5654 -13.9897 24.4141 -12.3453 24.4141 -5.87669C24.4141 0.591914 29.5654 2.23636 29.5589 8.59446C29.5525 14.9526 24.4141 16.7075 24.4141 23.0656M29.5589 -49.377C29.5654 -43.0189 24.4141 -41.3744 24.4141 -34.9058C24.4141 -28.4372 29.5654 -26.7928 29.5589 -20.4347V-20.3478C29.5654 -13.9897 24.4141 -12.3453 24.4141 -5.87669C24.4141 0.591914 29.5654 2.23636 29.5589 8.59446C29.5525 14.9526 24.4141 16.7075 24.4141 23.0656" stroke="#C2C2C2" stroke-width="2" stroke-linejoin="round"/>
</g>
</g>
</g>
</svg>
