<svg width="45" height="50" viewBox="0 0 45 50" fill="none" xmlns="http://www.w3.org/2000/svg">
<path id="Vector" d="M23.8264 15.6615C19.3554 29.9642 22.5731 29.482 18.1585 39.5249L12.8315 37.6131M29.1631 16.8362C26.8911 26.7494 32.1548 33.4479 35.2925 39.0135L29.9704 36.7335M44.204 12.7116C26.9923 19.1129 18.4604 16.6955 10.0736 3.32678M41.4844 44.4576L10.4695 32.3364C8.81142 31.6884 7.9774 29.7754 8.60664 28.0636M33.932 48.777L2.91707 36.6558C1.25902 36.0078 0.425 34.0948 1.05424 32.383M23.9578 5.71918C23.9901 3.27892 25.933 1.32605 28.2974 1.35731C30.6617 1.38858 32.5523 3.39215 32.52 5.83241C32.4877 8.27267 30.5449 10.2255 28.1805 10.1943C25.8161 10.163 23.9256 8.15944 23.9578 5.71918Z" stroke="#C2C2C2" stroke-width="1.5" stroke-linecap="round" stroke-linejoin="round"/>
</svg>
