<svg width="28" height="27" viewBox="0 0 28 27" fill="none" xmlns="http://www.w3.org/2000/svg">
<g id="24 / symbols / linkedin">
<path id="icon" fill-rule="evenodd" clip-rule="evenodd" d="M4.66634 2.25H23.333C24.6217 2.25 25.6663 3.25736 25.6663 4.5V22.5C25.6663 23.7426 24.6217 24.75 23.333 24.75H4.66634C3.37768 24.75 2.33301 23.7426 2.33301 22.5V4.5C2.33301 3.25736 3.37768 2.25 4.66634 2.25ZM4.66634 4.5V22.5H23.333V4.5H4.66634ZM15.1663 10.125C14.5623 10.125 13.9241 10.303 13.3605 10.6337L12.833 10.125H11.6663V18H13.9997V13.5C13.9997 12.8523 14.6926 12.375 15.1663 12.375H16.333C16.8067 12.375 17.4997 12.8523 17.4997 13.5V18H19.833V13.5C19.833 11.4156 17.9593 10.125 16.333 10.125H15.1663ZM9.33301 9C9.97734 9 10.4997 8.49632 10.4997 7.875C10.4997 7.25368 9.97734 6.75 9.33301 6.75C8.68867 6.75 8.16634 7.25368 8.16634 7.875C8.16634 8.49632 8.68867 9 9.33301 9ZM8.16634 18H10.4997V10.125H8.16634V18Z" fill="#C2C2C2"/>
</g>
</svg>
