<svg width="44" height="44" viewBox="0 0 44 44" fill="none" xmlns="http://www.w3.org/2000/svg">
<g id="Iconly/Bold/Location">
<g id="Group 2043">
<path id="Vector 21" d="M22.001 4.98242V37.3417" stroke="#C2C2C2" stroke-width="2.64788" stroke-linecap="round"/>
<path id="Ellipse 6125" d="M40.586 28.1198C40.586 31.1785 38.6279 34.1119 35.1426 36.2747C31.6572 38.4375 26.93 39.6525 22.001 39.6525C17.072 39.6525 12.3448 38.4375 8.85943 36.2747C5.37407 34.1119 3.41602 31.1785 3.41602 28.1198L8.31862 28.1198C8.31862 30.3716 9.76015 32.5312 12.3261 34.1235C14.892 35.7157 18.3722 36.6103 22.001 36.6103C25.6298 36.6103 29.11 35.7157 31.6759 34.1235C34.2418 32.5312 35.6834 30.3716 35.6834 28.1198H40.586Z" fill="#C2C2C2"/>
<path id="Vector 22" d="M13.3174 4.98242H30.5124" stroke="#C2C2C2" stroke-width="2.64788" stroke-linecap="round"/>
<path id="Vector 23" d="M10.4678 10.1985H33.3617" stroke="#C2C2C2" stroke-width="2.64788" stroke-linecap="round"/>
<path id="Vector 24" d="M13.8359 15.751H29.9947" stroke="#C2C2C2" stroke-width="2.64788" stroke-linecap="round"/>
</g>
</g>
</svg>
