<svg width="165" height="11" viewBox="0 0 165 11" fill="none" xmlns="http://www.w3.org/2000/svg">
<path d="M0.308239 0.318182H2.39134L4.8821 4.82244H4.98153L7.4723 0.318182H9.5554L5.85156 6.7017V10.5H4.01207V6.7017L0.308239 0.318182ZM11.1301 10.5H9.1614L12.7459 0.318182H15.0229L18.6124 10.5H16.6436L13.9242 2.40625H13.8446L11.1301 10.5ZM11.1948 6.50781H16.5641V7.98935H11.1948V6.50781ZM28.1902 3.75355H26.3308C26.2778 3.44863 26.18 3.1785 26.0375 2.94318C25.8949 2.70455 25.7176 2.50237 25.5055 2.33665C25.2934 2.17093 25.0514 2.04664 24.7797 1.96378C24.5112 1.8776 24.2212 1.83452 23.9096 1.83452C23.3561 1.83452 22.8656 1.97372 22.438 2.25213C22.0105 2.52722 21.6757 2.93158 21.4338 3.4652C21.1918 3.9955 21.0708 4.64347 21.0708 5.40909C21.0708 6.18797 21.1918 6.84422 21.4338 7.37784C21.679 7.90814 22.0138 8.30919 22.438 8.58097C22.8656 8.84943 23.3545 8.98366 23.9047 8.98366C24.2096 8.98366 24.4946 8.94389 24.7598 8.86435C25.0282 8.78149 25.2685 8.66051 25.4806 8.50142C25.6961 8.34233 25.8767 8.14678 26.0225 7.91477C26.1717 7.68277 26.2744 7.41761 26.3308 7.11932L28.1902 7.12926C28.1206 7.61316 27.9698 8.06723 27.7377 8.49148C27.5091 8.91572 27.2091 9.29025 26.8379 9.61506C26.4667 9.93655 26.0325 10.1884 25.5353 10.3707C25.0382 10.5497 24.4863 10.6392 23.8798 10.6392C22.9849 10.6392 22.1861 10.4321 21.4835 10.0178C20.7808 9.60346 20.2273 9.00521 19.823 8.22301C19.4186 7.44081 19.2164 6.50284 19.2164 5.40909C19.2164 4.31203 19.4203 3.37405 19.8279 2.59517C20.2356 1.81297 20.7908 1.21473 21.4934 0.800426C22.1961 0.386126 22.9915 0.178977 23.8798 0.178977C24.4466 0.178977 24.9735 0.258522 25.4608 0.417613C25.948 0.576704 26.3822 0.810369 26.7633 1.11861C27.1445 1.42353 27.4577 1.79806 27.7029 2.24219C27.9515 2.683 28.1139 3.18679 28.1902 3.75355ZM29.8793 10.5V0.318182H31.7237V4.62855H36.4418V0.318182H38.2912V10.5H36.4418V6.17472H31.7237V10.5H29.8793ZM39.8498 1.86435V0.318182H47.9734V1.86435H44.8263V10.5H42.9968V1.86435H39.8498ZM53.0121 10.5V0.318182H59.5348V1.86435H54.8565V4.62855H59.0874V6.17472H54.8565V10.5H53.0121ZM61.2152 10.5V0.318182H63.0597V8.95384H67.544V10.5H61.2152ZM69.1449 10.5V0.318182H75.767V1.86435H70.9893V4.62855H75.424V6.17472H70.9893V8.95384H75.8068V10.5H69.1449ZM77.6488 10.5V0.318182H84.271V1.86435H79.4933V4.62855H83.9279V6.17472H79.4933V8.95384H84.3107V10.5H77.6488ZM85.7053 1.86435V0.318182H93.8288V1.86435H90.6818V10.5H88.8523V1.86435H85.7053ZM107.583 3.75355H105.723C105.67 3.44863 105.573 3.1785 105.43 2.94318C105.288 2.70455 105.11 2.50237 104.898 2.33665C104.686 2.17093 104.444 2.04664 104.172 1.96378C103.904 1.8776 103.614 1.83452 103.302 1.83452C102.749 1.83452 102.258 1.97372 101.831 2.25213C101.403 2.52722 101.068 2.93158 100.826 3.4652C100.584 3.9955 100.463 4.64347 100.463 5.40909C100.463 6.18797 100.584 6.84422 100.826 7.37784C101.072 7.90814 101.406 8.30919 101.831 8.58097C102.258 8.84943 102.747 8.98366 103.297 8.98366C103.602 8.98366 103.887 8.94389 104.152 8.86435C104.421 8.78149 104.661 8.66051 104.873 8.50142C105.089 8.34233 105.269 8.14678 105.415 7.91477C105.564 7.68277 105.667 7.41761 105.723 7.11932L107.583 7.12926C107.513 7.61316 107.362 8.06723 107.13 8.49148C106.902 8.91572 106.602 9.29025 106.23 9.61506C105.859 9.93655 105.425 10.1884 104.928 10.3707C104.431 10.5497 103.879 10.6392 103.272 10.6392C102.377 10.6392 101.579 10.4321 100.876 10.0178C100.173 9.60346 99.6199 9.00521 99.2156 8.22301C98.8112 7.44081 98.609 6.50284 98.609 5.40909C98.609 4.31203 98.8129 3.37405 99.2205 2.59517C99.6282 1.81297 100.183 1.21473 100.886 0.800426C101.589 0.386126 102.384 0.178977 103.272 0.178977C103.839 0.178977 104.366 0.258522 104.853 0.417613C105.341 0.576704 105.775 0.810369 106.156 1.11861C106.537 1.42353 106.85 1.79806 107.096 2.24219C107.344 2.683 107.507 3.18679 107.583 3.75355ZM109.272 10.5V0.318182H111.116V4.62855H115.834V0.318182H117.684V10.5H115.834V6.17472H111.116V10.5H109.272ZM120.997 10.5H119.029L122.613 0.318182H124.89L128.48 10.5H126.511L123.791 2.40625H123.712L120.997 10.5ZM121.062 6.50781H126.431V7.98935H121.062V6.50781ZM129.821 10.5V0.318182H133.639C134.421 0.318182 135.077 0.454072 135.608 0.725852C136.141 0.997632 136.544 1.37879 136.816 1.86932C137.091 2.35653 137.228 2.92495 137.228 3.57457C137.228 4.22751 137.089 4.79427 136.811 5.27486C136.536 5.75213 136.13 6.12169 135.593 6.38352C135.056 6.64205 134.396 6.77131 133.614 6.77131H130.895V5.24006H133.365C133.823 5.24006 134.197 5.17708 134.489 5.05114C134.781 4.92187 134.996 4.73461 135.135 4.48935C135.278 4.24077 135.349 3.93584 135.349 3.57457C135.349 3.2133 135.278 2.90507 135.135 2.64986C134.993 2.39134 134.776 2.19579 134.484 2.06321C134.192 1.92732 133.816 1.85938 133.355 1.85938H131.665V10.5H129.821ZM135.081 5.88636L137.601 10.5H135.543L133.067 5.88636H135.081ZM138.479 1.86435V0.318182H146.602V1.86435H143.455V10.5H141.626V1.86435H138.479ZM148.168 10.5V0.318182H154.79V1.86435H150.013V4.62855H154.447V6.17472H150.013V8.95384H154.83V10.5H148.168ZM156.672 10.5V0.318182H160.49C161.273 0.318182 161.929 0.454072 162.459 0.725852C162.993 0.997632 163.395 1.37879 163.667 1.86932C163.942 2.35653 164.08 2.92495 164.08 3.57457C164.08 4.22751 163.941 4.79427 163.662 5.27486C163.387 5.75213 162.981 6.12169 162.444 6.38352C161.907 6.64205 161.248 6.77131 160.466 6.77131H157.746V5.24006H160.217C160.674 5.24006 161.049 5.17708 161.341 5.05114C161.632 4.92187 161.848 4.73461 161.987 4.48935C162.129 4.24077 162.201 3.93584 162.201 3.57457C162.201 3.2133 162.129 2.90507 161.987 2.64986C161.844 2.39134 161.627 2.19579 161.336 2.06321C161.044 1.92732 160.668 1.85938 160.207 1.85938H158.517V10.5H156.672ZM161.932 5.88636L164.453 10.5H162.395L159.919 5.88636H161.932Z" fill="#88A0A5"/>
</svg>
