<svg width="165" height="44" viewBox="0 0 165 44" fill="none" xmlns="http://www.w3.org/2000/svg">
<path d="M24.9405 38.8131C23.842 38.8131 22.5977 38.6225 20.9045 38.1952C16.6694 37.1242 12.3534 33.4173 8.07491 27.1757C4.84297 22.4613 2.68208 17.8119 2.09603 16.4983C1.94446 16.162 1.97333 15.7737 2.17542 15.4619C2.37751 15.1487 2.72105 14.961 3.09347 14.961C3.29123 14.961 3.48754 15.0159 3.65787 15.1198C3.66509 15.1242 3.6723 15.1285 3.67952 15.1328C4.25691 15.5009 6.40769 16.7105 9.85039 16.8433C10.1636 16.8549 10.5043 16.8621 10.8926 16.8621C14.4479 16.8621 19.9749 16.3396 25.8253 15.7853C29.372 15.4489 33.0398 15.1025 36.2776 14.8773C36.279 14.8773 36.2805 14.8773 36.2819 14.8773L36.6052 14.8557C36.7857 14.8441 36.9647 14.8311 37.1408 14.821C43.1399 14.4371 49.38 14.2422 55.6866 14.2422C77.7357 14.2422 101.152 16.5575 125.284 21.1232C147.22 25.2732 161.724 29.8462 161.869 29.8924C162.374 30.0526 162.67 30.5766 162.546 31.0919C162.422 31.6072 161.921 31.9392 161.398 31.8526C161.288 31.8338 150.26 30.0151 135.056 28.3478C132.56 28.0736 130.016 27.8109 127.489 27.5669C113.371 26.2072 100.548 25.5172 89.3773 25.5172C77.9103 25.5172 68.2275 26.2534 60.5958 27.7069C41.2475 31.3921 34.6031 34.8738 30.6321 36.9539C28.4929 38.0726 27.0797 38.8131 24.9405 38.8131ZM5.04794 17.9952C7.59856 23.0893 13.9888 34.3614 21.4011 36.235C22.9037 36.6146 24.0282 36.7922 24.9405 36.7922C26.5817 36.7922 27.6889 36.2134 29.6968 35.1611C33.7659 33.029 40.5777 29.4593 60.2191 25.7193C67.9749 24.2426 77.7848 23.4949 89.3788 23.4949C100.613 23.4949 113.502 24.1877 127.684 25.5533C130.219 25.7972 132.774 26.0614 135.277 26.3371C138.945 26.7398 142.372 27.1512 145.462 27.5438C139.815 26.1682 132.853 24.6107 124.91 23.108C100.901 18.5654 77.6115 16.2616 55.688 16.2616C49.4248 16.2616 43.2265 16.455 37.2692 16.8376C37.0931 16.8477 36.9185 16.8607 36.7424 16.8722L36.4147 16.8939C33.203 17.1176 29.5495 17.4626 26.0173 17.7975C20.1178 18.3561 14.546 18.883 10.894 18.883C10.4783 18.883 10.1117 18.8772 9.77388 18.8628C7.83818 18.7877 6.25468 18.4167 5.04794 17.9952ZM3.94079 15.6727C3.94223 15.6741 3.94223 15.677 3.94368 15.6784C3.94223 15.677 3.94079 15.6741 3.94079 15.6727Z" fill="#88A0A5"/>
<path d="M107.276 15.0937C107.217 15.0937 107.157 15.088 107.096 15.0778C106.904 15.0432 106.555 14.9768 106.065 14.883C74.2886 8.80594 51.3517 7.27153 43.1383 10.6724C42.6894 10.8571 42.1726 10.6983 41.907 10.2927C41.6414 9.88711 41.7006 9.34869 42.05 9.01236C48.3421 2.94109 54.1463 -0.093094 59.3212 0.00217553C68.4916 0.166732 88.0464 4.73822 107.675 13.1551C108.147 13.3572 108.392 13.8826 108.245 14.3749C108.114 14.8065 107.715 15.0937 107.276 15.0937ZM56.9178 6.86013C68.9982 6.86013 84.7624 9.06432 97.4953 11.2656C81.5175 5.34737 66.8013 2.15729 59.2836 2.0216C55.519 1.95376 51.2824 3.83172 46.6489 7.61363C49.5445 7.08676 53.042 6.86013 56.9178 6.86013Z" fill="#88A0A5"/>
<path d="M0.308239 30.8182H2.39134L4.8821 35.3224H4.98153L7.4723 30.8182H9.5554L5.85156 37.2017V41H4.01207V37.2017L0.308239 30.8182ZM11.1301 41H9.1614L12.7459 30.8182H15.0229L18.6124 41H16.6436L13.9242 32.9062H13.8446L11.1301 41ZM11.1948 37.0078H16.5641V38.4893H11.1948V37.0078ZM28.1902 34.2536H26.3308C26.2778 33.9486 26.18 33.6785 26.0375 33.4432C25.8949 33.2045 25.7176 33.0024 25.5055 32.8366C25.2934 32.6709 25.0514 32.5466 24.7797 32.4638C24.5112 32.3776 24.2212 32.3345 23.9096 32.3345C23.3561 32.3345 22.8656 32.4737 22.438 32.7521C22.0105 33.0272 21.6757 33.4316 21.4338 33.9652C21.1918 34.4955 21.0708 35.1435 21.0708 35.9091C21.0708 36.688 21.1918 37.3442 21.4338 37.8778C21.679 38.4081 22.0138 38.8092 22.438 39.081C22.8656 39.3494 23.3545 39.4837 23.9047 39.4837C24.2096 39.4837 24.4946 39.4439 24.7598 39.3643C25.0282 39.2815 25.2685 39.1605 25.4806 39.0014C25.6961 38.8423 25.8767 38.6468 26.0225 38.4148C26.1717 38.1828 26.2744 37.9176 26.3308 37.6193L28.1902 37.6293C28.1206 38.1132 27.9698 38.5672 27.7377 38.9915C27.5091 39.4157 27.2091 39.7902 26.8379 40.1151C26.4667 40.4366 26.0325 40.6884 25.5353 40.8707C25.0382 41.0497 24.4863 41.1392 23.8798 41.1392C22.9849 41.1392 22.1861 40.9321 21.4835 40.5178C20.7808 40.1035 20.2273 39.5052 19.823 38.723C19.4186 37.9408 19.2164 37.0028 19.2164 35.9091C19.2164 34.812 19.4203 33.8741 19.8279 33.0952C20.2356 32.313 20.7908 31.7147 21.4934 31.3004C22.1961 30.8861 22.9915 30.679 23.8798 30.679C24.4466 30.679 24.9735 30.7585 25.4608 30.9176C25.948 31.0767 26.3822 31.3104 26.7633 31.6186C27.1445 31.9235 27.4577 32.2981 27.7029 32.7422C27.9515 33.183 28.1139 33.6868 28.1902 34.2536ZM29.8793 41V30.8182H31.7237V35.1286H36.4418V30.8182H38.2912V41H36.4418V36.6747H31.7237V41H29.8793ZM39.8498 32.3643V30.8182H47.9734V32.3643H44.8263V41H42.9968V32.3643H39.8498ZM53.0121 41V30.8182H59.5348V32.3643H54.8565V35.1286H59.0874V36.6747H54.8565V41H53.0121ZM61.2152 41V30.8182H63.0597V39.4538H67.544V41H61.2152ZM69.1449 41V30.8182H75.767V32.3643H70.9893V35.1286H75.424V36.6747H70.9893V39.4538H75.8068V41H69.1449ZM77.6488 41V30.8182H84.271V32.3643H79.4933V35.1286H83.9279V36.6747H79.4933V39.4538H84.3107V41H77.6488ZM85.7053 32.3643V30.8182H93.8288V32.3643H90.6818V41H88.8523V32.3643H85.7053ZM107.583 34.2536H105.723C105.67 33.9486 105.573 33.6785 105.43 33.4432C105.288 33.2045 105.11 33.0024 104.898 32.8366C104.686 32.6709 104.444 32.5466 104.172 32.4638C103.904 32.3776 103.614 32.3345 103.302 32.3345C102.749 32.3345 102.258 32.4737 101.831 32.7521C101.403 33.0272 101.068 33.4316 100.826 33.9652C100.584 34.4955 100.463 35.1435 100.463 35.9091C100.463 36.688 100.584 37.3442 100.826 37.8778C101.072 38.4081 101.406 38.8092 101.831 39.081C102.258 39.3494 102.747 39.4837 103.297 39.4837C103.602 39.4837 103.887 39.4439 104.152 39.3643C104.421 39.2815 104.661 39.1605 104.873 39.0014C105.089 38.8423 105.269 38.6468 105.415 38.4148C105.564 38.1828 105.667 37.9176 105.723 37.6193L107.583 37.6293C107.513 38.1132 107.362 38.5672 107.13 38.9915C106.902 39.4157 106.602 39.7902 106.23 40.1151C105.859 40.4366 105.425 40.6884 104.928 40.8707C104.431 41.0497 103.879 41.1392 103.272 41.1392C102.377 41.1392 101.579 40.9321 100.876 40.5178C100.173 40.1035 99.6199 39.5052 99.2156 38.723C98.8112 37.9408 98.609 37.0028 98.609 35.9091C98.609 34.812 98.8129 33.8741 99.2205 33.0952C99.6282 32.313 100.183 31.7147 100.886 31.3004C101.589 30.8861 102.384 30.679 103.272 30.679C103.839 30.679 104.366 30.7585 104.853 30.9176C105.341 31.0767 105.775 31.3104 106.156 31.6186C106.537 31.9235 106.85 32.2981 107.096 32.7422C107.344 33.183 107.507 33.6868 107.583 34.2536ZM109.272 41V30.8182H111.116V35.1286H115.834V30.8182H117.684V41H115.834V36.6747H111.116V41H109.272ZM120.997 41H119.029L122.613 30.8182H124.89L128.48 41H126.511L123.791 32.9062H123.712L120.997 41ZM121.062 37.0078H126.431V38.4893H121.062V37.0078ZM129.821 41V30.8182H133.639C134.421 30.8182 135.077 30.9541 135.608 31.2259C136.141 31.4976 136.544 31.8788 136.816 32.3693C137.091 32.8565 137.228 33.425 137.228 34.0746C137.228 34.7275 137.089 35.2943 136.811 35.7749C136.536 36.2521 136.13 36.6217 135.593 36.8835C135.056 37.142 134.396 37.2713 133.614 37.2713H130.895V35.7401H133.365C133.823 35.7401 134.197 35.6771 134.489 35.5511C134.781 35.4219 134.996 35.2346 135.135 34.9893C135.278 34.7408 135.349 34.4358 135.349 34.0746C135.349 33.7133 135.278 33.4051 135.135 33.1499C134.993 32.8913 134.776 32.6958 134.484 32.5632C134.192 32.4273 133.816 32.3594 133.355 32.3594H131.665V41H129.821ZM135.081 36.3864L137.601 41H135.543L133.067 36.3864H135.081ZM138.479 32.3643V30.8182H146.602V32.3643H143.455V41H141.626V32.3643H138.479ZM148.168 41V30.8182H154.79V32.3643H150.013V35.1286H154.447V36.6747H150.013V39.4538H154.83V41H148.168ZM156.672 41V30.8182H160.49C161.273 30.8182 161.929 30.9541 162.459 31.2259C162.993 31.4976 163.395 31.8788 163.667 32.3693C163.942 32.8565 164.08 33.425 164.08 34.0746C164.08 34.7275 163.941 35.2943 163.662 35.7749C163.387 36.2521 162.981 36.6217 162.444 36.8835C161.907 37.142 161.248 37.2713 160.466 37.2713H157.746V35.7401H160.217C160.674 35.7401 161.049 35.6771 161.341 35.5511C161.632 35.4219 161.848 35.2346 161.987 34.9893C162.129 34.7408 162.201 34.4358 162.201 34.0746C162.201 33.7133 162.129 33.4051 161.987 33.1499C161.844 32.8913 161.627 32.6958 161.336 32.5632C161.044 32.4273 160.668 32.3594 160.207 32.3594H158.517V41H156.672ZM161.932 36.3864L164.453 41H162.395L159.919 36.3864H161.932Z" fill="white"/>
</svg>
