<svg width="44" height="43" viewBox="0 0 44 43" fill="none" xmlns="http://www.w3.org/2000/svg">
<g id="fi-rr-sphere" clip-path="url(#clip0_2540_53658)">
<path id="Vector" d="M22 0C17.7477 0 13.5909 1.26095 10.0552 3.6234C6.51959 5.98585 3.76388 9.3437 2.1366 13.2723C0.509316 17.2009 0.0835439 21.5239 0.913126 25.6944C1.74271 29.865 3.79039 33.696 6.79721 36.7028C9.80404 39.7096 13.635 41.7573 17.8056 42.5869C21.9762 43.4165 26.2991 42.9907 30.2277 41.3634C34.1563 39.7361 37.5142 36.9804 39.8766 33.4448C42.2391 29.9091 43.5 25.7523 43.5 21.5C43.4938 15.7997 41.2267 10.3347 37.196 6.30401C33.1653 2.27332 27.7003 0.00616527 22 0V0ZM22 28.6667C11.7445 28.6667 4.08334 24.8845 4.08334 21.5C4.08334 18.1155 11.7445 14.3333 22 14.3333C32.2555 14.3333 39.9167 18.1155 39.9167 21.5C39.9167 24.8845 32.2555 28.6667 22 28.6667ZM22 3.58333C25.5052 3.58737 28.9324 4.61816 31.8583 6.54837C34.7842 8.47858 37.0805 11.2236 38.4636 14.4444C33.3826 11.8237 27.7137 10.5516 22 10.75C16.2863 10.5516 10.6174 11.8237 5.53639 14.4444C6.91949 11.2236 9.21582 8.47858 12.1417 6.54837C15.0676 4.61816 18.4948 3.58737 22 3.58333ZM22 39.4167C18.4948 39.4126 15.0676 38.3818 12.1417 36.4516C9.21582 34.5214 6.91949 31.7764 5.53639 28.5556C10.6174 31.1763 16.2863 32.4484 22 32.25C27.7137 32.4484 33.3826 31.1763 38.4636 28.5556C37.0805 31.7764 34.7842 34.5214 31.8583 36.4516C28.9324 38.3818 25.5052 39.4126 22 39.4167Z" fill="#C2C2C2"/>
</g>
<defs>
<clipPath id="clip0_2540_53658">
<rect width="43" height="43" fill="white" transform="translate(0.5)"/>
</clipPath>
</defs>
</svg>
