<svg width="49" height="48" viewBox="0 0 49 48" fill="none" xmlns="http://www.w3.org/2000/svg">
<path id="Vector" d="M46.0437 41.3207C46.0052 41.2123 45.9433 41.1134 45.8627 41.031C45.7927 40.9636 45.7113 40.9094 45.6226 40.871L44.4033 39.5743C44.2292 39.3966 44.0159 39.2626 43.7802 39.1831L41.7938 38.4789C41.3013 38.3174 40.7611 38.4072 40.3473 38.7192L32.3409 30.719C32.4354 29.1103 32.486 27.4576 32.4882 25.7778C32.4882 25.7023 32.4882 25.6287 32.4882 25.5544C32.4882 25.5423 32.4882 25.5313 32.4882 25.5192C32.5274 19.5556 31.7043 13.6175 30.044 7.88896C29.1289 4.94356 27.1891 0.00050451 24.4807 0.00050451C21.7719 0.00050451 19.8522 4.86117 18.9459 7.76042C18.1667 10.325 17.5869 12.9463 17.2116 15.6002L14.8052 13.2001L15.4407 12.5603C15.7534 12.2479 15.7534 11.7415 15.4407 11.4291L12.231 8.2332C11.9184 7.92119 11.4122 7.92119 11.0996 8.2332L10.4674 8.8649L3.59712 2.00036L4.23042 1.36829C4.54414 1.05591 4.54487 0.548716 4.23225 0.235609C3.91963 -0.0778637 3.41204 -0.0785961 3.09832 0.233778L0.696685 2.6339C0.419982 2.9514 0.437207 3.42893 0.7359 3.72592C1.03423 4.02292 1.51213 4.03793 1.82878 3.76035L2.46355 3.12901L9.33678 10.0001L8.70128 10.6403C8.38866 10.9526 8.38866 11.4591 8.70128 11.7715L11.9085 14.9714C12.0587 15.1186 12.2607 15.2006 12.4714 15.2003C12.6836 15.1999 12.8874 15.1153 13.0373 14.9648L13.6713 14.3298L16.9547 17.6041C16.6395 20.3114 16.479 23.0345 16.4742 25.7602C16.4655 34.4118 17.7306 42.3776 19.8577 47.0679C20.119 47.6345 20.6875 47.9966 21.3116 47.9941L27.6028 47.9999C28.2273 48.0025 28.7958 47.6418 29.0585 47.0756C30.5964 43.7029 31.687 38.6287 32.1807 32.8254L39.2126 39.8518C38.8956 40.2708 38.8058 40.8186 38.9726 41.3167L39.6682 43.2704C39.7488 43.5077 39.8829 43.7234 40.0607 43.9006L43.7179 47.5272C44.0181 47.8308 44.4282 48.001 44.8555 47.9999C45.2664 48.0036 45.6622 47.8458 45.9572 47.5598L48.0297 45.7024C48.6498 45.0842 48.6575 44.083 48.0477 43.4549L46.0437 41.3207ZM12.4714 13.2696L10.3992 11.2002L11.6706 9.92983L13.7417 12.0004L12.4714 13.2696ZM18.0755 25.7602C18.0755 24.9018 18.0963 24.0423 18.1293 23.1839C18.2349 23.1807 18.339 23.1561 18.435 23.1122L21.1181 21.7704L26.687 27.3353L18.2807 31.7825C18.1436 29.8401 18.0755 27.8242 18.0755 25.7602ZM22.631 21.0153L30.349 17.1595C30.6792 19.8006 30.8551 22.4592 30.8749 25.1208L28.1698 26.5519L22.631 21.0153ZM30.8734 26.9354C30.8628 27.6952 30.8423 28.4478 30.8119 29.1927L29.3554 27.7377L30.8734 26.9354ZM20.4775 8.23539C21.9002 3.68015 23.5501 1.60046 24.4807 1.60046C25.4108 1.60046 27.0714 3.71714 28.5158 8.36357C29.2205 10.697 29.7538 13.0788 30.1111 15.4899L21.438 19.8233L18.6358 17.0291C18.9961 14.0504 19.6122 11.1083 20.4775 8.23539ZM19.9292 20.5777L18.2213 21.4313C18.2708 20.6355 18.3338 19.8452 18.4101 19.0601L19.9292 20.5777ZM27.6028 46.4L21.3101 46.3934V46.4062C19.9211 43.3429 18.9169 38.78 18.4207 33.5135C18.4295 33.5095 18.4383 33.508 18.4464 33.504L27.8696 28.5185L30.6894 31.3368C30.2779 37.5198 29.1883 42.9335 27.6028 46.4ZM44.8515 46.3934L41.1847 42.7471L40.4928 40.7999L41.2701 39.9998L43.2477 40.6927L44.142 41.6287L43.9298 41.8407C43.6934 42.0344 43.5878 42.3461 43.6582 42.6438C43.7286 42.9412 43.9628 43.1726 44.2614 43.24C44.5598 43.307 44.8706 43.1986 45.0619 42.9598L45.2477 42.7742L46.9292 44.5342L44.8515 46.3934Z" fill="#C2C2C2"/>
</svg>
