<svg width="53" height="33" viewBox="0 0 53 33" fill="none" xmlns="http://www.w3.org/2000/svg">
<g id="Group">
<g id="Group_2">
<g id="Group_3">
<path id="Vector" d="M28.1836 12.4615H35.9113" stroke="#C2C2C2" stroke-width="2"/>
</g>
<g id="Group_4">
<path id="Vector_2" d="M11.4414 7.90393H42.3524" stroke="#C2C2C2" stroke-width="2"/>
</g>
<g id="Group_5">
<path id="Vector_3" d="M35.9106 15.8806V4.48506C35.9106 2.59682 34.1808 1.06641 32.0467 1.06641C29.9126 1.06641 28.1828 2.59682 28.1828 4.48506M28.1828 15.8806V4.48506C28.1828 2.59682 26.4531 1.06641 24.319 1.06641C22.1848 1.06641 20.4551 2.59682 20.4551 4.48506" stroke="#C2C2C2" stroke-width="2"/>
</g>
</g>
<g id="Mask group">
<mask id="mask0_2819_209" style="mask-type:alpha" maskUnits="userSpaceOnUse" x="0" y="10" width="53" height="23">
<g id="Group_6">
<g id="Group_7">
<g id="Group_8">
<path id="Vector_4" d="M52.5161 10.0415V33H0.974609V10.0415H52.5161Z" fill="#C2C2C2"/>
</g>
</g>
</g>
</mask>
<g mask="url(#mask0_2819_209)">
<g id="Group_9">
<g id="Group_10">
<g id="Group_11">
<path id="Vector_5" d="M11.454 28.9592C10.5215 28.9592 9.58899 28.6743 8.87804 28.1045C8.16708 27.5348 7.2346 27.2499 6.30212 27.2499C5.36964 27.2499 4.43716 27.5348 3.72621 28.1045C3.01525 28.6743 2.08277 28.9592 1.15029 28.9592C0.217811 28.9592 -0.714672 28.6743 -1.42562 28.1045C-2.13658 27.5348 -3.06906 27.2499 -4.00154 27.2499C-4.93402 27.2499 -5.8665 27.5348 -6.57746 28.1045C-7.28841 28.6743 -8.22089 28.9592 -9.15337 28.9592C-10.0859 28.9592 -11.0183 28.6743 -11.7293 28.1045C-12.4402 27.5348 -13.3727 27.2499 -14.3052 27.2499C-15.2377 27.2499 -16.1702 27.5348 -16.8811 28.1045C-17.5921 28.6743 -18.5246 28.9592 -19.457 28.9592M73.2605 28.9752C72.328 28.9752 71.3955 28.6903 70.6846 28.1205C69.9736 27.5507 69.0411 27.2658 68.1086 27.2658C67.1762 27.2658 66.2437 27.5507 65.5327 28.1205C64.8218 28.6903 63.8893 28.9752 62.9568 28.9752C62.0243 28.9752 61.0918 28.6903 60.3809 28.1205C59.6699 27.5507 58.7375 27.2658 57.805 27.2658C56.8725 27.2658 55.94 27.5507 55.2291 28.1205C54.5181 28.6903 53.5856 28.9752 52.6531 28.9752C51.7207 28.9752 50.7882 28.6903 50.0772 28.1205C49.3663 27.5507 48.4338 27.2658 47.5013 27.2658C46.5688 27.2658 45.6364 27.5507 44.9254 28.1205C44.2144 28.6903 43.282 28.9752 42.3495 28.9752M42.3508 28.9854C41.4183 28.9854 40.4858 28.7005 39.7749 28.1307C39.0639 27.561 38.1314 27.2761 37.1989 27.2761C36.2665 27.2761 35.334 27.561 34.623 28.1307C33.9121 28.7005 32.9796 28.9854 32.0471 28.9854C31.1146 28.9854 30.1821 28.7005 29.4712 28.1307C28.7602 27.561 27.8278 27.2761 26.8953 27.2761C25.9628 27.2761 25.0303 27.561 24.3194 28.1307C23.6084 28.7005 22.6759 28.9854 21.7434 28.9854C20.811 28.9854 19.8785 28.7005 19.1675 28.1307C18.4566 27.561 17.5241 27.2761 16.5916 27.2761C15.6591 27.2761 14.7267 27.561 14.0157 28.1307C13.3047 28.7005 12.3723 28.9854 11.4398 28.9854" stroke="#C2C2C2" stroke-width="2"/>
</g>
<g id="Group_12">
<path id="Vector_6" d="M11.454 23.2612C10.5215 23.2612 9.58899 22.9763 8.87804 22.4065C8.16708 21.8368 7.2346 21.5519 6.30212 21.5519C5.36964 21.5519 4.43716 21.8368 3.72621 22.4065C3.01525 22.9763 2.08277 23.2612 1.15029 23.2612C0.217811 23.2612 -0.714672 22.9763 -1.42562 22.4065C-2.13658 21.8368 -3.06906 21.5519 -4.00154 21.5519C-4.93402 21.5519 -5.8665 21.8368 -6.57746 22.4065C-7.28841 22.9763 -8.22089 23.2612 -9.15337 23.2612C-10.0859 23.2612 -11.0183 22.9763 -11.7293 22.4065C-12.4402 21.8368 -13.3727 21.5519 -14.3052 21.5519C-15.2377 21.5519 -16.1702 21.8368 -16.8811 22.4065C-17.5921 22.9763 -18.5246 23.2612 -19.457 23.2612M73.2605 23.2772C72.328 23.2772 71.3955 22.9923 70.6846 22.4225C69.9736 21.8527 69.0411 21.5678 68.1086 21.5678C67.1762 21.5678 66.2437 21.8527 65.5327 22.4225C64.8218 22.9923 63.8893 23.2772 62.9568 23.2772C62.0243 23.2772 61.0918 22.9923 60.3809 22.4225C59.6699 21.8527 58.7375 21.5678 57.805 21.5678C56.8725 21.5678 55.94 21.8527 55.2291 22.4225C54.5181 22.9923 53.5856 23.2772 52.6531 23.2772C51.7207 23.2772 50.7882 22.9923 50.0772 22.4225C49.3663 21.8527 48.4338 21.5678 47.5013 21.5678C46.5688 21.5678 45.6364 21.8527 44.9254 22.4225C44.2144 22.9923 43.282 23.2772 42.3495 23.2772M42.3508 23.2874C41.4183 23.2874 40.4858 23.0025 39.7749 22.4328C39.0639 21.863 38.1314 21.5781 37.1989 21.5781C36.2665 21.5781 35.334 21.863 34.623 22.4328C33.9121 23.0025 32.9796 23.2874 32.0471 23.2874C31.1146 23.2874 30.1821 23.0025 29.4712 22.4328C28.7602 21.863 27.8278 21.5781 26.8953 21.5781C25.9628 21.5781 25.0303 21.863 24.3194 22.4328C23.6084 23.0025 22.6759 23.2874 21.7434 23.2874C20.811 23.2874 19.8785 23.0025 19.1675 22.4328C18.4566 21.863 17.5241 21.5781 16.5916 21.5781C15.6591 21.5781 14.7267 21.863 14.0157 22.4328C13.3047 23.0025 12.3723 23.2874 11.4398 23.2874" stroke="#C2C2C2" stroke-width="2"/>
</g>
<g id="Group_13">
<path id="Vector_7" d="M11.454 17.5636C10.5215 17.5636 9.58899 17.2787 8.87804 16.7089C8.16708 16.1391 7.2346 15.8542 6.30212 15.8542C5.36964 15.8542 4.43716 16.1391 3.72621 16.7089C3.01525 17.2787 2.08277 17.5636 1.15029 17.5636C0.217811 17.5636 -0.714672 17.2787 -1.42562 16.7089C-2.13658 16.1391 -3.06906 15.8542 -4.00154 15.8542C-4.93402 15.8542 -5.8665 16.1391 -6.57746 16.7089C-7.28841 17.2787 -8.22089 17.5636 -9.15337 17.5636C-10.0859 17.5636 -11.0183 17.2787 -11.7293 16.7089C-12.4402 16.1391 -13.3727 15.8542 -14.3052 15.8542C-15.2377 15.8542 -16.1702 16.1391 -16.8811 16.7089C-17.5921 17.2787 -18.5246 17.5636 -19.457 17.5636M73.2605 17.5795C72.328 17.5795 71.3955 17.2946 70.6846 16.7249C69.9736 16.1551 69.0411 15.8702 68.1086 15.8702C67.1762 15.8702 66.2437 16.1551 65.5327 16.7249C64.8218 17.2946 63.8893 17.5795 62.9568 17.5795C62.0243 17.5795 61.0918 17.2946 60.3809 16.7249C59.6699 16.1551 58.7375 15.8702 57.805 15.8702C56.8725 15.8702 55.94 16.1551 55.2291 16.7249C54.5181 17.2946 53.5856 17.5795 52.6531 17.5795C51.7207 17.5795 50.7882 17.2946 50.0772 16.7249C49.3663 16.1551 48.4338 15.8702 47.5013 15.8702C46.5688 15.8702 45.6364 16.1551 44.9254 16.7249C44.2144 17.2946 43.282 17.5795 42.3495 17.5795M42.3508 17.5898C41.4183 17.5898 40.4858 17.3049 39.7749 16.7351C39.0639 16.1653 38.1314 15.8805 37.1989 15.8805C36.2665 15.8805 35.334 16.1653 34.623 16.7351C33.9121 17.3049 32.9796 17.5898 32.0471 17.5898C31.1146 17.5898 30.1821 17.3049 29.4712 16.7351C28.7602 16.1653 27.8278 15.8805 26.8953 15.8805C25.9628 15.8805 25.0303 16.1653 24.3194 16.7351C23.6084 17.3049 22.6759 17.5898 21.7434 17.5898C20.811 17.5898 19.8785 17.3049 19.1675 16.7351C18.4566 16.1653 17.5241 15.8805 16.5916 15.8805C15.6591 15.8805 14.7267 16.1653 14.0157 16.7351C13.3047 17.3049 12.3723 17.5898 11.4398 17.5898" stroke="#C2C2C2" stroke-width="2"/>
</g>
</g>
</g>
</g>
</g>
</g>
</svg>
