<svg width="49" height="48" viewBox="0 0 49 48" fill="none" xmlns="http://www.w3.org/2000/svg">
<g id="Frame 17331">
<g id="Group 2039">
<g id="Group 2038">
<path id="Union" d="M15.9517 3.3524C15.2564 2.98963 14.3783 2.98963 13.683 3.3524C9.80246 5.37695 3.66903 12.2343 3.29824 27.6487C3.12877 34.6939 3.09955 38.9182 3.12352 41.4498C3.14581 43.803 5.031 45.2256 7.87555 45.2256H21.7592C24.6037 45.2256 26.4889 43.803 26.5112 41.4498C26.5352 38.9182 26.506 34.6939 26.3365 27.6487C25.9657 12.2343 19.8323 5.37695 15.9517 3.3524Z" fill="#C2C2C2"/>
<rect id="Rectangle 1058" x="9.27734" y="15.9944" width="11.0799" height="9.87709" rx="2" fill="#01242B"/>
</g>
<path id="Vector 16 (Stroke)" fill-rule="evenodd" clip-rule="evenodd" d="M39.8305 2.54511C40.1234 2.25222 40.5983 2.25222 40.8912 2.54511L45.6642 7.31808C45.9571 7.61097 45.9571 8.08585 45.6642 8.37874C45.3713 8.67163 44.8964 8.67163 44.6035 8.37874L41.1109 4.8861V43.1139L44.6035 39.6213C44.8964 39.3284 45.3713 39.3284 45.6642 39.6213C45.9571 39.9142 45.9571 40.389 45.6642 40.6819L40.8912 45.4549C40.5983 45.7478 40.1234 45.7478 39.8305 45.4549L35.0576 40.6819C34.7647 40.389 34.7647 39.9142 35.0576 39.6213C35.3505 39.3284 35.8253 39.3284 36.1182 39.6213L39.6109 43.1139V4.8861L36.1182 8.37874C35.8253 8.67163 35.3505 8.67163 35.0576 8.37874C34.7647 8.08585 34.7647 7.61097 35.0576 7.31808L39.8305 2.54511Z" fill="#C2C2C2"/>
</g>
</g>
</svg>
