<svg width="28" height="27" viewBox="0 0 28 27" fill="none" xmlns="http://www.w3.org/2000/svg">
<path fill-rule="evenodd" clip-rule="evenodd" d="M24.6391 5.07181L26.2897 5.25768L25.5477 6.6915C25.1859 7.39072 24.8238 8.08993 24.4612 8.78915C24.4182 8.93724 24.3427 9.06707 24.2309 9.23611C24.1843 9.30673 24.0247 9.5314 24.0173 9.54219C23.9752 9.60309 23.944 9.65112 23.9216 9.68961V12.3767C23.9216 19.2527 17.0208 23.6221 10.5038 23.6221C9.17027 23.6221 8.15709 23.5605 6.99693 23.3164C5.08768 22.9146 3.66683 22.116 3.01664 20.7202L2.34725 19.2833L3.97403 19.139C5.44568 19.0085 6.72164 18.7381 7.70152 18.3761C5.0114 17.9589 3.50387 16.8196 3.50387 14.68V13.555H4.67054C4.92687 13.555 5.15801 13.5349 5.36464 13.4981C3.34568 12.3341 2.33443 10.4668 2.33443 7.87671C2.33421 7.76632 2.33421 7.76632 2.33352 7.64828C2.32594 6.34278 2.39866 5.64521 2.76928 4.75492C3.00681 4.18434 3.35014 3.65612 3.81222 3.17213L4.6926 2.25L5.54854 3.19328C8.36927 6.30181 11.1576 8.1877 14.0045 8.41581C14.0167 5.54743 16.2648 3.37671 19.2547 3.37671C20.6486 3.37671 21.913 3.88689 22.9066 4.80682C23.4504 4.91457 24.0279 5.00298 24.6391 5.07181ZM22.0598 6.93226L21.7021 6.85417L21.4551 6.5928C20.8579 5.96086 20.1083 5.62671 19.2547 5.62671C17.5479 5.62671 16.3378 6.79939 16.3378 8.43921C16.3378 8.7072 16.3306 8.87559 16.296 9.09691C16.1579 9.98005 15.6442 10.6892 14.5878 10.6892C11.0901 10.6892 7.93459 8.88234 4.85755 5.79631C4.69892 6.2613 4.66161 6.73928 4.66682 7.63567C4.66752 7.75556 4.66752 7.75556 4.66777 7.87671C4.66777 10.1807 5.63576 11.441 7.92772 12.1435L8.74099 12.3927V13.2156C8.74099 14.2135 7.7606 15.1528 6.32614 15.5735C6.98371 16.0546 8.32851 16.3142 10.5042 16.3142H11.6709V17.4392C11.6709 19.051 9.75023 20.3131 6.84888 20.9721C7.79508 21.2516 9.05494 21.3721 10.5038 21.3721C15.8873 21.3721 21.5883 17.7624 21.5883 12.3767V9.56421C21.5883 9.2337 21.6876 8.94682 21.8527 8.64853C21.9172 8.53191 21.9883 8.42072 22.076 8.29391C22.0925 8.27004 22.1537 8.18354 22.2024 8.11438L22.2948 7.93607C22.4447 7.64712 22.5944 7.35818 22.7441 7.06923C22.5115 7.02673 22.2833 6.98108 22.0598 6.93226Z" fill="#C2C2C2"/>
</svg>
