<svg width="21" height="20" viewBox="0 0 21 20" fill="none" xmlns="http://www.w3.org/2000/svg">
<g id="Sign-in and Registration/Social icon" clip-path="url(#clip0_2544_1862)">
<path id="Path" d="M6.79 18.251C14.337 18.251 18.465 11.998 18.465 6.57596C18.465 6.39796 18.465 6.22096 18.453 6.04596C19.2562 5.46448 19.9493 4.74457 20.5 3.91996C19.7511 4.25196 18.9566 4.46972 18.143 4.56596C18.9996 4.05302 19.6408 3.24631 19.947 2.29596C19.1417 2.77384 18.2607 3.11069 17.342 3.29196C16.7234 2.63372 15.905 2.19779 15.0136 2.05166C14.1222 1.90553 13.2075 2.05736 12.4111 2.48363C11.6147 2.9099 10.9811 3.58683 10.6083 4.40962C10.2355 5.2324 10.1444 6.15514 10.349 7.03496C8.71759 6.9532 7.1216 6.52928 5.66465 5.79073C4.20769 5.05217 2.92233 4.01548 1.892 2.74796C1.36732 3.65116 1.20659 4.72038 1.44254 5.73792C1.67848 6.75547 2.29337 7.64483 3.162 8.22496C2.50926 8.20602 1.87065 8.03042 1.3 7.71296V7.76496C1.30039 8.71225 1.6284 9.63026 2.2284 10.3633C2.8284 11.0964 3.66347 11.5993 4.592 11.787C3.98781 11.9517 3.35389 11.9756 2.739 11.857C3.00116 12.6724 3.51168 13.3856 4.19913 13.8966C4.88658 14.4076 5.71657 14.6909 6.573 14.707C5.72212 15.3755 4.74779 15.8698 3.70573 16.1615C2.66367 16.4532 1.57432 16.5366 0.5 16.407C2.3766 17.6113 4.56019 18.2501 6.79 18.247" fill="#C2C2C2"/>
</g>
<defs>
<clipPath id="clip0_2544_1862">
<rect width="20" height="20" fill="white" transform="translate(0.5)"/>
</clipPath>
</defs>
</svg>
