<svg width="1436" height="19" viewBox="0 0 1436 19" fill="none" xmlns="http://www.w3.org/2000/svg">
<path d="M1407.93 18.8656C1362.24 18.8656 1326.62 15.2923 1292.15 11.8363C1257.82 8.3969 1225.41 5.14165 1183.4 5.14165C1141.39 5.14165 1108.95 8.3969 1074.65 11.8363C1040.18 15.2923 1004.52 18.8656 958.867 18.8656C913.174 18.8656 877.556 15.2923 843.081 11.8363C808.749 8.3969 776.346 5.14165 734.333 5.14165C692.32 5.14165 659.882 8.3969 625.586 11.8363C591.111 15.2923 555.457 18.8656 509.8 18.8656C464.107 18.8656 428.489 15.2923 394.014 11.8363C359.682 8.3969 327.279 5.14165 285.266 5.14165C243.253 5.14165 210.815 8.3969 176.519 11.8363C142.044 15.2923 106.39 18.8656 60.733 18.8656C40.6554 18.8656 20.7921 18.171 0 16.7401L5.03727 12.7233C24.0431 14.0455 42.263 14.6815 60.6258 14.6815C102.639 14.6815 135.077 11.4262 169.374 7.98686C203.849 4.53077 239.502 0.95752 285.195 0.95752C330.888 0.95752 366.506 4.53077 400.981 7.98686C435.313 11.4262 467.716 14.6815 509.728 14.6815C551.741 14.6815 584.18 11.4262 618.476 7.98686C652.951 4.53077 688.605 0.95752 734.298 0.95752C779.99 0.95752 815.608 4.53077 850.083 7.98686C884.415 11.4262 916.818 14.6815 958.831 14.6815C1000.84 14.6815 1033.28 11.4262 1067.58 7.98686C1102.05 4.53077 1137.71 0.95752 1183.36 0.95752C1229.06 0.95752 1264.68 4.53077 1299.15 7.98686C1333.48 11.4262 1365.89 14.6815 1407.9 14.6815C1426.26 14.6815 1444.48 14.0455 1463.59 12.7317L1468.63 16.7484C1447.87 18.171 1428.01 18.8656 1407.93 18.8656Z" fill="#013D4A"/>
</svg>
