<svg width="93" height="49" viewBox="0 0 93 49" fill="none" xmlns="http://www.w3.org/2000/svg">
<path d="M26.1055 35.8475C25.5716 35.8475 24.9669 35.7549 24.1439 35.5473C22.0855 35.0267 19.9878 33.225 17.9083 30.1914C16.3375 27.9001 15.2872 25.6403 15.0024 25.0018C14.9287 24.8384 14.9427 24.6496 15.0409 24.4981C15.1392 24.3459 15.3061 24.2547 15.4872 24.2547C15.5833 24.2547 15.6787 24.2813 15.7615 24.3318C15.765 24.3339 15.7685 24.336 15.772 24.3381C16.0526 24.517 17.098 25.105 18.7712 25.1695C18.9235 25.1751 19.0891 25.1786 19.2778 25.1786C21.0058 25.1786 23.6921 24.9247 26.5356 24.6553C28.2594 24.4918 30.0421 24.3234 31.6157 24.214C31.6164 24.214 31.6171 24.214 31.6178 24.214L31.775 24.2034C31.8627 24.1978 31.9497 24.1915 32.0353 24.1866C34.951 24 37.984 23.9053 41.0492 23.9053C51.7658 23.9053 63.1468 25.0306 74.8758 27.2497C85.5376 29.2667 92.5871 31.4893 92.6573 31.5118C92.9028 31.5897 93.0466 31.8443 92.9863 32.0948C92.926 32.3453 92.6825 32.5066 92.4285 32.4645C92.3752 32.4554 87.0152 31.5714 79.6254 30.7611C78.4124 30.6278 77.1755 30.5001 75.9478 30.3815C69.0856 29.7207 62.8535 29.3853 57.424 29.3853C51.8507 29.3853 47.1445 29.7431 43.4352 30.4496C34.0313 32.2407 30.8019 33.9329 28.8719 34.9439C27.8321 35.4876 27.1453 35.8475 26.1055 35.8475ZM16.4371 25.7294C17.6768 28.2052 20.7827 33.6839 24.3853 34.5945C25.1156 34.779 25.6621 34.8653 26.1055 34.8653C26.9032 34.8653 27.4413 34.584 28.4172 34.0725C30.395 33.0363 33.7057 31.3013 43.2521 29.4835C47.0217 28.7658 51.7896 28.4024 57.4247 28.4024C62.8851 28.4024 69.1495 28.7391 76.0425 29.4028C77.2744 29.5214 78.5162 29.6498 79.7328 29.7838C81.5155 29.9795 83.181 30.1795 84.6831 30.3703C81.9385 29.7017 78.5548 28.9447 74.694 28.2144C63.0247 26.0065 51.7054 24.8868 41.0499 24.8868C38.0057 24.8868 34.9931 24.9808 32.0977 25.1667C32.0121 25.1716 31.9272 25.1779 31.8416 25.1835L31.6824 25.1941C30.1214 25.3028 28.3457 25.4705 26.6289 25.6333C23.7616 25.9048 21.0535 26.1608 19.2785 26.1608C19.0764 26.1608 18.8982 26.158 18.7341 26.151C17.7932 26.1145 17.0236 25.9342 16.4371 25.7294ZM15.899 24.6005C15.8997 24.6012 15.8997 24.6026 15.9004 24.6033C15.8997 24.6026 15.899 24.6012 15.899 24.6005Z" fill="#88A0A5"/>
<path d="M66.1235 24.3185C66.0948 24.3185 66.0653 24.3157 66.0358 24.3108C65.9425 24.2939 65.7727 24.2617 65.5349 24.216C50.0904 21.2624 38.9423 20.5166 34.9503 22.1695C34.7321 22.2593 34.4809 22.1822 34.3518 21.985C34.2228 21.7879 34.2515 21.5262 34.4213 21.3627C37.4795 18.4119 40.3005 16.9372 42.8157 16.9835C47.2728 17.0635 56.7771 19.2854 66.3172 23.3763C66.5466 23.4745 66.6658 23.7299 66.5943 23.9691C66.5304 24.1789 66.3368 24.3185 66.1235 24.3185ZM41.6476 20.3167C47.5191 20.3167 55.181 21.388 61.3696 22.4579C53.6039 19.5814 46.4513 18.0309 42.7974 17.965C40.9677 17.932 38.9086 18.8448 36.6565 20.6829C38.0639 20.4268 39.7638 20.3167 41.6476 20.3167Z" fill="#88A0A5"/>
<g filter="url(#filter0_f_2533_71517)">
<circle cx="16.7082" cy="24.3183" r="8.95603" fill="#FBF6D7" fill-opacity="0.13"/>
</g>
<defs>
<filter id="filter0_f_2533_71517" x="-7.33164" y="0.278471" width="48.0798" height="48.0798" filterUnits="userSpaceOnUse" color-interpolation-filters="sRGB">
<feFlood flood-opacity="0" result="BackgroundImageFix"/>
<feBlend mode="normal" in="SourceGraphic" in2="BackgroundImageFix" result="shape"/>
<feGaussianBlur stdDeviation="7.54192" result="effect1_foregroundBlur_2533_71517"/>
</filter>
</defs>
</svg>
