<svg width="28" height="27" viewBox="0 0 28 27" fill="none" xmlns="http://www.w3.org/2000/svg">
<g id="24 / symbols / youtube">
<path id="icon" fill-rule="evenodd" clip-rule="evenodd" d="M25.6959 20.3942C26.4931 19.0768 26.8337 16.9525 26.8337 13.4969C26.8337 10.055 26.4963 7.94305 25.6906 6.59028C24.8831 5.18553 23.9255 4.73966 22.025 4.63264C20.7276 4.54784 17.503 4.5 14.0034 4.5C10.4964 4.5 7.27034 4.54782 5.96316 4.6333C4.07329 4.73992 3.11545 5.18677 2.30091 6.59542C1.50694 7.94352 1.16699 10.0658 1.16699 13.5094C1.16699 16.9335 1.50859 19.0665 2.30789 20.4102C3.11184 21.8007 4.05441 22.2422 5.96036 22.3712C7.33021 22.4485 10.7388 22.5 14.0034 22.5C17.2607 22.5 20.6677 22.4485 22.025 22.3721C23.9485 22.2422 24.8909 21.8 25.6959 20.3942ZM21.8781 6.87815C23.0669 6.94514 23.2874 7.04818 23.6642 7.70584C24.2128 8.62199 24.5003 10.4149 24.5003 13.5094C24.5003 16.5806 24.2113 18.3834 23.6668 19.2836C23.2886 19.9433 23.0697 20.046 21.8754 20.1268C20.5907 20.199 17.2168 20.25 14.0034 20.25C10.7828 20.25 7.40719 20.199 6.11019 20.1259C4.93067 20.046 4.70859 19.9419 4.33885 19.3025C3.79066 18.3808 3.50033 16.5679 3.50033 13.4969C3.50033 10.4276 3.78912 8.62469 4.33437 7.69885C4.70986 7.04955 4.93351 6.94522 6.11027 6.8788C7.35625 6.79737 10.5519 6.75 14.0034 6.75C17.4475 6.75 20.6417 6.79739 21.8781 6.87815ZM11.667 10.125L17.5003 13.5L11.667 16.875V10.125Z" fill="#C2C2C2"/>
</g>
</svg>
